<svg width="671" height="426" viewBox="0 0 671 426" fill="none" xmlns="http://www.w3.org/2000/svg">
<rect y="58" width="607" height="368" rx="12" fill="white"/>
<path d="M35.84 107.3C39.62 107.3 42.58 104.8 43.08 101.08H39.86C39.5 103.14 37.92 104.58 35.88 104.58C33.42 104.58 31.76 102.62 31.76 99.8C31.76 97 33.42 95.06 35.88 95.06C37.92 95.06 39.52 96.48 39.86 98.54H43.08C42.58 94.86 39.62 92.34 35.84 92.34C31.8 92.34 28.64 95.6 28.64 99.8C28.64 104.02 31.8 107.3 35.84 107.3ZM50.1827 107.2C53.2827 107.2 55.6027 104.76 55.6027 101.66C55.6027 98.54 53.2827 96.12 50.1827 96.12C47.0827 96.12 44.7627 98.54 44.7627 101.66C44.7627 104.76 47.0827 107.2 50.1827 107.2ZM50.1827 104.74C48.8027 104.74 47.6227 103.64 47.6227 101.66C47.6227 99.68 48.8027 98.6 50.1827 98.6C51.5627 98.6 52.7427 99.68 52.7427 101.66C52.7427 103.64 51.5627 104.74 50.1827 104.74ZM61.0967 93.84C61.0967 92.86 60.3367 92.16 59.2367 92.16C58.1567 92.16 57.3967 92.86 57.3967 93.84C57.3967 94.78 58.1567 95.48 59.2367 95.48C60.3367 95.48 61.0967 94.78 61.0967 93.84ZM60.6567 107V96.32H57.8767V107H60.6567ZM66.4106 101.18C66.4106 99.46 67.3506 98.58 68.4506 98.58C69.7106 98.58 70.3306 99.46 70.3306 101.04V107H73.0906V100.1C73.0906 97.52 71.6106 96.12 69.4706 96.12C68.0706 96.12 66.9706 96.78 66.1906 97.84V96.32H63.6306V107H66.4106V101.18ZM79.9658 101.66C79.9658 104.78 81.8258 107.2 84.7058 107.2C86.0858 107.2 87.2458 106.58 88.0858 105.46V107H90.6258V92.64H87.8658V97.7C87.0658 96.68 85.9858 96.12 84.7058 96.12C81.8258 96.12 79.9658 98.5 79.9658 101.66ZM82.8258 101.66C82.8258 99.62 83.9658 98.58 85.3258 98.58C86.6858 98.58 87.8458 99.6 87.8458 101.62C87.8458 103.64 86.7058 104.72 85.3258 104.72C83.9658 104.72 82.8258 103.66 82.8258 101.66ZM96.8272 93.84C96.8272 92.86 96.0672 92.16 94.9672 92.16C93.8872 92.16 93.1272 92.86 93.1272 93.84C93.1272 94.78 93.8872 95.48 94.9672 95.48C96.0672 95.48 96.8272 94.78 96.8272 93.84ZM96.3872 107V96.32H93.6072V107H96.3872ZM108.981 96.32H106.181L103.621 103.84L101.081 96.32H98.0811L102.021 107H105.061L108.981 96.32ZM114.97 107.18C117.57 107.18 119.43 105.8 120.03 103.38H117.27C116.95 104.44 116.13 105.04 114.91 105.04C113.49 105.04 112.65 104.08 112.47 102.34H120.05C120.55 98.86 118.31 96.12 114.93 96.12C111.85 96.12 109.63 98.44 109.63 101.62C109.63 104.96 111.77 107.18 114.97 107.18ZM114.87 98.16C116.19 98.16 117.03 99.1 117.11 100.58H112.51C112.75 99 113.57 98.16 114.87 98.16ZM125.192 101.82C125.192 99.46 126.772 98.9 129.132 99.08V96.2C127.412 96.2 125.752 97.02 124.972 98.38V96.32H122.412V107H125.192V101.82ZM140.096 103.58C140.096 102.04 139.036 101.08 136.956 100.68L134.896 100.3C133.936 100.12 133.496 99.86 133.496 99.22C133.496 98.54 134.176 98.16 135.196 98.16C136.376 98.16 137.156 98.8 137.256 99.84H139.916C139.716 97.54 137.876 96.12 135.196 96.12C132.536 96.12 130.836 97.5 130.836 99.48C130.836 101.14 131.996 102.2 133.916 102.54L135.836 102.9C136.856 103.1 137.296 103.38 137.296 104.06C137.296 104.82 136.476 105.16 135.396 105.16C134.016 105.16 133.076 104.46 133.056 103.36H130.396C130.616 105.74 132.316 107.2 135.356 107.2C138.396 107.2 140.096 105.82 140.096 103.58ZM145.714 93.84C145.714 92.86 144.954 92.16 143.854 92.16C142.774 92.16 142.014 92.86 142.014 93.84C142.014 94.78 142.774 95.48 143.854 95.48C144.954 95.48 145.714 94.78 145.714 93.84ZM145.274 107V96.32H142.494V107H145.274ZM154.888 104.3C154.488 104.52 154.008 104.64 153.488 104.64C152.488 104.64 151.928 104.14 151.928 102.9V98.7H154.988V96.32H151.928V93.16H149.168V96.32H147.008V98.7H149.168V103.54C149.168 105.94 150.548 107.2 152.748 107.2C153.568 107.2 154.208 107.06 154.888 106.72V104.3ZM166.805 96.32H164.025L161.585 103.64L158.905 96.32H155.905L160.105 106.88L158.585 110.86H161.605L166.805 96.32Z" fill="#1D1D1F"/>
<g clip-path="url(#clip0_270_6621)">
<path d="M187 107.833C182.398 107.833 178.667 104.103 178.667 99.5001C178.667 94.8976 182.398 91.1667 187 91.1667C191.603 91.1667 195.333 94.8976 195.333 99.5001C195.333 104.103 191.603 107.833 187 107.833ZM187 106.167C188.768 106.167 190.464 105.464 191.714 104.214C192.964 102.964 193.667 101.268 193.667 99.5001C193.667 97.732 192.964 96.0363 191.714 94.786C190.464 93.5358 188.768 92.8334 187 92.8334C185.232 92.8334 183.536 93.5358 182.286 94.786C181.036 96.0363 180.333 97.732 180.333 99.5001C180.333 101.268 181.036 102.964 182.286 104.214C183.536 105.464 185.232 106.167 187 106.167V106.167ZM186.167 95.3334H187.833V97.0001H186.167V95.3334ZM186.167 98.6667H187.833V103.667H186.167V98.6667Z" fill="#787F84"/>
</g>
<path opacity="0.68" d="M116.446 384.734C116.446 383.832 115.918 383.161 114.939 382.886C115.698 382.556 116.149 381.918 116.149 381.17C116.149 379.839 115.192 379.102 113.597 379.102H110.858V387H113.751C115.39 387 116.446 386.175 116.446 384.734ZM113.52 380.07C114.477 380.07 114.994 380.521 114.994 381.258C114.994 381.995 114.477 382.446 113.52 382.446H111.969V380.07H113.52ZM113.674 383.414C114.708 383.414 115.291 383.898 115.291 384.701C115.291 385.537 114.708 386.032 113.674 386.032H111.969V383.414H113.674ZM120.782 387V380.191H123.356V379.102H116.998V380.191H119.572V387H120.782ZM127.578 387.165C129.558 387.165 131.142 385.845 131.439 383.887H130.152C129.932 385.163 128.898 386.076 127.589 386.076C126.027 386.076 124.927 384.811 124.927 383.04C124.927 381.291 126.027 380.026 127.589 380.026C128.898 380.026 129.932 380.928 130.152 382.204H131.439C131.142 380.257 129.558 378.937 127.578 378.937C125.378 378.937 123.673 380.719 123.673 383.04C123.673 385.372 125.378 387.165 127.578 387.165Z" fill="#787F84"/>
<path opacity="0.68" d="M247.274 379.102H246.064V384.195C246.064 385.339 245.393 386.076 244.216 386.076C243.05 386.076 242.379 385.339 242.379 384.195V379.102H241.169V384.162C241.169 385.977 242.324 387.165 244.216 387.165C246.108 387.165 247.274 385.977 247.274 384.162V379.102ZM254.388 387H255.609V379.102H254.487V385.108L250.428 379.102H249.108V387H250.23V380.829L254.388 387ZM258.675 387V379.102H257.465V387H258.675Z" fill="#787F84"/>
<path opacity="0.68" d="M374.805 387H376.026V379.102H374.904V385.108L370.845 379.102H369.525V387H370.647V380.829L374.805 387ZM382.887 385.944H379.092V383.458H382.48V382.402H379.092V380.158H382.81V379.102H377.882V387H382.887V385.944ZM388.009 387.165C390.297 387.165 392.024 385.372 392.024 383.04C392.024 380.708 390.297 378.937 388.009 378.937C385.721 378.937 383.994 380.708 383.994 383.04C383.994 385.372 385.721 387.165 388.009 387.165ZM388.009 386.076C386.337 386.076 385.248 384.734 385.248 383.04C385.248 381.346 386.337 380.026 388.009 380.026C389.681 380.026 390.77 381.346 390.77 383.04C390.77 384.734 389.681 386.076 388.009 386.076Z" fill="#787F84"/>
<path opacity="0.68" d="M505.411 387.165C507.699 387.165 509.426 385.372 509.426 383.04C509.426 380.708 507.699 378.937 505.411 378.937C503.123 378.937 501.396 380.708 501.396 383.04C501.396 385.372 503.123 387.165 505.411 387.165ZM505.411 386.076C503.739 386.076 502.65 384.734 502.65 383.04C502.65 381.346 503.739 380.026 505.411 380.026C507.083 380.026 508.172 381.346 508.172 383.04C508.172 384.734 507.083 386.076 505.411 386.076ZM514.028 385.922C513.797 386.032 513.566 386.076 513.302 386.076C512.708 386.076 512.323 385.79 512.323 384.987V382.116H514.083V381.17H512.323V379.443H511.212V381.17H509.925V382.116H511.212V385.24C511.212 386.527 511.96 387.11 513.038 387.11C513.39 387.11 513.687 387.055 514.028 386.901V385.922ZM516.405 383.711C516.405 382.677 517.043 382.039 517.802 382.039C518.627 382.039 519.067 382.6 519.067 383.601V387H520.178V383.227C520.178 381.83 519.386 381.06 518.187 381.06C517.384 381.06 516.79 381.478 516.405 382.105V379.102H515.294V387H516.405V383.711ZM524.201 387.11C525.576 387.11 526.577 386.329 526.863 385.031H525.763C525.576 385.79 525.004 386.241 524.179 386.241C523.2 386.241 522.606 385.548 522.518 384.36H526.863C527.061 382.468 525.906 381.06 524.168 381.06C522.562 381.06 521.385 382.325 521.385 384.052C521.385 385.889 522.518 387.11 524.201 387.11ZM524.146 381.896C525.048 381.896 525.631 382.545 525.686 383.623H522.529C522.65 382.534 523.255 381.896 524.146 381.896ZM529.305 384.019C529.305 382.732 530.218 382.182 531.472 382.248V381.093C530.515 381.093 529.635 381.599 529.228 382.402V381.17H528.194V387H529.305V384.019Z" fill="#787F84"/>
<path opacity="0.68" d="M50.641 163.979V163.099C52.181 163 53.061 162.054 53.061 160.844C53.061 159.678 52.269 159.139 51.07 158.886L50.08 158.677C49.431 158.534 48.848 158.281 48.848 157.577C48.848 156.895 49.387 156.378 50.289 156.378C51.18 156.378 51.796 156.983 51.851 157.83H52.973C52.885 156.499 51.928 155.619 50.641 155.476V154.563H49.871V155.476C48.595 155.63 47.715 156.51 47.715 157.654C47.715 158.985 48.672 159.447 49.673 159.656L50.663 159.876C51.455 160.052 51.873 160.36 51.873 160.987C51.873 161.746 51.169 162.186 50.278 162.186C49.2 162.186 48.639 161.603 48.584 160.69H47.462C47.539 162.01 48.408 162.934 49.871 163.088V163.979H50.641ZM59.7504 161.361V160.393H58.7384V155.564H57.8804L54.0524 160.58V161.361H57.6274V163H58.7384V161.361H59.7504ZM55.2954 160.393L57.6274 157.247V160.393H55.2954ZM66.3242 161.361V160.393H65.3122V155.564H64.4542L60.6262 160.58V161.361H64.2012V163H65.3122V161.361H66.3242ZM61.8692 160.393L64.2012 157.247V160.393H61.8692ZM67.4109 159.293C67.4109 161.757 68.3679 163.11 70.1499 163.11C71.9319 163.11 72.8999 161.757 72.8999 159.293C72.8999 156.829 71.9099 155.454 70.1499 155.454C68.3899 155.454 67.4109 156.829 67.4109 159.293ZM68.5549 159.293C68.5549 157.434 69.1269 156.455 70.1499 156.455C71.1949 156.455 71.7559 157.434 71.7559 159.293C71.7559 161.141 71.1949 162.109 70.1499 162.109C69.1049 162.109 68.5549 161.13 68.5549 159.293ZM75.4664 163V160.239L78.0954 163H79.5254L76.5774 159.997L79.2724 157.17H77.9634L75.4664 159.777V155.102H74.3554V163H75.4664Z" fill="#787F84"/>
<path opacity="0.68" d="M50.641 215.479V214.599C52.181 214.5 53.061 213.554 53.061 212.344C53.061 211.178 52.269 210.639 51.07 210.386L50.08 210.177C49.431 210.034 48.848 209.781 48.848 209.077C48.848 208.395 49.387 207.878 50.289 207.878C51.18 207.878 51.796 208.483 51.851 209.33H52.973C52.885 207.999 51.928 207.119 50.641 206.976V206.063H49.871V206.976C48.595 207.13 47.715 208.01 47.715 209.154C47.715 210.485 48.672 210.947 49.673 211.156L50.663 211.376C51.455 211.552 51.873 211.86 51.873 212.487C51.873 213.246 51.169 213.686 50.278 213.686C49.2 213.686 48.639 213.103 48.584 212.19H47.462C47.539 213.51 48.408 214.434 49.871 214.588V215.479H50.641ZM56.7623 214.599C58.3463 214.599 59.4243 213.697 59.4243 212.377C59.4243 211.519 58.8633 210.881 57.8843 210.617C58.6543 210.254 59.0833 209.671 59.0833 208.945C59.0833 207.779 58.1593 206.954 56.7293 206.954C55.3763 206.954 54.3423 207.867 54.3093 209.088H55.3873C55.4203 208.329 55.9263 207.845 56.6853 207.845C57.4333 207.845 57.9283 208.318 57.9283 209.022C57.9283 209.748 57.3783 210.232 56.5423 210.232H55.8273V211.123H56.5973C57.6203 211.123 58.2693 211.618 58.2693 212.399C58.2693 213.202 57.6973 213.708 56.7623 213.708C55.8603 213.708 55.2663 213.191 55.2223 212.388H54.1333C54.1443 213.697 55.2223 214.599 56.7623 214.599ZM63.1213 214.599C64.7053 214.599 65.7833 213.697 65.7833 212.377C65.7833 211.519 65.2223 210.881 64.2433 210.617C65.0133 210.254 65.4423 209.671 65.4423 208.945C65.4423 207.779 64.5183 206.954 63.0883 206.954C61.7353 206.954 60.7013 207.867 60.6683 209.088H61.7463C61.7793 208.329 62.2853 207.845 63.0443 207.845C63.7923 207.845 64.2873 208.318 64.2873 209.022C64.2873 209.748 63.7373 210.232 62.9013 210.232H62.1863V211.123H62.9563C63.9793 211.123 64.6283 211.618 64.6283 212.399C64.6283 213.202 64.0563 213.708 63.1213 213.708C62.2193 213.708 61.6253 213.191 61.5813 212.388H60.4923C60.5033 213.697 61.5813 214.599 63.1213 214.599ZM67.0027 210.793C67.0027 213.257 67.9597 214.61 69.7417 214.61C71.5237 214.61 72.4917 213.257 72.4917 210.793C72.4917 208.329 71.5017 206.954 69.7417 206.954C67.9817 206.954 67.0027 208.329 67.0027 210.793ZM68.1467 210.793C68.1467 208.934 68.7187 207.955 69.7417 207.955C70.7867 207.955 71.3477 208.934 71.3477 210.793C71.3477 212.641 70.7867 213.609 69.7417 213.609C68.6967 213.609 68.1467 212.63 68.1467 210.793ZM75.0581 214.5V211.739L77.6871 214.5H79.1171L76.1691 211.497L78.8641 208.67H77.5551L75.0581 211.277V206.602H73.9471V214.5H75.0581Z" fill="#787F84"/>
<path opacity="0.68" d="M50.641 266.979V266.099C52.181 266 53.061 265.054 53.061 263.844C53.061 262.678 52.269 262.139 51.07 261.886L50.08 261.677C49.431 261.534 48.848 261.281 48.848 260.577C48.848 259.895 49.387 259.378 50.289 259.378C51.18 259.378 51.796 259.983 51.851 260.83H52.973C52.885 259.499 51.928 258.619 50.641 258.476V257.563H49.871V258.476C48.595 258.63 47.715 259.51 47.715 260.654C47.715 261.985 48.672 262.447 49.673 262.656L50.663 262.876C51.455 263.052 51.873 263.36 51.873 263.987C51.873 264.746 51.169 265.186 50.278 265.186C49.2 265.186 48.639 264.603 48.584 263.69H47.462C47.539 265.01 48.408 265.934 49.871 266.088V266.979H50.641ZM59.1247 265.01H55.9897L57.4857 263.316C58.7067 262.018 59.0257 261.424 59.0257 260.577C59.0257 259.356 58.0137 258.454 56.6277 258.454C55.1537 258.454 54.1197 259.444 54.1197 260.819H55.2087C55.2087 259.994 55.7587 259.455 56.5837 259.455C57.3427 259.455 57.8597 259.972 57.8597 260.709C57.8597 261.38 57.5187 261.897 56.6387 262.854L54.3177 265.362V266H59.1247V265.01ZM65.1399 265.01H62.0049L63.5009 263.316C64.7219 262.018 65.0409 261.424 65.0409 260.577C65.0409 259.356 64.0289 258.454 62.6429 258.454C61.1689 258.454 60.1349 259.444 60.1349 260.819H61.2239C61.2239 259.994 61.7739 259.455 62.5989 259.455C63.3579 259.455 63.8749 259.972 63.8749 260.709C63.8749 261.38 63.5339 261.897 62.6539 262.854L60.3329 265.362V266H65.1399V265.01ZM66.3152 262.293C66.3152 264.757 67.2722 266.11 69.0542 266.11C70.8362 266.11 71.8042 264.757 71.8042 262.293C71.8042 259.829 70.8142 258.454 69.0542 258.454C67.2942 258.454 66.3152 259.829 66.3152 262.293ZM67.4592 262.293C67.4592 260.434 68.0312 259.455 69.0542 259.455C70.0992 259.455 70.6602 260.434 70.6602 262.293C70.6602 264.141 70.0992 265.109 69.0542 265.109C68.0092 265.109 67.4592 264.13 67.4592 262.293ZM74.3706 266V263.239L76.9996 266H78.4296L75.4816 262.997L78.1766 260.17H76.8676L74.3706 262.777V258.102H73.2596V266H74.3706Z" fill="#787F84"/>
<path opacity="0.68" d="M50.641 318.479V317.599C52.181 317.5 53.061 316.554 53.061 315.344C53.061 314.178 52.269 313.639 51.07 313.386L50.08 313.177C49.431 313.034 48.848 312.781 48.848 312.077C48.848 311.395 49.387 310.878 50.289 310.878C51.18 310.878 51.796 311.483 51.851 312.33H52.973C52.885 310.999 51.928 310.119 50.641 309.976V309.063H49.871V309.976C48.595 310.13 47.715 311.01 47.715 312.154C47.715 313.485 48.672 313.947 49.673 314.156L50.663 314.376C51.455 314.552 51.873 314.86 51.873 315.487C51.873 316.246 51.169 316.686 50.278 316.686C49.2 316.686 48.639 316.103 48.584 315.19H47.462C47.539 316.51 48.408 317.434 49.871 317.588V318.479H50.641ZM56.5067 317.5V310.064H53.9437V311.032H55.3847V317.5H56.5067ZM60.2876 317.5V310.064H57.7246V311.032H59.1656V317.5H60.2876ZM61.8464 313.793C61.8464 316.257 62.8034 317.61 64.5854 317.61C66.3674 317.61 67.3354 316.257 67.3354 313.793C67.3354 311.329 66.3454 309.954 64.5854 309.954C62.8254 309.954 61.8464 311.329 61.8464 313.793ZM62.9904 313.793C62.9904 311.934 63.5624 310.955 64.5854 310.955C65.6304 310.955 66.1914 311.934 66.1914 313.793C66.1914 315.641 65.6304 316.609 64.5854 316.609C63.5404 316.609 62.9904 315.63 62.9904 313.793ZM69.9019 317.5V314.739L72.5309 317.5H73.9609L71.0129 314.497L73.7079 311.67H72.3989L69.9019 314.277V309.602H68.7909V317.5H69.9019Z" fill="#787F84"/>
<path opacity="0.68" d="M50.641 369.979V369.099C52.181 369 53.061 368.054 53.061 366.844C53.061 365.678 52.269 365.139 51.07 364.886L50.08 364.677C49.431 364.534 48.848 364.281 48.848 363.577C48.848 362.895 49.387 362.378 50.289 362.378C51.18 362.378 51.796 362.983 51.851 363.83H52.973C52.885 362.499 51.928 361.619 50.641 361.476V360.563H49.871V361.476C48.595 361.63 47.715 362.51 47.715 363.654C47.715 364.985 48.672 365.447 49.673 365.656L50.663 365.876C51.455 366.052 51.873 366.36 51.873 366.987C51.873 367.746 51.169 368.186 50.278 368.186C49.2 368.186 48.639 367.603 48.584 366.69H47.462C47.539 368.01 48.408 368.934 49.871 369.088V369.979H50.641ZM54.2847 365.293C54.2847 367.757 55.2417 369.11 57.0237 369.11C58.8057 369.11 59.7737 367.757 59.7737 365.293C59.7737 362.829 58.7837 361.454 57.0237 361.454C55.2637 361.454 54.2847 362.829 54.2847 365.293ZM55.4287 365.293C55.4287 363.434 56.0007 362.455 57.0237 362.455C58.0687 362.455 58.6297 363.434 58.6297 365.293C58.6297 367.141 58.0687 368.109 57.0237 368.109C55.9787 368.109 55.4287 367.13 55.4287 365.293Z" fill="#787F84"/>
<path d="M543.313 366.254H85V367.043H543.313V366.254Z" fill="#E7EBF0"/>
<path d="M543.313 314.189H85.0004V314.978H543.313V314.189Z" fill="#E7EBF0"/>
<path d="M543.314 262.127H85.0006V262.916H543.314V262.127Z" fill="#E7EBF0"/>
<path d="M543.314 210.062H85.0015V210.851H543.314V210.062Z" fill="#E7EBF0"/>
<path d="M543.314 158H85.0015V158.789H543.314V158Z" fill="#E7EBF0"/>
<g clip-path="url(#clip1_270_6621)">
<path d="M498.35 345.743C498.35 343.565 501.149 341.799 504.6 341.799H522.1C525.552 341.799 528.35 343.565 528.35 345.743V365.937H498.35V345.743Z" fill="#03122E"/>
</g>
<g clip-path="url(#clip2_270_6621)">
<path d="M368.982 231.362C368.982 229.183 371.78 227.418 375.232 227.418H392.732C396.184 227.418 398.982 229.183 398.982 231.362V366.253H368.982V231.362Z" fill="#0182FF"/>
</g>
<g clip-path="url(#clip3_270_6621)">
<path d="M239.612 183.244C239.612 181.066 242.41 179.3 245.862 179.3H263.362C266.814 179.3 269.612 181.066 269.612 183.244V366.254H239.612V183.244Z" fill="#33C15D"/>
</g>
<g clip-path="url(#clip4_270_6621)">
<path d="M110.244 169.045C110.244 166.867 113.043 165.101 116.494 165.101H133.994C137.446 165.101 140.244 166.867 140.244 169.045V366.254H110.244V169.045Z" fill="#F9A001"/>
</g>
<g filter="url(#filter0_d_270_6621)">
<rect x="291" y="21" width="354" height="66" rx="12" fill="white" shape-rendering="crispEdges"/>
<path d="M323 70C331.837 70 339 62.8366 339 54C339 45.1634 331.837 38 323 38C314.163 38 307 45.1634 307 54C307 62.8366 314.163 70 323 70Z" fill="#EBF0FF"/>
<path fill-rule="evenodd" clip-rule="evenodd" d="M329.5 57H330C330.6 57 331 57.4 331 58C331 58.6 330.6 59 330 59H316C315.4 59 315 58.6 315 58C315 57.4 315.4 57 316 57H316.5C317.2 56.3 318 55.3 318 54V51C318 48.2 320.2 46 323 46C325.8 46 328 48.2 328 51V54C328 55.3 328.8 56.3 329.5 57ZM323 62C321.9 62 321 61.1 321 60H325C325 61.1 324.1 62 323 62Z" fill="#0047FF"/>
<path d="M358.812 48H360.366V37.948H358.938V45.592L353.772 37.948H352.092V48H353.52V40.146L358.812 48ZM365.477 48.14C367.227 48.14 368.501 47.146 368.865 45.494H367.465C367.227 46.46 366.499 47.034 365.449 47.034C364.203 47.034 363.447 46.152 363.335 44.64H368.865C369.117 42.232 367.647 40.44 365.435 40.44C363.391 40.44 361.893 42.05 361.893 44.248C361.893 46.586 363.335 48.14 365.477 48.14ZM365.407 41.504C366.555 41.504 367.297 42.33 367.367 43.702H363.349C363.503 42.316 364.273 41.504 365.407 41.504ZM376.337 48H377.751L379.907 40.58H378.507L377.009 45.998L375.357 40.58H373.957L372.277 45.984L370.779 40.58H369.393L371.535 48H372.963L374.657 42.484L376.337 48ZM388.48 48.21C391 48.21 393.016 46.53 393.394 44.038H391.756C391.476 45.662 390.16 46.824 388.494 46.824C386.506 46.824 385.106 45.214 385.106 42.96C385.106 40.734 386.506 39.124 388.494 39.124C390.16 39.124 391.476 40.272 391.756 41.896H393.394C393.016 39.418 391 37.738 388.48 37.738C385.68 37.738 383.51 40.006 383.51 42.96C383.51 45.928 385.68 48.21 388.48 48.21ZM397.99 48.14C400.09 48.14 401.63 46.488 401.63 44.29C401.63 42.092 400.09 40.44 397.99 40.44C395.89 40.44 394.35 42.092 394.35 44.29C394.35 46.488 395.89 48.14 397.99 48.14ZM397.99 46.894C396.772 46.894 395.82 45.914 395.82 44.29C395.82 42.666 396.772 41.7 397.99 41.7C399.208 41.7 400.174 42.666 400.174 44.29C400.174 45.914 399.208 46.894 397.99 46.894ZM404.794 38.858C404.794 38.312 404.374 37.92 403.772 37.92C403.17 37.92 402.736 38.312 402.736 38.858C402.736 39.39 403.17 39.796 403.772 39.796C404.374 39.796 404.794 39.39 404.794 38.858ZM404.486 48V40.58H403.072V48H404.486ZM407.863 43.814C407.863 42.498 408.675 41.686 409.641 41.686C410.691 41.686 411.251 42.4 411.251 43.674V48H412.665V43.198C412.665 41.42 411.657 40.44 410.131 40.44C409.109 40.44 408.269 40.986 407.765 41.812V40.58H406.449V48H407.863V43.814ZM421.627 44.29C421.627 42.036 420.325 40.44 418.337 40.44C417.329 40.44 416.475 40.944 415.957 41.854V37.948H414.543V48H415.859V46.67C416.391 47.608 417.287 48.14 418.337 48.14C420.339 48.14 421.627 46.516 421.627 44.29ZM420.157 44.29C420.157 45.942 419.275 46.88 418.057 46.88C416.853 46.88 415.957 45.9 415.957 44.262C415.957 42.596 416.881 41.686 418.057 41.686C419.275 41.686 420.157 42.61 420.157 44.29ZM427.554 48H428.73V43.24C428.73 41.476 427.666 40.44 425.832 40.44C424.096 40.44 422.906 41.546 422.836 43.212H424.124C424.166 42.176 424.796 41.56 425.832 41.56C426.812 41.56 427.386 42.162 427.386 43.226V43.772C426.784 43.702 426.434 43.688 426 43.688C423.788 43.688 422.626 44.444 422.626 45.9C422.626 47.258 423.634 48.14 425.174 48.14C426.266 48.14 427.092 47.678 427.554 46.852V48ZM423.97 45.858C423.97 44.99 424.67 44.57 426.084 44.57C426.448 44.57 426.84 44.584 427.386 44.654V45.256C427.386 46.39 426.644 47.132 425.454 47.132C424.544 47.132 423.97 46.628 423.97 45.858ZM436.501 45.788C436.501 44.724 435.801 44.08 434.331 43.814L433.071 43.576C432.175 43.408 431.797 43.128 431.797 42.526C431.797 41.882 432.399 41.504 433.295 41.504C434.289 41.504 434.947 42.022 435.031 42.918H436.389C436.263 41.392 435.059 40.44 433.281 40.44C431.559 40.44 430.425 41.35 430.425 42.652C430.425 43.772 431.195 44.472 432.567 44.738L433.771 44.962C434.695 45.144 435.073 45.41 435.073 46.026C435.073 46.726 434.415 47.076 433.421 47.076C432.287 47.076 431.545 46.502 431.489 45.578H430.131C430.271 47.174 431.433 48.14 433.393 48.14C435.367 48.14 436.501 47.244 436.501 45.788ZM441.096 48.14C442.846 48.14 444.12 47.146 444.484 45.494H443.084C442.846 46.46 442.118 47.034 441.068 47.034C439.822 47.034 439.066 46.152 438.954 44.64H444.484C444.736 42.232 443.266 40.44 441.054 40.44C439.01 40.44 437.512 42.05 437.512 44.248C437.512 46.586 438.954 48.14 441.096 48.14ZM441.026 41.504C442.174 41.504 442.916 42.33 442.986 43.702H438.968C439.122 42.316 439.892 41.504 441.026 41.504ZM453.1 46.628C452.806 46.768 452.512 46.824 452.176 46.824C451.42 46.824 450.93 46.46 450.93 45.438V41.784H453.17V40.58H450.93V38.382H449.516V40.58H447.878V41.784H449.516V45.76C449.516 47.398 450.468 48.14 451.84 48.14C452.288 48.14 452.666 48.07 453.1 47.874V46.628ZM455.933 44.206C455.933 42.568 457.095 41.868 458.691 41.952V40.482C457.473 40.482 456.353 41.126 455.835 42.148V40.58H454.519V48H455.933V44.206ZM464.304 48H465.48V43.24C465.48 41.476 464.416 40.44 462.582 40.44C460.846 40.44 459.656 41.546 459.586 43.212H460.874C460.916 42.176 461.546 41.56 462.582 41.56C463.562 41.56 464.136 42.162 464.136 43.226V43.772C463.534 43.702 463.184 43.688 462.75 43.688C460.538 43.688 459.376 44.444 459.376 45.9C459.376 47.258 460.384 48.14 461.924 48.14C463.016 48.14 463.842 47.678 464.304 46.852V48ZM460.72 45.858C460.72 44.99 461.42 44.57 462.834 44.57C463.198 44.57 463.59 44.584 464.136 44.654V45.256C464.136 46.39 463.394 47.132 462.204 47.132C461.294 47.132 460.72 46.628 460.72 45.858ZM468.785 43.814C468.785 42.498 469.597 41.686 470.563 41.686C471.613 41.686 472.173 42.4 472.173 43.674V48H473.587V43.198C473.587 41.42 472.579 40.44 471.053 40.44C470.031 40.44 469.191 40.986 468.687 41.812V40.58H467.371V48H468.785V43.814ZM481.344 45.788C481.344 44.724 480.644 44.08 479.174 43.814L477.914 43.576C477.018 43.408 476.64 43.128 476.64 42.526C476.64 41.882 477.242 41.504 478.138 41.504C479.132 41.504 479.79 42.022 479.874 42.918H481.232C481.106 41.392 479.902 40.44 478.124 40.44C476.402 40.44 475.268 41.35 475.268 42.652C475.268 43.772 476.038 44.472 477.41 44.738L478.614 44.962C479.538 45.144 479.916 45.41 479.916 46.026C479.916 46.726 479.258 47.076 478.264 47.076C477.13 47.076 476.388 46.502 476.332 45.578H474.974C475.114 47.174 476.276 48.14 478.236 48.14C480.21 48.14 481.344 47.244 481.344 45.788ZM487.382 48H488.558V43.24C488.558 41.476 487.494 40.44 485.66 40.44C483.924 40.44 482.734 41.546 482.664 43.212H483.952C483.994 42.176 484.624 41.56 485.66 41.56C486.64 41.56 487.214 42.162 487.214 43.226V43.772C486.612 43.702 486.262 43.688 485.828 43.688C483.616 43.688 482.454 44.444 482.454 45.9C482.454 47.258 483.462 48.14 485.002 48.14C486.094 48.14 486.92 47.678 487.382 46.852V48ZM483.798 45.858C483.798 44.99 484.498 44.57 485.912 44.57C486.276 44.57 486.668 44.584 487.214 44.654V45.256C487.214 46.39 486.472 47.132 485.282 47.132C484.372 47.132 483.798 46.628 483.798 45.858ZM493.375 48.154C495.237 48.154 496.553 46.95 496.805 44.99H495.335C495.167 46.194 494.439 46.894 493.389 46.894C492.171 46.894 491.373 45.872 491.373 44.29C491.373 42.722 492.171 41.686 493.389 41.686C494.425 41.686 495.167 42.4 495.321 43.59H496.805C496.539 41.658 495.209 40.44 493.375 40.44C491.373 40.44 489.917 42.05 489.917 44.29C489.917 46.558 491.345 48.154 493.375 48.154ZM502.414 46.628C502.12 46.768 501.826 46.824 501.49 46.824C500.734 46.824 500.244 46.46 500.244 45.438V41.784H502.484V40.58H500.244V38.382H498.83V40.58H497.192V41.784H498.83V45.76C498.83 47.398 499.782 48.14 501.154 48.14C501.602 48.14 501.98 48.07 502.414 47.874V46.628ZM505.556 38.858C505.556 38.312 505.136 37.92 504.534 37.92C503.932 37.92 503.498 38.312 503.498 38.858C503.498 39.39 503.932 39.796 504.534 39.796C505.136 39.796 505.556 39.39 505.556 38.858ZM505.248 48V40.58H503.834V48H505.248ZM510.318 48.14C512.418 48.14 513.958 46.488 513.958 44.29C513.958 42.092 512.418 40.44 510.318 40.44C508.218 40.44 506.678 42.092 506.678 44.29C506.678 46.488 508.218 48.14 510.318 48.14ZM510.318 46.894C509.1 46.894 508.148 45.914 508.148 44.29C508.148 42.666 509.1 41.7 510.318 41.7C511.536 41.7 512.502 42.666 512.502 44.29C512.502 45.914 511.536 46.894 510.318 46.894ZM516.814 43.814C516.814 42.498 517.626 41.686 518.592 41.686C519.642 41.686 520.202 42.4 520.202 43.674V48H521.616V43.198C521.616 41.42 520.608 40.44 519.082 40.44C518.06 40.44 517.22 40.986 516.716 41.812V40.58H515.4V48H516.814V43.814Z" fill="#787F84"/>
<path d="M355.016 70V59.184H351.288V60.592H353.384V70H355.016ZM359.593 68.848C359.593 68.096 359.097 67.584 358.361 67.584C357.641 67.584 357.129 68.096 357.129 68.848C357.129 69.568 357.641 70.08 358.361 70.08C359.097 70.08 359.593 69.568 359.593 68.848ZM364.825 70.144C367.129 70.144 368.697 68.832 368.697 66.912C368.697 65.664 367.881 64.736 366.457 64.352C367.577 63.824 368.201 62.976 368.201 61.92C368.201 60.224 366.857 59.024 364.777 59.024C362.809 59.024 361.305 60.352 361.257 62.128H362.825C362.873 61.024 363.609 60.32 364.713 60.32C365.801 60.32 366.521 61.008 366.521 62.032C366.521 63.088 365.721 63.792 364.505 63.792H363.465V65.088H364.585C366.073 65.088 367.017 65.808 367.017 66.944C367.017 68.112 366.185 68.848 364.825 68.848C363.513 68.848 362.649 68.096 362.585 66.928H361.001C361.017 68.832 362.585 70.144 364.825 70.144ZM376.756 60.128V59.184H369.46V60.64H374.948L370.836 70H372.58L376.756 60.128ZM389.86 66.704C389.86 65.392 389.092 64.416 387.668 64.016C388.772 63.536 389.428 62.608 389.428 61.52C389.428 59.584 388.036 58.512 385.716 58.512H381.732V70H385.94C388.324 70 389.86 68.8 389.86 66.704ZM385.604 59.92C386.996 59.92 387.748 60.576 387.748 61.648C387.748 62.72 386.996 63.376 385.604 63.376H383.348V59.92H385.604ZM385.828 64.784C387.332 64.784 388.18 65.488 388.18 66.656C388.18 67.872 387.332 68.592 385.828 68.592H383.348V64.784H385.828ZM395.949 70V60.096H399.693V58.512H390.445V60.096H394.189V70H395.949ZM405.615 70.24C408.495 70.24 410.799 68.32 411.231 65.472H409.359C409.039 67.328 407.535 68.656 405.631 68.656C403.359 68.656 401.759 66.816 401.759 64.24C401.759 61.696 403.359 59.856 405.631 59.856C407.535 59.856 409.039 61.168 409.359 63.024H411.231C410.799 60.192 408.495 58.272 405.615 58.272C402.415 58.272 399.935 60.864 399.935 64.24C399.935 67.632 402.415 70.24 405.615 70.24ZM424.372 65.76C424.372 63.2 422.884 61.36 420.628 61.36C419.428 61.36 418.388 61.984 417.78 63.072V61.52H416.276V73.088H417.892V68.56C418.5 69.584 419.476 70.16 420.628 70.16C422.9 70.16 424.372 68.32 424.372 65.76ZM422.692 65.76C422.692 67.664 421.684 68.72 420.292 68.72C418.932 68.72 417.892 67.632 417.892 65.76C417.892 63.856 418.948 62.784 420.292 62.784C421.684 62.784 422.692 63.856 422.692 65.76ZM431.307 66.512C431.307 67.84 430.427 68.736 429.339 68.736C428.283 68.736 427.547 68.128 427.547 66.656V61.52H425.931V66.976C425.931 69.152 427.115 70.16 428.827 70.16C429.979 70.16 430.971 69.536 431.419 68.656V70H432.923V61.52H431.307V66.512ZM436.783 65.664C436.783 63.792 438.111 62.992 439.935 63.088V61.408C438.543 61.408 437.263 62.144 436.671 63.312V61.52H435.167V70H436.783V65.664ZM444.527 70.176C446.655 70.176 448.159 68.8 448.447 66.56H446.767C446.575 67.936 445.743 68.736 444.543 68.736C443.151 68.736 442.239 67.568 442.239 65.76C442.239 63.968 443.151 62.784 444.543 62.784C445.727 62.784 446.575 63.6 446.751 64.96H448.447C448.142 62.752 446.623 61.36 444.527 61.36C442.239 61.36 440.575 63.2 440.575 65.76C440.575 68.352 442.207 70.176 444.527 70.176ZM451.689 65.216C451.689 63.712 452.617 62.784 453.721 62.784C454.921 62.784 455.561 63.6 455.561 65.056V70H457.177V64.512C457.177 62.48 456.025 61.36 454.281 61.36C453.113 61.36 452.249 61.968 451.689 62.88V58.512H450.073V70H451.689V65.216ZM464.459 70H465.803V64.56C465.803 62.544 464.587 61.36 462.491 61.36C460.507 61.36 459.147 62.624 459.067 64.528H460.539C460.587 63.344 461.307 62.64 462.491 62.64C463.611 62.64 464.267 63.328 464.267 64.544V65.168C463.579 65.088 463.179 65.072 462.683 65.072C460.155 65.072 458.827 65.936 458.827 67.6C458.827 69.152 459.979 70.16 461.739 70.16C462.987 70.16 463.931 69.632 464.459 68.688V70ZM460.363 67.552C460.363 66.56 461.163 66.08 462.779 66.08C463.195 66.08 463.643 66.096 464.267 66.176V66.864C464.267 68.16 463.419 69.008 462.059 69.008C461.019 69.008 460.363 68.432 460.363 67.552ZM474.684 67.472C474.684 66.256 473.884 65.52 472.204 65.216L470.764 64.944C469.74 64.752 469.308 64.432 469.308 63.744C469.308 63.008 469.996 62.576 471.02 62.576C472.156 62.576 472.908 63.168 473.004 64.192H474.556C474.412 62.448 473.036 61.36 471.004 61.36C469.036 61.36 467.74 62.4 467.74 63.888C467.74 65.168 468.62 65.968 470.188 66.272L471.564 66.528C472.62 66.736 473.052 67.04 473.052 67.744C473.052 68.544 472.3 68.944 471.164 68.944C469.868 68.944 469.02 68.288 468.956 67.232H467.404C467.564 69.056 468.892 70.16 471.132 70.16C473.388 70.16 474.684 69.136 474.684 67.472ZM479.936 70.16C481.936 70.16 483.392 69.024 483.808 67.136H482.208C481.936 68.24 481.104 68.896 479.904 68.896C478.48 68.896 477.616 67.888 477.488 66.16H483.808C484.096 63.408 482.416 61.36 479.888 61.36C477.552 61.36 475.84 63.2 475.84 65.712C475.84 68.384 477.488 70.16 479.936 70.16ZM479.856 62.576C481.168 62.576 482.016 63.52 482.096 65.088H477.504C477.68 63.504 478.56 62.576 479.856 62.576ZM484.762 65.76C484.762 68.304 486.234 70.16 488.522 70.16C489.722 70.16 490.746 69.552 491.354 68.48V70H492.858V58.512H491.242V62.976C490.65 61.936 489.658 61.36 488.522 61.36C486.234 61.36 484.762 63.184 484.762 65.76ZM486.442 65.76C486.442 63.84 487.434 62.784 488.842 62.784C490.186 62.784 491.242 63.824 491.242 65.728C491.242 67.6 490.218 68.72 488.842 68.72C487.434 68.72 486.442 67.648 486.442 65.76ZM500.832 70V62.896H503.2V61.52H500.832V60.912C500.832 60.096 501.28 59.744 502.048 59.744C502.336 59.744 502.624 59.776 502.88 59.888V58.576C502.56 58.448 502.176 58.368 501.696 58.368C500.096 58.368 499.216 59.264 499.216 60.896V61.52H497.344V62.896H499.216V70H500.832ZM507.75 70.16C510.15 70.16 511.91 68.272 511.91 65.76C511.91 63.248 510.15 61.36 507.75 61.36C505.35 61.36 503.59 63.248 503.59 65.76C503.59 68.272 505.35 70.16 507.75 70.16ZM507.75 68.736C506.358 68.736 505.27 67.616 505.27 65.76C505.27 63.904 506.358 62.8 507.75 62.8C509.142 62.8 510.246 63.904 510.246 65.76C510.246 67.616 509.142 68.736 507.75 68.736ZM515.174 65.664C515.174 63.792 516.502 62.992 518.326 63.088V61.408C516.934 61.408 515.654 62.144 515.062 63.312V61.52H513.558V70H515.174V65.664ZM527.124 71.424V70.144C529.364 70 530.644 68.624 530.644 66.864C530.644 65.168 529.492 64.384 527.748 64.016L526.308 63.712C525.364 63.504 524.516 63.136 524.516 62.112C524.516 61.12 525.3 60.368 526.612 60.368C527.908 60.368 528.804 61.248 528.884 62.48H530.516C530.388 60.544 528.996 59.264 527.124 59.056V57.728H526.004V59.056C524.148 59.28 522.868 60.56 522.868 62.224C522.868 64.16 524.26 64.832 525.716 65.136L527.156 65.456C528.308 65.712 528.916 66.16 528.916 67.072C528.916 68.176 527.892 68.816 526.596 68.816C525.028 68.816 524.212 67.968 524.132 66.64H522.5C522.612 68.56 523.876 69.904 526.004 70.128V71.424H527.124ZM535.838 70.16C538.35 70.16 539.742 68.48 539.742 66.544C539.742 64.704 538.446 63.04 536.062 63.04C535.326 63.04 534.638 63.264 534.03 63.744L534.51 60.624H539.118V59.184H533.342L532.382 65.216L533.694 65.632C534.142 64.848 534.862 64.448 535.822 64.448C537.262 64.448 538.062 65.424 538.062 66.544C538.062 67.776 537.326 68.704 535.838 68.704C534.638 68.704 533.758 68.016 533.646 66.864H532.03C532.11 68.784 533.726 70.16 535.838 70.16ZM549.031 67.616V66.208H547.559V59.184H546.311L540.743 66.48V67.616H545.943V70H547.559V67.616H549.031ZM542.551 66.208L545.943 61.632V66.208H542.551ZM553 69.312C553 68.24 552.52 67.6 551.64 67.6C550.984 67.6 550.472 68.048 550.472 68.736C550.472 69.328 550.92 69.824 551.528 69.824C551.64 69.824 551.736 69.808 551.88 69.76C551.784 70.544 551.08 71.104 550.04 71.136V72.048C551.799 72.016 553 70.832 553 69.312ZM558.232 70.144C560.536 70.144 562.104 68.832 562.104 66.912C562.104 65.664 561.288 64.736 559.864 64.352C560.984 63.824 561.608 62.976 561.608 61.92C561.608 60.224 560.264 59.024 558.184 59.024C556.216 59.024 554.712 60.352 554.664 62.128H556.232C556.28 61.024 557.016 60.32 558.12 60.32C559.208 60.32 559.928 61.008 559.928 62.032C559.928 63.088 559.128 63.792 557.911 63.792H556.872V65.088H557.992C559.48 65.088 560.424 65.808 560.424 66.944C560.424 68.112 559.592 68.848 558.232 68.848C556.92 68.848 556.056 68.096 555.992 66.928H554.408C554.424 68.832 555.992 70.144 558.232 70.144ZM571.501 66.96C571.501 65.648 570.621 64.784 569.485 64.368C570.381 63.968 571.085 63.12 571.085 62.016C571.085 60.256 569.597 59.024 567.549 59.024C565.469 59.024 563.997 60.256 563.997 62.016C563.997 63.12 564.685 63.968 565.597 64.368C564.461 64.784 563.565 65.648 563.565 66.96C563.565 68.848 565.181 70.144 567.549 70.144C569.901 70.144 571.501 68.848 571.501 66.96ZM565.661 62.064C565.661 60.992 566.429 60.32 567.549 60.32C568.653 60.32 569.421 60.992 569.421 62.064C569.421 63.12 568.653 63.76 567.549 63.76C566.429 63.76 565.661 63.12 565.661 62.064ZM565.261 66.928C565.261 65.76 566.189 65.056 567.549 65.056C568.893 65.056 569.837 65.76 569.837 66.928C569.837 68.128 568.893 68.848 567.549 68.848C566.189 68.848 565.261 68.128 565.261 66.928ZM573.065 64.608C573.065 68.192 574.457 70.16 577.049 70.16C579.641 70.16 581.049 68.192 581.049 64.608C581.049 61.024 579.609 59.024 577.049 59.024C574.489 59.024 573.065 61.024 573.065 64.608ZM574.729 64.608C574.729 61.904 575.561 60.48 577.049 60.48C578.569 60.48 579.385 61.904 579.385 64.608C579.385 67.296 578.569 68.704 577.049 68.704C575.529 68.704 574.729 67.28 574.729 64.608Z" fill="#1D1D1F"/>
<g clip-path="url(#clip5_270_6621)">
<path d="M617 52.586L621.95 47.636L623.364 49.05L618.414 54L623.364 58.95L621.95 60.364L617 55.414L612.05 60.364L610.636 58.95L615.586 54L610.636 49.05L612.05 47.636L617 52.586Z" fill="#A2B1C5"/>
</g>
<rect x="290.5" y="20.5" width="355" height="67" rx="12.5" stroke="#EBF0FF" shape-rendering="crispEdges"/>
</g>
<defs>
<filter id="filter0_d_270_6621" x="260" y="0" width="456" height="168" filterUnits="userSpaceOnUse" color-interpolation-filters="sRGB">
<feFlood flood-opacity="0" result="BackgroundImageFix"/>
<feColorMatrix in="SourceAlpha" type="matrix" values="0 0 0 0 0 0 0 0 0 0 0 0 0 0 0 0 0 0 127 0" result="hardAlpha"/>
<feOffset dx="20" dy="30"/>
<feGaussianBlur stdDeviation="25"/>
<feComposite in2="hardAlpha" operator="out"/>
<feColorMatrix type="matrix" values="0 0 0 0 0 0 0 0 0 0 0 0 0 0 0 0 0 0 0.04 0"/>
<feBlend mode="normal" in2="BackgroundImageFix" result="effect1_dropShadow_270_6621"/>
<feBlend mode="normal" in="SourceGraphic" in2="effect1_dropShadow_270_6621" result="shape"/>
</filter>
<clipPath id="clip0_270_6621">
<rect width="20" height="20" fill="white" transform="translate(177 89.5)"/>
</clipPath>
<clipPath id="clip1_270_6621">
<path d="M498.35 354.599C498.35 350.119 498.35 347.878 499.222 346.167C499.989 344.662 501.213 343.438 502.718 342.671C504.429 341.799 506.67 341.799 511.15 341.799H515.55C520.031 341.799 522.271 341.799 523.982 342.671C525.487 343.438 526.711 344.662 527.478 346.167C528.35 347.878 528.35 350.119 528.35 354.599V365.937H498.35V354.599Z" fill="white"/>
</clipPath>
<clipPath id="clip2_270_6621">
<path d="M368.982 240.218C368.982 235.738 368.982 233.497 369.854 231.786C370.621 230.281 371.845 229.057 373.35 228.29C375.061 227.418 377.302 227.418 381.782 227.418H386.182C390.662 227.418 392.903 227.418 394.614 228.29C396.119 229.057 397.343 230.281 398.11 231.786C398.982 233.497 398.982 235.738 398.982 240.218V366.253H368.982V240.218Z" fill="white"/>
</clipPath>
<clipPath id="clip3_270_6621">
<path d="M239.612 192.1C239.612 187.62 239.612 185.379 240.484 183.668C241.251 182.163 242.475 180.939 243.98 180.172C245.691 179.3 247.932 179.3 252.412 179.3H256.812C261.292 179.3 263.533 179.3 265.244 180.172C266.749 180.939 267.973 182.163 268.74 183.668C269.612 185.379 269.612 187.62 269.612 192.1V366.254H239.612V192.1Z" fill="white"/>
</clipPath>
<clipPath id="clip4_270_6621">
<path d="M110.244 177.901C110.244 173.421 110.244 171.18 111.116 169.469C111.883 167.964 113.107 166.74 114.612 165.973C116.324 165.101 118.564 165.101 123.044 165.101H127.444C131.925 165.101 134.165 165.101 135.876 165.973C137.381 166.74 138.605 167.964 139.372 169.469C140.244 171.18 140.244 173.421 140.244 177.901V366.254H110.244V177.901Z" fill="white"/>
</clipPath>
<clipPath id="clip5_270_6621">
<rect width="24" height="24" fill="white" transform="translate(605 42)"/>
</clipPath>
</defs>
</svg>
