<svg width="176" height="33" viewBox="0 0 176 33" fill="none" xmlns="http://www.w3.org/2000/svg">
<path d="M101.786 6.52462V7.60532H101.737C101.197 6.72111 100.263 6.32812 99.2316 6.32812C97.0211 6.32812 95.6456 7.99829 95.6456 10.1106C95.6456 12.1738 97.0702 13.844 99.2316 13.844C100.116 13.844 101.049 13.5001 101.589 12.8124H101.639V13.3527C101.639 14.7773 101.098 15.7597 99.3298 15.7597C98.2983 15.7597 97.5614 15.3668 96.8246 14.7282L95.7439 16.2018C96.7755 17.0861 98.0035 17.3808 99.3298 17.3808C102.13 17.3808 103.407 15.7106 103.407 13.1071V6.52462H101.786ZM99.6246 12.2229C98.3965 12.2229 97.5123 11.2896 97.5123 10.1106C97.5123 8.83338 98.3965 7.94917 99.6737 7.94917C101 7.94917 101.835 8.83338 101.835 10.0615C101.786 11.2896 100.951 12.2229 99.6246 12.2229Z" fill="#515862"/>
<path d="M47.2597 6.32812C45.0491 6.32812 43.3298 7.85092 43.3298 10.1106C43.3298 12.3703 45.0983 13.8931 47.2597 13.8931C49.4702 13.8931 51.1895 12.3703 51.1895 10.1106C51.1895 7.85092 49.4702 6.32812 47.2597 6.32812ZM47.2597 12.3211C45.9333 12.3211 45.1474 11.2896 45.1474 10.1597C45.1474 9.02987 45.9333 7.9983 47.2597 7.9983C48.586 7.9983 49.3719 9.02987 49.3719 10.1597C49.3719 11.2896 48.586 12.3211 47.2597 12.3211Z" fill="#515862"/>
<path d="M36.7474 8.14559C37.8281 7.80173 38.614 6.96664 38.614 5.78769C38.614 3.82278 36.9439 3.08594 35.3228 3.08594H31.1474V13.7456H34.9789C36.993 13.7456 39.007 13.0087 39.007 10.7C39.0561 9.37366 38.1228 8.29296 36.7474 8.14559ZM33.0632 4.70699H34.6351C36.0596 4.70699 36.6982 5.1491 36.6982 6.08243C36.6982 6.86839 36.0596 7.40875 34.7825 7.40875H33.0632V4.70699ZM34.8316 12.1245H33.0632V9.0298H34.9298C36.4526 9.0298 37.1895 9.42278 37.1895 10.5526C37.1895 11.9772 35.814 12.1245 34.8316 12.1245Z" fill="#515862"/>
<path d="M42.1018 2.84033H40.2842V13.7456H42.1018V2.84033Z" fill="#515862"/>
<path d="M62.7825 9.81585C62.7825 8.83339 63.2737 7.9983 64.4526 7.9983C65.3368 7.9983 65.6807 8.58776 65.6807 9.47198V13.7948H67.4983V9.86497C67.4983 8.93163 67.9404 7.9983 69.0702 7.9983C70.1509 7.9983 70.3965 8.78427 70.3965 9.66848V13.7457H72.214V9.42286C72.214 7.70356 71.5263 6.32812 69.6105 6.32812C68.5298 6.32812 67.7439 6.77023 67.2526 7.65444C66.8597 6.77023 66.1228 6.32812 64.993 6.32812C63.7649 6.32812 63.0772 6.96672 62.7825 7.65444H62.7333V6.52462H61.014V13.7457H62.8316V9.81585H62.7825Z" fill="#515862"/>
<path d="M89.6526 10.3068C89.6526 7.80151 88.2772 6.37695 86.2632 6.37695C84.0526 6.37695 82.3333 7.89976 82.3333 10.1594C82.3333 12.4191 84.1018 13.9419 86.2632 13.9419C87.393 13.9419 88.4737 13.5489 89.3088 12.5173L88.0316 11.5349C87.5895 12.0752 87 12.5173 86.0667 12.5173C85.0351 12.5173 84.2491 11.8788 84.1018 10.7981H89.6035V10.3068H89.6526ZM84.1018 9.42256C84.2491 8.39098 84.8877 7.70326 85.9684 7.70326C87.0983 7.70326 87.786 8.34186 87.786 9.42256H84.1018Z" fill="#515862"/>
<path d="M78.0105 6.32786C76.6351 6.32786 75.9474 6.96646 75.5544 7.40856H75.5053V2.79102H73.6877V13.6963H75.407V12.6156H75.4561C75.9965 13.4998 76.9298 13.8928 77.9614 13.8928C80.1719 13.8928 81.5474 12.2226 81.5474 10.1103C81.4982 7.99804 80.0737 6.32786 78.0105 6.32786ZM77.5684 12.3208C76.2421 12.3208 75.4561 11.2892 75.4561 10.1594C75.4561 9.02962 76.2421 7.99804 77.5684 7.99804C78.8947 7.99804 79.6807 9.02962 79.6807 10.1594C79.6807 11.2892 78.8947 12.3208 77.5684 12.3208Z" fill="#515862"/>
<path d="M55.9544 6.32812C53.7439 6.32812 52.0246 7.85092 52.0246 10.1106C52.0246 12.3703 53.793 13.8931 55.9544 13.8931C58.1158 13.8931 59.8842 12.3703 59.8842 10.1106C59.8842 7.85092 58.1649 6.32812 55.9544 6.32812ZM55.9544 12.3211C54.6281 12.3211 53.8421 11.2896 53.8421 10.1597C53.8421 9.02987 54.6281 7.9983 55.9544 7.9983C57.2807 7.9983 58.0667 9.02987 58.0667 10.1597C58.0667 11.2896 57.2807 12.3211 55.9544 12.3211Z" fill="#515862"/>
<path d="M92.6 9.91379C92.6 9.52081 92.8456 8.09625 94.5649 8.09625C94.8596 8.09625 95.1544 8.14537 95.4491 8.24361V6.47519C95.2526 6.42607 95.007 6.37695 94.8105 6.37695C93.8772 6.37695 93.0421 6.86818 92.6491 7.70326H92.6V6.57344H90.7824V13.7945H92.6V9.91379Z" fill="#515862"/>
<path d="M34.4877 26.9101V17.8224H31.1965V16.1523H39.7439V17.8224H36.4035V26.9101H34.4877Z" fill="#515862"/>
<path d="M43.7228 26.9101V25.9768H43.6737C43.3298 26.6154 42.4456 27.1066 41.4141 27.1066C40.2351 27.1066 38.6632 26.5662 38.6632 24.8469C38.6632 22.6855 41.4141 22.3417 43.6737 22.3417V22.1452C43.6737 21.261 42.8877 20.8189 42.0035 20.8189C41.2176 20.8189 40.4807 21.1627 39.9895 21.654L39.0562 20.5241C39.8912 19.7873 41.0211 19.3452 42.1509 19.3452C44.7544 19.3452 45.393 20.9662 45.393 22.4399V26.9101H43.7228ZM43.6737 23.5697H43.2807C42.1018 23.5697 40.4807 23.7171 40.4807 24.7978C40.4807 25.4855 41.1193 25.7311 41.7579 25.7311C42.986 25.7311 43.6737 24.9943 43.6737 23.8645V23.5697Z" fill="#515862"/>
<path d="M52.0246 26.9101L50.1088 24.2575L48.193 26.9101H46.0316L48.979 23.0294L46.3263 19.5908H48.5368L50.1088 21.8505L51.7298 19.5908H53.8421L51.2386 23.0294L54.2351 26.9101H52.0246Z" fill="#515862"/>
<path d="M65.1895 26.9102L64.1088 25.7804C63.4702 26.5172 62.586 27.1067 61.2106 27.1067C59.4913 27.1067 57.9684 26.1243 57.9684 24.2576C57.9684 22.833 59 21.9488 60.0807 21.5067C59.4421 20.8681 59.0491 20.1804 59.0491 19.2962C59.0491 17.626 60.4737 16.8892 61.8 16.8892C63.2246 16.8892 64.5018 17.6751 64.5018 19.2471C64.5018 20.4751 63.6176 21.3102 62.4877 21.8506L64.0597 23.5207L65.1895 21.7523H67.0562L65.0913 24.5523L67.3509 26.8611H65.1895V26.9102ZM61.0141 22.5874C60.2772 22.833 59.6877 23.2751 59.6877 24.2085C59.6877 25.1909 60.572 25.7313 61.3088 25.7313C62.0948 25.7313 62.6351 25.3874 63.1263 24.7488L61.0141 22.5874ZM62.9298 19.3453C62.9298 18.7558 62.4386 18.2646 61.8 18.2646C61.1614 18.2646 60.6702 18.7067 60.6702 19.3453C60.6702 19.8857 60.9649 20.426 61.5544 20.9172C62.2913 20.6225 62.9298 20.0821 62.9298 19.3453Z" fill="#515862"/>
<path d="M79.2386 26.9105L78.2561 24.4544H73.5895L72.607 26.9105H70.4456L75.1614 16.1035H76.8316L81.4982 26.9105H79.2386ZM75.8982 18.4123L74.2281 22.7842H77.5684L75.8982 18.4123Z" fill="#515862"/>
<path d="M88.179 26.1243C87.5895 26.7629 86.5579 27.1559 85.4772 27.1559C83.3158 27.1559 81.4983 25.7314 81.4983 23.2752C81.4983 20.9173 83.2667 19.3945 85.4281 19.3945C86.5088 19.3945 87.5895 19.8366 88.179 20.5243L86.9509 21.605C86.6562 21.2121 86.0176 20.8682 85.4281 20.8682C84.1018 20.8682 83.414 22.0963 83.414 23.2261C83.414 24.3559 84.1018 25.584 85.4772 25.584C86.0176 25.584 86.6562 25.3384 87 24.9454L88.179 26.1243Z" fill="#515862"/>
<path d="M95.1544 26.1243C94.5649 26.7629 93.5333 27.1559 92.4526 27.1559C90.2912 27.1559 88.4737 25.7314 88.4737 23.2752C88.4737 20.9173 90.2421 19.3945 92.4035 19.3945C93.4842 19.3945 94.5649 19.8366 95.1544 20.5243L93.9263 21.605C93.6316 21.2121 92.993 20.8682 92.4035 20.8682C91.0772 20.8682 90.3895 22.0963 90.3895 23.2261C90.3895 24.3559 91.0772 25.584 92.4526 25.584C92.993 25.584 93.6316 25.3384 93.9754 24.9454L95.1544 26.1243Z" fill="#515862"/>
<path d="M99.379 27.1561C97.1684 27.1561 95.4 25.5351 95.4 23.2754C95.4 20.9667 97.1684 19.4438 99.379 19.4438C101.589 19.4438 103.358 20.9667 103.358 23.2754C103.358 25.5351 101.589 27.1561 99.379 27.1561ZM101.491 23.2263C101.491 22.0965 100.804 20.8684 99.379 20.8684C97.9544 20.8684 97.2667 22.0474 97.2667 23.2263C97.2667 24.3561 97.9544 25.5842 99.379 25.5842C100.804 25.5842 101.491 24.4053 101.491 23.2263Z" fill="#515862"/>
<path d="M109.547 26.9101V25.7312H109.498C109.154 26.468 108.319 27.1066 107.239 27.1066C105.323 27.1066 104.537 25.633 104.537 24.1593V19.5908H106.354V23.6189C106.354 24.5031 106.551 25.5838 107.73 25.5838C108.909 25.5838 109.449 24.6014 109.449 23.6189V19.5908H111.267V26.9101H109.547Z" fill="#515862"/>
<path d="M117.8 26.9103V22.8822C117.8 21.998 117.604 20.9173 116.425 20.9173C115.246 20.9173 114.705 21.8998 114.705 22.8822V26.9103H112.888V19.591H114.607V20.77H114.656C115 20.0331 115.835 19.3945 116.916 19.3945C118.832 19.3945 119.618 20.8682 119.618 22.3419V26.9103H117.8Z" fill="#515862"/>
<path d="M125.119 26.861C124.775 26.9592 124.333 27.0575 123.891 27.0575C121.975 27.0575 121.533 25.8785 121.533 24.454V21.0645H120.256V19.5908H121.533V17.4785H123.351V19.5908H125.168V21.0645H123.351V24.454C123.351 25.0926 123.498 25.5838 124.333 25.5838C124.579 25.5838 124.874 25.5347 125.119 25.4364V26.861Z" fill="#515862"/>
<path d="M127.33 18.2156C126.642 18.2156 126.151 17.6752 126.151 17.1349C126.151 16.5454 126.642 16.0542 127.33 16.0542C128.018 16.0542 128.509 16.5454 128.509 17.1349C128.509 17.7735 128.018 18.2156 127.33 18.2156ZM126.446 26.9103V19.591H128.263V26.9103H126.446Z" fill="#515862"/>
<path d="M134.797 26.9103V22.8822C134.797 21.998 134.6 20.9173 133.421 20.9173C132.242 20.9173 131.702 21.8998 131.702 22.8822V26.9103H129.884V19.591H131.604V20.77H131.653C131.996 20.0331 132.832 19.3945 133.912 19.3945C135.828 19.3945 136.614 20.8682 136.614 22.3419V26.9103H134.797Z" fill="#515862"/>
<path d="M143.835 25.977C143.295 26.7138 142.411 27.0577 141.428 27.0577C139.218 27.0577 137.842 25.3384 137.842 23.2261C137.842 21.1138 139.218 19.3945 141.428 19.3945C142.46 19.3945 143.393 19.8366 143.933 20.7208H143.982V19.6401H145.702V26.2717C145.702 28.9243 144.425 30.5945 141.575 30.5945C140.397 30.5945 138.874 30.1524 137.94 29.4156L138.972 27.991C139.66 28.6787 140.593 29.0226 141.526 29.0226C143.295 29.0226 143.835 27.9419 143.835 26.5173V25.977ZM143.933 23.2261C143.933 21.9489 143.098 20.9173 141.772 20.9173C140.446 20.9173 139.66 21.9489 139.66 23.2261C139.66 24.405 140.446 25.5349 141.723 25.5349C143.098 25.5349 143.933 24.4542 143.933 23.2261Z" fill="#515862"/>
</svg>
