<svg width="81" height="81" viewBox="0 0 81 81" fill="none" xmlns="http://www.w3.org/2000/svg">
<g clip-path="url(#clip0_117_4692)">
<path d="M40.5 80.6436C62.5914 80.6436 80.5 62.735 80.5 40.6436C80.5 18.5522 62.5914 0.643555 40.5 0.643555C18.4086 0.643555 0.5 18.5522 0.5 40.6436C0.5 62.735 18.4086 80.6436 40.5 80.6436Z" fill="white"/>
<path fill-rule="evenodd" clip-rule="evenodd" d="M44.1388 24.1826C43.1894 24.3569 42.5 25.1845 42.5 26.1497V58.4426C42.5 59.6919 43.6325 60.6354 44.8612 60.4097L62.8612 57.1043C63.8106 56.93 64.5 56.1025 64.5 55.1372V22.8443C64.5 21.595 63.3675 20.6515 62.1388 20.8772L44.1388 24.1826ZM58.797 33.0238C59.609 32.8598 60.1343 32.0685 59.9703 31.2565C59.8063 30.4445 59.015 29.9192 58.203 30.0832L48.203 32.1032C47.391 32.2672 46.8657 33.0585 47.0297 33.8705C47.1937 34.6825 47.985 35.2078 48.797 35.0438L58.797 33.0238ZM58.797 41.1038C59.609 40.9397 60.1343 40.1485 59.9703 39.3365C59.8063 38.5244 59.015 37.9991 58.203 38.1632L48.203 40.1832C47.391 40.3472 46.8657 41.1384 47.0297 41.9505C47.1937 42.7625 47.985 43.2878 48.797 43.1238L58.797 41.1038ZM59.9703 47.4164C60.1343 48.2285 59.609 49.0197 58.797 49.1837L48.797 51.2037C47.985 51.3678 47.1937 50.8425 47.0297 50.0304C46.8657 49.2184 47.391 48.4272 48.203 48.2631L58.203 46.2431C59.015 46.0791 59.8063 46.6044 59.9703 47.4164Z" fill="#0958D6"/>
<path fill-rule="evenodd" clip-rule="evenodd" d="M18.8612 20.8772C17.6325 20.6515 16.5 21.595 16.5 22.8443V55.1372C16.5 56.1025 17.1894 56.93 18.1388 57.1043L36.1388 60.4098C37.3675 60.6354 38.5 59.6919 38.5 58.4426V26.1497C38.5 25.1845 37.8106 24.3569 36.8612 24.1826L18.8612 20.8772ZM22.797 30.0832C21.985 29.9192 21.1937 30.4445 21.0297 31.2565C20.8657 32.0685 21.391 32.8598 22.203 33.0238L32.203 35.0438C33.015 35.2078 33.8063 34.6825 33.9703 33.8705C34.1343 33.0585 33.609 32.2672 32.797 32.1032L22.797 30.0832ZM22.797 38.1632C21.985 37.9991 21.1937 38.5244 21.0297 39.3365C20.8657 40.1485 21.391 40.9397 22.203 41.1038L32.203 43.1238C33.015 43.2878 33.8063 42.7625 33.9703 41.9505C34.1343 41.1384 33.609 40.3472 32.797 40.1832L22.797 38.1632ZM21.0297 47.4164C21.1937 46.6044 21.985 46.0791 22.797 46.2431L32.797 48.2631C33.609 48.4272 34.1343 49.2184 33.9703 50.0304C33.8063 50.8425 33.015 51.3678 32.203 51.2037L22.203 49.1837C21.391 49.0197 20.8657 48.2285 21.0297 47.4164Z" fill="#0182FF"/>
</g>
<defs>
<clipPath id="clip0_117_4692">
<rect width="80" height="80" fill="white" transform="translate(0.5 0.643555)"/>
</clipPath>
</defs>
</svg>
