<svg width="176" height="33" viewBox="0 0 176 33" fill="none" xmlns="http://www.w3.org/2000/svg">
<path d="M36.6936 16.7164C36.6936 17.3709 37.1994 17.88 37.8497 17.88C38.5 17.88 39.0057 17.3709 39.0057 16.7164C39.0057 16.0618 38.5 15.5527 37.8497 15.5527C37.1994 15.5527 36.6936 16.0618 36.6936 16.7164ZM46.4479 15.5527C45.7976 15.5527 45.2919 16.0618 45.2919 16.7164C45.2919 17.3709 45.7976 17.88 46.4479 17.88C47.0982 17.88 47.604 17.3709 47.604 16.7164C47.604 16.0618 47.0982 15.5527 46.4479 15.5527ZM46.4479 24.3527C45.7976 24.3527 45.2919 24.8618 45.2919 25.5164C45.2919 26.1709 45.7976 26.68 46.4479 26.68C47.0982 26.68 47.604 26.1709 47.604 25.5164C47.604 24.8618 47.0982 24.3527 46.4479 24.3527Z" fill="#515862"/>
<path d="M48.9046 5.87993C47.7486 4.42539 45.6532 4.35266 44.4249 5.5163L44.2803 5.66175L43.9913 5.87993C42.8353 6.82539 41.1012 6.75266 40.0173 5.66175V5.58902C39.6561 5.22539 39.1503 4.93448 38.6445 4.78902C38.5723 4.78902 38.4277 4.7163 38.3555 4.7163H37.1994C37.1272 4.7163 37.0549 4.7163 36.9827 4.78902H36.8382C36.7659 4.78902 36.6936 4.86175 36.6214 4.86175C36.6214 4.86175 36.5491 4.86175 36.5491 4.93448C36.4769 4.93448 36.4046 5.00721 36.3324 5.00721C36.3324 5.00721 36.2601 5.00721 36.2601 5.07993C36.1879 5.15266 36.1156 5.15266 36.0434 5.22539C36.0434 5.22539 35.9711 5.22539 35.9711 5.29811C35.8988 5.37084 35.8266 5.37084 35.7543 5.44357L35.6821 5.5163L35.5376 5.66175L35.2486 5.87993C34.0925 6.82539 32.3584 6.75266 31.3468 5.66175C31.3468 5.66175 31.2746 5.66175 31.2746 5.58902L31.1301 5.44357C30.6965 5.07993 30.1908 4.78902 29.6127 4.7163H28.3121C28.3121 4.78902 28.2399 4.78902 28.1676 4.86175H28.0954C27.7341 5.00721 27.3728 5.15266 27.0838 5.44357L27.0116 5.5163L26.7948 5.73448C26.5058 6.02539 26.3613 6.38902 26.2168 6.67993C26.2168 6.75266 26.1445 6.82539 26.1445 6.89811C26.1445 6.97084 26.0723 7.04357 26.0723 7.18902C26 7.69811 26 8.20721 26.1445 8.7163C26.1445 8.78902 26.2168 8.86175 26.2168 8.93448V9.00721C26.2168 9.07993 26.289 9.15266 26.289 9.22539C26.3613 9.29812 26.3613 9.37084 26.4335 9.5163C26.578 9.58902 26.7225 9.73448 26.7948 9.80721L26.9393 9.95266L27.0838 10.0981C28.1676 11.1891 28.1676 13.08 27.0116 14.2436C26.8671 14.3891 26.6503 14.6073 26.578 14.7527C26.5058 14.8254 26.5058 14.8982 26.4335 15.0436V15.1163C26.3613 15.1891 26.3613 15.2618 26.289 15.3345V15.4073C26.289 15.48 26.2168 15.5527 26.2168 15.6254V15.6982C26.2168 15.7709 26.2168 15.8436 26.1445 15.9163V17.0073C26.1445 17.08 26.1445 17.1527 26.2168 17.2254V17.2982C26.3613 17.8073 26.6503 18.3163 27.0838 18.7527C28.2399 19.9163 28.2399 21.8073 27.0838 22.9709L27.0116 23.0436L26.8671 23.1891V23.2618C26.7948 23.3345 26.7225 23.4073 26.7225 23.48C26.7225 23.48 26.7225 23.5527 26.6503 23.5527C26.578 23.6254 26.578 23.6982 26.5058 23.7709L26.4335 23.8436C26.4335 23.9163 26.3613 23.9163 26.3613 23.9891C26.3613 24.0618 26.289 24.0618 26.289 24.1345C26.289 24.2073 26.289 24.2073 26.2168 24.28C26.0723 24.5709 26 24.9345 26 25.2254V25.8073C26.0723 26.0254 26.0723 26.2436 26.2168 26.3891C26.2168 26.4618 26.289 26.5345 26.289 26.5345C26.289 26.5345 26.289 26.6073 26.3613 26.6073C26.3613 26.68 26.4335 26.7527 26.4335 26.8254C26.4335 26.8254 26.4335 26.8982 26.5058 26.8982C26.578 27.0436 26.6503 27.1163 26.7225 27.1891C26.7225 27.1891 26.7225 27.2618 26.7948 27.2618C26.7948 27.2618 26.7948 27.3345 26.8671 27.3345C26.8671 27.4073 26.9393 27.4073 26.9393 27.4073L27.0116 27.48C27.0838 27.5527 27.1561 27.5527 27.1561 27.6254L27.2283 27.6982C27.2283 27.6982 27.3006 27.6982 27.3006 27.7709C27.3728 27.8436 27.4451 27.9163 27.5173 27.9163C27.5173 27.9163 27.5896 27.9163 27.5896 27.9891C27.6618 28.0618 27.7341 28.0618 27.8064 28.1345H27.8786C27.9509 28.2073 28.0231 28.2073 28.1676 28.2073C28.2399 28.2073 28.3844 28.28 28.4566 28.28H28.5289C28.6012 28.28 28.6734 28.28 28.7457 28.3527H29.396C29.6127 28.3527 29.7572 28.28 29.974 28.28H30.0462C30.1185 28.28 30.1908 28.2073 30.263 28.2073H30.3353C30.4075 28.2073 30.4798 28.1345 30.552 28.1345H30.6243C30.7688 28.0618 30.9855 27.9163 31.1301 27.8436L31.3468 27.6254L31.4191 27.5527C32.5751 26.3163 34.4538 26.3163 35.6098 27.5527C36.9104 28.9345 39.078 28.8618 40.3064 27.3345C41.1734 26.2436 41.1734 24.6436 40.3064 23.48C39.1503 22.0254 37.0549 21.9527 35.8266 23.1163L35.6821 23.2618L35.3931 23.48C34.237 24.4254 32.5029 24.3527 31.4191 23.2618L31.2746 23.1163L31.0578 22.8254C30.1185 21.6618 30.1908 19.9163 31.2746 18.8254C31.9249 18.2436 32.2139 17.4436 32.2139 16.6436V16.4254C32.2139 15.6982 31.9249 14.9709 31.3468 14.4618C31.3468 14.3891 31.2746 14.3891 31.2746 14.3163L31.0578 14.0254C30.1185 12.8618 30.1908 11.1163 31.2746 10.0254L31.3468 9.95266L31.4191 9.87993C32.5751 8.64357 34.4538 8.64357 35.6098 9.87993L35.6821 9.95266L35.7543 10.0254L35.8988 10.1708C35.9711 10.1708 35.9711 10.2436 36.0434 10.2436C36.1156 10.2436 36.1156 10.3163 36.1879 10.3163C36.2601 10.3163 36.2601 10.389 36.3324 10.389C36.4046 10.389 36.4046 10.4618 36.4769 10.4618C36.5491 10.4618 36.5491 10.5345 36.6214 10.5345C36.6936 10.5345 36.6936 10.6072 36.7659 10.6072C36.8382 10.6072 36.8382 10.6072 36.9104 10.68C36.9827 10.68 36.9827 10.68 37.0549 10.7527H38.2832C38.3555 10.7527 38.4277 10.7527 38.5 10.68H38.6445C38.7168 10.68 38.789 10.6072 38.8613 10.6072H38.9335C39.0058 10.6072 39.078 10.5345 39.2225 10.4618C39.5116 10.3163 39.8006 10.0981 40.0173 9.87993L40.0896 9.80721C41.2457 8.57084 43.1243 8.57084 44.2803 9.80721C45.5087 11.2618 47.7486 11.1891 48.9046 9.66175C49.7717 8.57084 49.7717 6.97084 48.9046 5.87993Z" fill="#515862"/>
<path d="M65.3785 14.8981C64.945 14.4618 64.5837 14.1709 64.0779 13.9527C63.6444 13.7345 63.1386 13.5891 62.4883 13.5891C61.9103 13.5891 61.3323 13.7345 60.8987 13.9527C60.4652 14.1709 60.1039 14.4618 59.8149 14.8981C59.5259 15.2618 59.3092 15.6981 59.1646 16.2072C59.0201 16.7163 58.9479 17.2254 58.9479 17.7345C58.9479 18.2436 59.0201 18.7527 59.2369 19.2618C59.3814 19.7709 59.6704 20.1345 59.9594 20.4981C60.2485 20.8618 60.682 21.1527 61.1155 21.3709C61.549 21.5891 62.0548 21.6618 62.6329 21.6618C63.2831 21.6618 63.7889 21.5163 64.2224 21.2981C64.656 21.08 65.0895 20.7891 65.4508 20.3527L66.9681 21.9527C66.3901 22.6072 65.7398 23.0436 65.0172 23.3345C64.2947 23.6254 63.4999 23.7709 62.6329 23.7709C61.7658 23.7709 60.8987 23.6254 60.1762 23.3345C59.4537 23.0436 58.8034 22.6072 58.2976 22.0981C57.7918 21.5891 57.3583 20.9345 57.0693 20.2072C56.7802 19.48 56.6357 18.6072 56.6357 17.7345C56.6357 16.8618 56.7802 15.9891 57.0693 15.2618C57.3583 14.5345 57.7918 13.88 58.2976 13.2981C58.8034 12.7891 59.4537 12.3527 60.1762 12.0618C60.8987 11.7709 61.7658 11.6254 62.6329 11.6254C63.4999 11.6254 64.2947 11.7709 65.0172 12.0618C65.812 12.3527 66.4623 12.8618 67.0404 13.4436L65.3785 14.8981ZM70.2918 17.5891C70.2918 18.1709 70.3641 18.7527 70.5808 19.1891C70.7253 19.6981 71.0144 20.1345 71.3034 20.4981C71.5924 20.8618 72.0259 21.1527 72.4594 21.2981C72.893 21.5163 73.471 21.5891 74.049 21.5891C74.6271 21.5891 75.1328 21.5163 75.6386 21.2981C76.0722 21.08 76.5057 20.7891 76.7947 20.4981C77.0837 20.1345 77.3727 19.6981 77.5172 19.1891C77.6618 18.68 77.8063 18.1709 77.8063 17.5891C77.8063 17.0072 77.734 16.4254 77.5172 15.9891C77.3727 15.48 77.0837 15.0436 76.7947 14.68C76.5057 14.3163 76.0722 14.0254 75.6386 13.88C75.2051 13.6618 74.6271 13.5891 74.049 13.5891C73.471 13.5891 72.9652 13.6618 72.4594 13.88C72.0259 14.0981 71.5924 14.3891 71.3034 14.68C71.0144 15.0436 70.7253 15.48 70.5808 15.9891C70.4363 16.4981 70.2918 17.0072 70.2918 17.5891ZM67.9797 17.5891C67.9797 16.7163 68.1242 15.9163 68.4132 15.1891C68.7022 14.4618 69.1357 13.8072 69.7138 13.2254C70.2918 12.6436 70.8698 12.2072 71.6646 11.9163C72.3872 11.6254 73.182 11.4072 74.049 11.4072C74.9161 11.4072 75.7109 11.5527 76.4334 11.9163C77.156 12.2072 77.8063 12.6436 78.3843 13.2254C78.9623 13.8072 79.3236 14.4618 79.6849 15.1891C79.9739 15.9163 80.1184 16.7163 80.1184 17.5891C80.1184 18.4618 79.9739 19.2618 79.6849 19.9891C79.3959 20.7163 78.9623 21.3709 78.3843 21.9527C77.8063 22.5345 77.2282 22.8981 76.4334 23.2618C75.7109 23.5527 74.9161 23.7709 74.049 23.7709C73.182 23.7709 72.3872 23.6254 71.6646 23.2618C70.9421 22.9709 70.2918 22.5345 69.7138 21.9527C69.1357 21.3709 68.7745 20.7891 68.4132 19.9891C68.1964 19.2618 67.9797 18.4618 67.9797 17.5891ZM82.3583 23.48H84.5259V11.8436H82.3583V23.48ZM81.8525 7.62537C81.8525 7.189 81.997 6.82537 82.286 6.46173C82.575 6.17082 82.9363 5.95264 83.3698 5.95264C83.8034 5.95264 84.1646 6.0981 84.4537 6.46173C84.7427 6.75264 84.8872 7.189 84.8872 7.62537C84.8872 8.06173 84.7427 8.42537 84.4537 8.789C84.1646 9.07991 83.8034 9.2981 83.3698 9.2981C82.9363 9.2981 82.575 9.15264 82.286 8.789C81.997 8.4981 81.8525 8.06173 81.8525 7.62537ZM87.5606 11.8436H89.7282V13.6618H89.8005C90.0895 13.0072 90.523 12.4981 91.2456 12.1345C91.8959 11.7709 92.6906 11.5527 93.63 11.5527C94.208 11.5527 94.7138 11.6254 95.2196 11.8436C95.7253 11.9891 96.1589 12.28 96.5201 12.6436C96.8814 13.0072 97.1704 13.4436 97.4594 14.0254C97.6762 14.6072 97.8207 15.2618 97.8207 16.0618V23.5527H95.6531V16.6436C95.6531 16.1345 95.5808 15.6254 95.4363 15.2618C95.2918 14.8981 95.075 14.5345 94.8583 14.3163C94.6415 14.0981 94.3525 13.88 93.9912 13.8072C93.7022 13.7345 93.3409 13.6618 92.9797 13.6618C92.5461 13.6618 92.1126 13.7345 91.7513 13.88C91.3901 14.0254 91.0288 14.2436 90.7398 14.6072C90.4508 14.8981 90.234 15.3345 90.0895 15.8436C89.945 16.3527 89.8727 16.9345 89.8727 17.5891V23.6254H87.7051V11.8436H87.5606ZM105.841 21.6618C106.419 21.6618 106.925 21.5891 107.431 21.3709C107.936 21.1527 108.298 20.8618 108.659 20.4981C108.948 20.1345 109.237 19.6981 109.381 19.1891C109.526 18.68 109.67 18.1709 109.67 17.5163C109.67 16.9345 109.598 16.3527 109.381 15.8436C109.237 15.3345 108.948 14.8981 108.659 14.5345C108.298 14.1709 107.936 13.88 107.431 13.6618C106.925 13.4436 106.419 13.3709 105.841 13.3709C105.263 13.3709 104.757 13.4436 104.251 13.6618C103.746 13.88 103.384 14.1709 103.023 14.5345C102.734 14.8981 102.445 15.3345 102.3 15.8436C102.156 16.3527 102.011 16.8618 102.011 17.5163C102.011 18.0981 102.084 18.68 102.3 19.1891C102.445 19.6981 102.734 20.1345 103.023 20.4981C103.312 20.8618 103.746 21.1527 104.251 21.3709C104.685 21.5163 105.263 21.6618 105.841 21.6618ZM111.838 23.4072H109.67V21.7345H109.598C109.165 22.3891 108.587 22.8254 107.864 23.1891C107.142 23.5527 106.347 23.6981 105.552 23.6981C104.685 23.6981 103.818 23.5527 103.095 23.2618C102.373 22.9709 101.722 22.5345 101.217 21.9527C100.711 21.3709 100.277 20.7163 100.061 19.9891C99.7716 19.2618 99.6271 18.4618 99.6271 17.5891C99.6271 16.7163 99.7716 15.9163 100.061 15.1163C100.35 14.3891 100.711 13.7345 101.217 13.1527C101.722 12.5709 102.373 12.1345 103.095 11.8436C103.818 11.5527 104.613 11.4072 105.552 11.4072C106.347 11.4072 107.142 11.5527 107.864 11.9163C108.587 12.28 109.165 12.7891 109.526 13.3709H109.598V4.64355H111.766V23.4072H111.838ZM122.893 16.6436C122.893 16.1345 122.821 15.6981 122.676 15.2618C122.532 14.8254 122.315 14.4618 122.026 14.1709C121.737 13.88 121.376 13.6618 121.014 13.4436C120.581 13.2981 120.147 13.1527 119.569 13.1527C119.063 13.1527 118.558 13.2254 118.124 13.4436C117.691 13.6618 117.329 13.88 116.968 14.2436C116.679 14.5345 116.39 14.8981 116.246 15.3345C116.101 15.7709 115.957 16.1345 115.957 16.4981H122.893V16.6436ZM115.957 18.4618C115.957 18.9709 116.101 19.4072 116.318 19.8436C116.535 20.28 116.824 20.6436 117.185 20.9345C117.546 21.2254 117.98 21.4436 118.413 21.5891C118.919 21.7345 119.352 21.8072 119.858 21.8072C120.509 21.8072 121.159 21.6618 121.665 21.2981C122.17 21.0072 122.604 20.5709 123.037 20.0618L124.699 21.3709C123.471 22.9709 121.737 23.7709 119.569 23.7709C118.63 23.7709 117.835 23.6254 117.113 23.3345C116.39 23.0436 115.74 22.6072 115.234 22.0254C114.728 21.4436 114.295 20.8618 114.078 20.0618C113.789 19.3345 113.644 18.5345 113.644 17.6618C113.644 16.7891 113.789 15.9891 114.078 15.2618C114.367 14.5345 114.8 13.88 115.306 13.2981C115.812 12.7163 116.462 12.3527 117.185 11.9891C117.907 11.6981 118.702 11.5527 119.569 11.5527C120.581 11.5527 121.448 11.6981 122.17 12.0618C122.893 12.4254 123.471 12.8618 123.905 13.4436C124.338 14.0254 124.699 14.68 124.916 15.4072C125.133 16.1345 125.205 16.8618 125.205 17.6618V18.4618H115.957ZM133.731 14.7527C133.442 14.4618 133.153 14.1709 132.792 13.9527C132.431 13.7345 131.925 13.5891 131.419 13.5891C130.913 13.5891 130.48 13.7345 130.046 13.9527C129.685 14.1709 129.468 14.4618 129.468 14.8981C129.468 15.2618 129.613 15.5527 129.829 15.6981C130.046 15.9163 130.335 16.0618 130.624 16.2072C130.913 16.3527 131.274 16.4254 131.563 16.4981C131.925 16.5709 132.214 16.6436 132.431 16.6436C132.864 16.7891 133.37 16.8618 133.731 17.08C134.165 17.2254 134.526 17.4436 134.815 17.7345C135.104 18.0254 135.321 18.3163 135.537 18.68C135.682 19.0436 135.826 19.48 135.826 20.0618C135.826 20.7163 135.682 21.2981 135.393 21.7345C135.104 22.1709 134.743 22.6072 134.309 22.8981C133.876 23.1891 133.37 23.4072 132.792 23.5527C132.214 23.6981 131.636 23.7709 131.13 23.7709C130.191 23.7709 129.324 23.6254 128.601 23.3345C127.879 23.0436 127.228 22.5345 126.65 21.7345L128.312 20.3527C128.673 20.7163 129.035 21.0072 129.468 21.2981C129.902 21.5891 130.407 21.7345 131.058 21.7345C131.347 21.7345 131.636 21.7345 131.925 21.6618C132.214 21.5891 132.431 21.5163 132.647 21.3709C132.864 21.2254 133.009 21.08 133.153 20.9345C133.298 20.7163 133.37 20.4981 133.37 20.28C133.37 19.9891 133.298 19.6981 133.081 19.48C132.864 19.2618 132.647 19.1163 132.358 18.9709C132.069 18.8254 131.78 18.7527 131.491 18.68L130.624 18.4618C130.191 18.3163 129.685 18.2436 129.324 18.0981C128.89 17.9527 128.529 17.7345 128.24 17.5163C127.951 17.2981 127.662 16.9345 127.445 16.5709C127.228 16.2072 127.156 15.6981 127.156 15.1891C127.156 14.6072 127.3 14.0254 127.517 13.5891C127.734 13.1527 128.095 12.7891 128.529 12.4981C128.962 12.2072 129.396 11.9891 129.902 11.8436C130.407 11.6981 130.985 11.6254 131.491 11.6254C132.286 11.6254 133.009 11.7709 133.731 12.0618C134.454 12.3527 135.032 12.8618 135.465 13.5163L133.731 14.7527ZM137.922 4.93446H140.089V16.7163L145.003 11.7709H147.965L142.691 17.0072L148.471 23.2618H145.364L140.089 17.2981V23.2618H137.922V4.93446Z" fill="#515862"/>
</svg>
