<svg width="120" height="23" viewBox="0 0 120 23" fill="none" xmlns="http://www.w3.org/2000/svg">
<g style="mix-blend-mode:luminosity" opacity="0.38" clip-path="url(#clip0_117_3415)">
<path d="M24.1703 6.42191C19.8198 6.42191 16.4205 9.73002 16.4205 14.1585C16.4205 18.5871 19.7338 21.8669 24.1703 21.8669C28.6066 21.8669 31.9777 18.5306 31.9777 14.1303C31.9777 9.75831 28.6643 6.42191 24.1703 6.42191ZM24.1996 18.6753C21.7221 18.6753 19.9067 16.748 19.9067 14.1597C19.9067 11.5419 21.6928 9.61568 24.1703 9.61568C26.6771 9.61568 28.4914 11.5713 28.4914 14.1597C28.4914 16.748 26.6771 18.6753 24.1996 18.6753ZM32.9278 9.78771H35.0888V21.5805H38.5457V6.70938H32.9278V9.78771ZM7.72048 9.61457C9.53589 9.61457 10.9763 10.7361 11.5231 12.4043H15.1822C14.5191 8.83817 11.5808 6.42191 7.74983 6.42191C3.39931 6.42191 0 9.73003 0 14.1597C0 18.5893 3.31344 21.868 7.74983 21.868C11.4948 21.868 14.4909 19.4517 15.1539 15.8562H11.5231C11.0046 17.5244 9.56417 18.6753 7.74876 18.6753C5.24193 18.6753 3.48519 16.748 3.48519 14.1597C3.48628 11.5419 5.21475 9.61457 7.72048 9.61457ZM98.6117 12.7212L96.0763 12.3477C94.8669 12.1757 94.0029 11.7728 94.0029 10.8233C94.0029 9.78771 95.1266 9.27051 96.6531 9.27051C98.3237 9.27051 99.39 9.98914 99.6206 11.1684H102.963C102.587 8.17721 100.282 6.42298 96.7397 6.42298C93.0806 6.42298 90.6609 8.29266 90.6609 10.9387C90.6609 13.4693 92.2457 14.9372 95.4429 15.3967L97.9774 15.7701C99.2169 15.9422 99.9086 16.4322 99.9086 17.3523C99.9086 18.5316 98.6991 19.0205 97.0277 19.0205C94.9817 19.0205 93.8297 18.1864 93.6566 16.9211H90.2571C90.5751 19.8263 92.85 21.868 96.9986 21.868C100.773 21.868 103.279 20.1421 103.279 17.1792C103.279 14.5332 101.464 13.1524 98.6117 12.7212ZM36.8173 0.583188C35.5497 0.583188 34.5987 1.50331 34.5987 2.76862C34.5987 4.03392 35.5487 4.95405 36.8173 4.95405C38.0848 4.95405 39.0361 4.03392 39.0361 2.76862C39.0361 1.50331 38.0848 0.583188 36.8173 0.583188ZM87.5494 11.8011C87.5494 8.5801 85.5908 6.42298 81.4422 6.42298C77.5244 6.42298 75.335 8.40807 74.9024 11.457H78.3309C78.5037 10.2777 79.4256 9.29982 81.3848 9.29982C83.1426 9.29982 84.0067 10.0762 84.0067 11.0258C84.0067 12.2628 82.4217 12.5786 80.4628 12.78C77.8125 13.0675 74.5284 13.9876 74.5284 17.4394C74.5284 20.1149 76.5165 21.8397 79.6857 21.8397C82.1629 21.8397 83.7186 20.8041 84.4971 19.1643C84.6123 20.631 85.7071 21.5805 87.234 21.5805H89.2509V18.5033H87.5503V11.8011H87.5494ZM84.1501 15.5404C84.1501 17.5255 82.4217 18.9922 80.3181 18.9922C79.0215 18.9922 77.9268 18.4455 77.9268 17.2957C77.9268 15.8289 79.6844 15.4261 81.2979 15.2541C82.8535 15.1103 83.7176 14.7651 84.1501 14.1031V15.5404ZM65.7991 6.42191C63.8685 6.42191 62.2552 7.22769 61.1031 8.57903V0.439453H57.6461V21.5805H61.0453V19.6249C62.1975 21.0339 63.8403 21.868 65.7991 21.868C69.9473 21.868 73.0881 18.5893 73.0881 14.1597C73.0881 9.73003 69.8898 6.42191 65.7991 6.42191ZM65.2807 18.6753C62.8031 18.6753 60.9878 16.748 60.9878 14.1597C60.9878 11.5713 62.8316 9.61568 65.3087 9.61568C67.8157 9.61568 69.5722 11.5431 69.5722 14.1597C69.5722 16.748 67.7579 18.6753 65.2807 18.6753ZM49.3775 6.42191C47.1306 6.42191 45.6609 7.34203 44.7968 8.63674V6.70938H41.3679V21.5795H44.8249V13.4976C44.8249 11.2251 46.2651 9.61457 48.3971 9.61457C50.3853 9.61457 51.6234 11.0236 51.6234 13.0664V21.5805H55.0803V12.8084C55.0817 9.06797 53.1519 6.42191 49.3775 6.42191ZM119.757 13.6707C119.757 9.41417 116.646 6.42298 112.469 6.42298C108.033 6.42298 104.777 9.75943 104.777 14.1597C104.777 18.7908 108.263 21.868 112.527 21.868C116.128 21.868 118.951 19.7392 119.671 16.7197H116.069C115.551 18.0427 114.283 18.7908 112.583 18.7908C110.364 18.7908 108.693 17.41 108.319 14.9937H119.757V13.6707H119.757ZM108.521 12.5198C109.07 10.4487 110.625 9.44254 112.411 9.44254C114.37 9.44254 115.869 10.5641 116.214 12.5198H108.521Z" fill="#0052FF"/>
</g>
<defs>
<clipPath id="clip0_117_3415">
<rect width="120" height="22.2857" fill="white" transform="translate(0 0.0109863)"/>
</clipPath>
</defs>
</svg>
