<svg width="50" height="50" viewBox="0 0 50 50" fill="none" xmlns="http://www.w3.org/2000/svg">
<rect width="50" height="50" rx="8" fill="#B6DFEC" fill-opacity="0.24"/>
<path fill-rule="evenodd" clip-rule="evenodd" d="M25.001 29.541C24.587 29.541 24.251 29.205 24.251 28.791V16.75C24.251 16.336 24.587 16 25.001 16C25.415 16 25.751 16.336 25.751 16.75V28.791C25.751 29.205 25.415 29.541 25.001 29.541Z" fill="black"/>
<path fill-rule="evenodd" clip-rule="evenodd" d="M25.001 29.541C24.802 29.541 24.61 29.462 24.47 29.32L21.554 26.393C21.262 26.099 21.263 25.624 21.556 25.332C21.85 25.04 22.324 25.04 22.616 25.334L25.001 27.729L27.386 25.334C27.678 25.04 28.152 25.04 28.446 25.332C28.739 25.624 28.74 26.099 28.448 26.393L25.532 29.32C25.392 29.462 25.2 29.541 25.001 29.541Z" fill="black"/>
<mask id="mask0_117_4319" style="mask-type:alpha" maskUnits="userSpaceOnUse" x="15" y="20" width="20" height="15">
<path fill-rule="evenodd" clip-rule="evenodd" d="M15.0002 20.7324H35V34.4764H15.0002V20.7324Z" fill="white"/>
</mask>
<g mask="url(#mask0_117_4319)">
<path fill-rule="evenodd" clip-rule="evenodd" d="M30.5752 34.4764H19.4352C16.9902 34.4764 15.0002 32.4874 15.0002 30.0414V25.1564C15.0002 22.7164 16.9852 20.7324 19.4262 20.7324H20.3672C20.7812 20.7324 21.1172 21.0684 21.1172 21.4824C21.1172 21.8964 20.7812 22.2324 20.3672 22.2324H19.4262C17.8122 22.2324 16.5002 23.5434 16.5002 25.1564V30.0414C16.5002 31.6604 17.8162 32.9764 19.4352 32.9764H30.5752C32.1872 32.9764 33.5002 31.6634 33.5002 30.0514V25.1674C33.5002 23.5484 32.1832 22.2324 30.5662 22.2324H29.6342C29.2202 22.2324 28.8842 21.8964 28.8842 21.4824C28.8842 21.0684 29.2202 20.7324 29.6342 20.7324H30.5662C33.0112 20.7324 35.0002 22.7224 35.0002 25.1674V30.0514C35.0002 32.4914 33.0142 34.4764 30.5752 34.4764Z" fill="black"/>
</g>
</svg>
