<svg width="176" height="33" viewBox="0 0 176 33" fill="none" xmlns="http://www.w3.org/2000/svg">
<path d="M93.4185 12.7327C93.4185 10.1549 93.463 7.75493 93.5965 5.53271L86.788 6.8216V7.44383L87.4555 7.53271C87.945 7.57715 88.2565 7.75494 88.4345 8.0216C88.6124 8.33272 88.746 8.77715 88.835 9.44382C88.924 10.7327 89.013 13.666 88.9685 18.2883C88.9685 22.866 88.924 25.7549 88.835 26.866C91.2825 27.3994 93.196 27.6216 94.62 27.6216C97.29 27.6216 99.3815 26.866 100.894 25.3105C102.407 23.7994 103.208 21.666 103.208 19.0438C103.208 16.9549 102.63 15.2216 101.473 13.8438C100.316 12.466 98.8475 11.7994 97.112 11.7994C95.955 11.7994 94.7535 12.1105 93.4185 12.7327ZM93.552 26.4216C93.463 24.9994 93.374 20.7327 93.374 13.7549C93.7745 13.6216 94.3085 13.5327 94.976 13.5327C96.044 13.5327 96.8895 14.066 97.5125 15.1772C98.1355 16.2883 98.447 17.6216 98.447 19.3105C98.447 21.3994 98.091 23.0883 97.379 24.5105C96.667 25.8883 95.777 26.5994 94.6645 26.5994C94.3085 26.5105 93.9524 26.466 93.552 26.4216ZM61.2449 5.97716H43.4449V6.86604L44.3794 6.95494C45.0914 7.08827 45.5809 7.35493 45.8924 7.75493C46.2039 8.19937 46.3819 8.91048 46.4264 9.88826C46.7824 14.6883 46.7824 19.1772 46.4264 23.3105C46.3374 24.2883 46.1594 24.9994 45.8924 25.4438C45.5809 25.8883 45.0914 26.1549 44.3794 26.2438L43.4449 26.3772V27.266H54.9259V26.3772L53.7244 26.2883C53.0124 26.1994 52.5229 25.8883 52.2114 25.4883C51.8999 25.0438 51.7219 24.3327 51.6774 23.3549C51.5439 21.5772 51.4549 19.5327 51.4549 17.266L53.8579 17.3105C55.1484 17.3549 56.0384 18.3327 56.4834 20.2883H57.3734V13.0438H56.4834C56.0384 14.9549 55.1929 15.9327 53.8579 15.9772L51.4549 16.0216C51.4549 12.0216 51.5439 9.17716 51.6774 7.44383H55.1929C57.6849 7.44383 59.3759 9.04383 60.3549 12.2438L61.4229 11.9327L61.2449 5.97716ZM59.1534 19.666C59.1534 21.9772 59.8209 23.8883 61.1114 25.3994C62.4019 26.9105 64.3154 27.6216 66.7184 27.6216C69.1214 27.6216 71.0795 26.866 72.5035 25.3105C73.9275 23.7994 74.5949 21.8883 74.5949 19.5772C74.5949 17.266 73.9275 15.3549 72.6369 13.8438C71.3464 12.3327 69.4329 11.6216 67.0299 11.6216C64.6269 11.6216 62.6689 12.3772 61.2449 13.9327C59.8209 15.4438 59.1534 17.3549 59.1534 19.666ZM69.0769 14.5994C69.6109 15.8883 69.8334 17.5772 69.8334 19.6216C69.8334 24.3327 68.8544 26.6438 66.9409 26.6438C65.9619 26.6438 65.2055 25.9772 64.6714 24.6438C64.1374 23.3105 63.9149 21.6216 63.9149 19.6216C63.9149 14.9549 64.8939 12.6438 66.8074 12.6438C67.7864 12.5994 68.5429 13.266 69.0769 14.5994ZM106.679 25.3994C108.148 26.866 110.017 27.6216 112.242 27.6216C113.621 27.6216 114.823 27.3549 115.891 26.7772C116.959 26.2438 117.804 25.5772 118.383 24.7772L117.938 24.2438C116.959 24.9994 115.846 25.3549 114.556 25.3549C112.776 25.3549 111.396 24.7772 110.462 23.5772C109.483 22.3772 109.038 20.866 109.127 18.9105H118.65C118.65 16.7772 118.116 15.0438 117.003 13.666C115.891 12.3327 114.333 11.666 112.331 11.666C109.839 11.666 107.925 12.466 106.546 14.0216C105.166 15.5772 104.499 17.4883 104.499 19.7549C104.499 22.066 105.211 23.9327 106.679 25.3994ZM109.972 14.2438C110.462 13.1772 111.085 12.6438 111.93 12.6438C113.265 12.6438 113.933 14.3327 113.933 17.7549L109.216 17.8438C109.26 16.5105 109.483 15.3105 109.972 14.2438ZM130.62 12.466C129.419 11.9327 127.906 11.6216 126.081 11.6216C124.212 11.6216 122.744 12.1105 121.631 13.0438C120.519 13.9772 119.94 15.1327 119.94 16.5105C119.94 17.7105 120.296 18.6438 120.964 19.3105C121.631 19.9772 122.699 20.5549 124.079 21.0438C125.325 21.4883 126.215 21.9327 126.66 22.3327C127.105 22.7772 127.372 23.266 127.372 23.9327C127.372 24.5549 127.149 25.1327 126.66 25.5772C126.215 26.066 125.592 26.2883 124.791 26.2883C122.833 26.2883 121.364 24.866 120.341 22.0216L119.584 22.2438L119.762 26.6883C121.364 27.3105 123.144 27.6216 125.102 27.6216C127.149 27.6216 128.707 27.1772 129.864 26.2438C131.021 25.3549 131.599 24.066 131.599 22.466C131.599 21.3994 131.332 20.5105 130.754 19.8438C130.175 19.1772 129.241 18.5994 127.906 18.066C126.437 17.5327 125.414 17.0438 124.88 16.5994C124.346 16.1549 124.079 15.6216 124.079 14.9549C124.079 14.2883 124.257 13.7549 124.657 13.3105C125.058 12.866 125.547 12.6883 126.17 12.6883C127.95 12.6883 129.241 13.9772 130.042 16.5105L130.798 16.2883L130.62 12.466ZM87.8115 12.066C87.1884 11.7549 86.521 11.6216 85.7645 11.6216C85.0079 11.6216 84.2515 11.9327 83.406 12.5549C82.5605 13.1772 81.9375 14.0216 81.448 15.1772L81.4925 11.6216L74.7285 12.9549V13.5772L75.396 13.6216C76.2415 13.7105 76.7309 14.3772 76.82 15.5772C77.0869 18.3327 77.0869 21.266 76.82 24.3772C76.7309 25.5772 76.2415 26.1994 75.396 26.3327L74.7285 26.4216V27.266H84.1625V26.4216L82.961 26.3327C82.1155 26.2438 81.6259 25.5772 81.5369 24.3772C81.27 21.7994 81.2255 19.0438 81.448 16.1994C81.715 15.7549 82.2935 15.4883 83.1835 15.3994C84.0735 15.3105 85.097 15.5772 86.165 16.1994L87.8115 12.066Z" fill="#515862"/>
</svg>
