<svg width="50" height="50" viewBox="0 0 50 50" fill="none" xmlns="http://www.w3.org/2000/svg">
<rect width="50" height="50" rx="8" fill="#B5EED3" fill-opacity="0.24"/>
<mask id="mask0_117_4325" style="mask-type:alpha" maskUnits="userSpaceOnUse" x="17" y="15" width="17" height="21">
<path fill-rule="evenodd" clip-rule="evenodd" d="M17.0002 15.0005H33.967V35.3561H17.0002V15.0005Z" fill="white"/>
</mask>
<g mask="url(#mask0_117_4325)">
<path fill-rule="evenodd" clip-rule="evenodd" d="M25.4836 16.5C24.6356 16.5 19.2856 18.384 18.6686 18.899C18.4866 19.082 18.4796 19.4 18.5186 21.529C18.5366 22.555 18.5616 23.949 18.5616 25.879C18.5616 31.08 24.2836 33.389 25.4826 33.814C26.6806 33.387 32.4056 31.065 32.4056 25.879C32.4056 23.947 32.4306 22.552 32.4496 21.526C32.4876 19.399 32.4806 19.081 32.2876 18.889C31.6826 18.384 26.3316 16.5 25.4836 16.5ZM25.4836 35.356C25.4106 35.356 25.3376 35.346 25.2666 35.324C24.9316 35.223 17.0616 32.761 17.0616 25.879C17.0616 23.962 17.0366 22.575 17.0186 21.557C16.9726 19.014 16.9626 18.484 17.6196 17.828C18.4046 17.041 24.3496 15 25.4836 15C26.6166 15 32.5616 17.041 33.3486 17.828C34.0046 18.484 33.9946 19.014 33.9486 21.554C33.9306 22.572 33.9056 23.959 33.9056 25.879C33.9056 32.761 26.0356 35.223 25.7006 35.324C25.6296 35.346 25.5566 35.356 25.4836 35.356Z" fill="black"/>
</g>
<path fill-rule="evenodd" clip-rule="evenodd" d="M24.7771 27.5194C24.5781 27.5194 24.3871 27.4404 24.2461 27.2994L22.3541 25.4054C22.0621 25.1124 22.0621 24.6364 22.3551 24.3444C22.6471 24.0514 23.1231 24.0514 23.4161 24.3444L24.7771 25.7074L28.1451 22.3394C28.4381 22.0464 28.9121 22.0464 29.2051 22.3394C29.4981 22.6324 29.4981 23.1074 29.2051 23.4004L25.3071 27.2994C25.1671 27.4404 24.9761 27.5194 24.7771 27.5194Z" fill="black"/>
</svg>
