<svg width="176" height="33" viewBox="0 0 176 33" fill="none" xmlns="http://www.w3.org/2000/svg">
<path d="M62.9698 11.9587H51.6165V15.3277H59.6684C59.2706 20.052 55.3402 22.0667 51.6301 22.0667C46.8835 22.0667 42.7415 18.332 42.7415 13.0974C42.7415 7.99806 46.6899 4.07091 51.6405 4.07091C55.4601 4.07091 57.7108 6.50578 57.7108 6.50578L60.0697 4.06302C60.0697 4.06302 57.042 0.692383 51.52 0.692383C44.4884 0.692285 39.0486 6.62694 39.0486 13.0372C39.0486 19.3185 44.1656 25.4433 51.6992 25.4433C58.325 25.4433 63.1752 20.9044 63.1752 14.1923C63.1752 12.7763 62.9696 11.9579 62.9696 11.9579L62.9698 11.9587Z" fill="#515862"/>
<path d="M72.2701 9.51904C67.6115 9.51904 64.2729 13.1612 64.2729 17.4088C64.2729 21.7193 67.5112 25.4291 72.3249 25.4291C76.6825 25.4291 80.2525 22.0985 80.2525 17.5015C80.2525 12.2326 76.0998 9.51904 72.2701 9.51904ZM72.3164 12.6438C74.6074 12.6438 76.7783 14.496 76.7783 17.4804C76.7783 20.4016 74.6166 22.3065 72.3059 22.3065C69.767 22.3065 67.7641 20.2731 67.7641 17.4572C67.7641 14.7018 69.7422 12.6438 72.3164 12.6438Z" fill="#515862"/>
<path d="M89.6627 9.51904C85.0041 9.51904 81.6655 13.1612 81.6655 17.4088C81.6655 21.7193 84.9038 25.4291 89.7175 25.4291C94.0751 25.4291 97.6451 22.0985 97.6451 17.5015C97.6451 12.2326 93.4924 9.51904 89.6627 9.51904ZM89.709 12.6438C92 12.6438 94.1709 14.496 94.1709 17.4804C94.1709 20.4016 92.0092 22.3065 89.6985 22.3065C87.1596 22.3065 85.1567 20.2731 85.1567 17.4572C85.1567 14.7018 87.1348 12.6438 89.709 12.6438Z" fill="#515862"/>
<path d="M106.723 9.52734C102.447 9.52734 99.0854 13.2725 99.0854 17.476C99.0854 22.2642 102.982 25.4395 106.649 25.4395C108.916 25.4395 110.122 24.5395 111.012 23.5065V25.0751C111.012 27.8197 109.345 29.4633 106.83 29.4633C104.4 29.4633 103.181 27.6565 102.758 26.6312L99.7004 27.9093C100.785 30.2027 102.968 32.5943 106.855 32.5943C111.107 32.5943 114.347 29.9164 114.347 24.3003V10.0057H111.012V11.3532C109.986 10.2481 108.584 9.52754 106.723 9.52754V9.52734ZM107.032 12.6457C109.128 12.6457 111.281 14.4358 111.281 17.4929C111.281 20.6002 109.133 22.3126 106.986 22.3126C104.706 22.3126 102.585 20.4617 102.585 17.5224C102.585 14.4683 104.788 12.6457 107.032 12.6457Z" fill="#515862"/>
<path d="M129.177 9.5083C125.143 9.5083 121.757 12.7174 121.757 17.4528C121.757 22.4634 125.532 25.4351 129.564 25.4351C132.93 25.4351 134.996 23.5938 136.229 21.944L133.479 20.1143C132.765 21.2217 131.572 22.3041 129.581 22.3041C127.345 22.3041 126.316 21.0794 125.679 19.8932L136.346 15.4672L135.792 14.1701C134.762 11.63 132.358 9.50879 129.177 9.50879V9.5083ZM129.316 12.5677C130.769 12.5677 131.815 13.3405 132.259 14.267L125.136 17.2443C124.829 14.9393 127.013 12.5677 129.316 12.5677Z" fill="#515862"/>
<path d="M116.671 24.9629H120.175V1.51514H116.671V24.9629Z" fill="#515862"/>
</svg>
