<svg width="80" height="81" viewBox="0 0 80 81" fill="none" xmlns="http://www.w3.org/2000/svg">
<g clip-path="url(#clip0_117_4710)">
<path d="M40 80.6436C62.0914 80.6436 80 62.735 80 40.6436C80 18.5522 62.0914 0.643555 40 0.643555C17.9086 0.643555 0 18.5522 0 40.6436C0 62.735 17.9086 80.6436 40 80.6436Z" fill="white"/>
<path d="M25 38.6436H23C21.3431 38.6436 20 39.9867 20 41.6436V59.6436C20 61.3004 21.3431 62.6436 23 62.6436H25C26.6569 62.6436 28 61.3004 28 59.6436V41.6436C28 39.9867 26.6569 38.6436 25 38.6436Z" fill="#0182FF"/>
<path d="M41 30.6436H39C37.3431 30.6436 36 31.9867 36 33.6436V59.6436C36 61.3004 37.3431 62.6436 39 62.6436H41C42.6569 62.6436 44 61.3004 44 59.6436V33.6436C44 31.9867 42.6569 30.6436 41 30.6436Z" fill="#0958D6"/>
<path d="M57 18.6436H55C53.3431 18.6436 52 19.9867 52 21.6436V59.6436C52 61.3004 53.3431 62.6436 55 62.6436H57C58.6569 62.6436 60 61.3004 60 59.6436V21.6436C60 19.9867 58.6569 18.6436 57 18.6436Z" fill="#0182FF"/>
</g>
<defs>
<clipPath id="clip0_117_4710">
<rect width="80" height="80" fill="white" transform="translate(0 0.643555)"/>
</clipPath>
</defs>
</svg>
