<svg width="56" height="57" viewBox="0 0 56 57" fill="none" xmlns="http://www.w3.org/2000/svg">
<rect y="0.643555" width="56" height="56" rx="15" fill="white"/>
<path d="M37.95 19.6946C36.627 18.3726 34.87 17.6436 33 17.6436C31.13 17.6436 29.373 18.3726 28.051 19.6936C28.034 19.7106 28.017 19.7276 28 19.7456C27.983 19.7276 27.967 19.7116 27.95 19.6946C26.627 18.3726 24.87 17.6436 23 17.6436C21.13 17.6436 19.373 18.3726 18.05 19.6946C16.727 21.0166 16 22.7736 16 24.6436C16 26.5136 16.728 28.2706 18.05 29.5926L28 39.5426L37.95 29.5926C39.272 28.2706 40 26.5136 40 24.6436C40 22.7746 39.272 21.0166 37.95 19.6946Z" fill="#FF495C"/>
</svg>
