<svg width="120" height="23" viewBox="0 0 120 23" fill="none" xmlns="http://www.w3.org/2000/svg">
<g style="mix-blend-mode:luminosity" opacity="0.38">
<path d="M44.2165 5.98785C43.5885 6.15532 43.1699 6.38139 42.7763 6.77493C41.9976 7.54526 41.9725 8.93522 42.7177 9.73901L42.9186 9.9484L42.4497 10.2749C41.6459 10.8359 41.244 11.5979 41.244 12.5859C41.244 13.306 41.4701 13.9424 41.9139 14.4448C42.3325 14.9221 42.7847 15.1816 43.5885 15.4328C44.7691 15.8013 46.5945 15.6505 47.4067 15.1314C47.5658 15.0309 47.6076 15.0393 47.7835 15.2235C47.9677 15.4161 48.0012 15.4244 49.2655 15.4244H50.555L50.1866 15.0142C49.9856 14.7881 49.6088 14.3611 49.3325 14.0512L48.8469 13.4986L48.9976 13.1469C49.1065 12.8706 49.1567 12.4854 49.1818 11.5058L49.2153 10.2331H48.2022H47.189V10.9029C47.189 11.2713 47.1639 11.5728 47.1303 11.5644C47.055 11.5561 45.3134 9.61342 44.8696 9.05242C44.3756 8.43286 44.5765 7.76297 45.2464 7.76297C45.7153 7.76297 45.933 7.98067 45.933 8.44956V8.80963H47.0718H48.2189L48.1603 8.21515C48.0263 6.75819 47.1052 5.98785 45.3888 5.91249C44.9282 5.89575 44.4677 5.92087 44.2165 5.98785ZM45.0119 12.1254C45.3552 12.5189 45.7655 12.9879 45.9162 13.172L46.201 13.4986L45.8995 13.6242C44.9282 14.0345 43.6722 13.3981 43.6722 12.5022C43.6722 12.1003 44.116 11.3802 44.3337 11.4137C44.3588 11.4137 44.6686 11.7402 45.0119 12.1254Z" fill="#6E6E6E"/>
<path d="M84.9102 6.01276C84.0477 6.20534 83.3611 6.57376 82.8334 7.12638C81.9293 8.07254 81.7282 8.73403 81.7282 10.7771C81.7282 12.435 81.812 12.9039 82.2811 13.7161C83.0175 15.0139 84.6927 15.7675 86.5432 15.6419C88.7366 15.4829 90.0348 14.4948 90.5202 12.6192C90.6709 12.0247 90.6961 9.72206 90.5536 9.04385C90.2523 7.59526 89.2643 6.54027 87.7991 6.09649C87.1377 5.88716 85.6384 5.84529 84.9102 6.01276ZM86.9618 8.49124C87.2298 8.62522 87.3968 8.79267 87.5475 9.06063C87.7486 9.42063 87.7568 9.50435 87.7568 10.7771C87.7568 12.0499 87.7486 12.1336 87.5475 12.4936C86.9114 13.6407 85.0527 13.4398 84.7091 12.1838C84.5666 11.673 84.5918 9.61324 84.7425 9.24478C85.1114 8.37397 86.0741 8.04744 86.9618 8.49124Z" fill="#6E6E6E"/>
<path d="M95.1252 5.97099C93.7357 6.20544 92.6891 6.94228 92.1532 8.07268C91.8014 8.80952 91.7093 9.53797 91.7598 11.1456C91.785 12.2844 91.8266 12.6277 91.9773 13.0296C92.6052 14.7796 93.928 15.6085 96.0886 15.6253C97.0848 15.6337 97.663 15.5164 98.383 15.1564C99.4964 14.5954 100.351 13.2724 100.359 12.0918V11.8238L99.0021 11.8406L97.6459 11.8657L97.5873 12.1504C97.4618 12.7701 96.9593 13.1803 96.2809 13.2306C95.6196 13.2724 95.1252 13.0212 94.858 12.5021C94.682 12.1588 94.665 12.0248 94.665 10.7856C94.665 9.54636 94.682 9.39561 94.858 9.0607C95.1252 8.51647 95.5527 8.29038 96.2311 8.33225C96.9593 8.36572 97.4536 8.75927 97.5873 9.404L97.6459 9.68872L99.0021 9.71381L100.359 9.73059V9.46263C100.351 8.27361 99.4548 6.89205 98.3496 6.35617C97.4871 5.9375 96.2311 5.78679 95.1252 5.97099Z" fill="#6E6E6E"/>
<path d="M111.37 5.97942C111.102 6.13013 111.001 6.31435 110.993 6.6409C110.993 7.29398 111.864 7.61219 112.299 7.10983C112.576 6.78325 112.559 6.43157 112.257 6.12176C111.998 5.86219 111.671 5.81196 111.37 5.97942ZM112.115 6.13851C112.274 6.26411 112.333 6.38133 112.333 6.60741C112.333 7.00933 112.132 7.21864 111.747 7.21864C110.909 7.21864 110.918 6.00454 111.755 5.97105C111.83 5.96267 111.989 6.03803 112.115 6.13851Z" fill="#6E6E6E"/>
<path d="M111.495 6.58216C111.495 6.74963 111.537 6.8836 111.579 6.8836C111.629 6.8836 111.663 6.84173 111.663 6.78312C111.663 6.70776 111.688 6.70776 111.763 6.78312C111.922 6.94221 111.972 6.90034 111.964 6.60728C111.956 6.3812 111.922 6.33934 111.73 6.31422C111.512 6.28909 111.495 6.30585 111.495 6.58216ZM111.788 6.45656C111.813 6.49842 111.796 6.55704 111.747 6.59053C111.704 6.61565 111.663 6.58216 111.663 6.51518C111.663 6.36445 111.713 6.33934 111.788 6.45656Z" fill="#6E6E6E"/>
<path d="M31.5311 10.7354V15.4244H32.9964H34.4617V13.7497V12.0751H35.6759H36.89V13.7497V15.4244H38.3553H39.8206V10.7354V6.04639H38.3553H36.89V7.72101V9.39569H35.6759H34.4617V7.72101V6.04639H32.9964H31.5311V10.7354Z" fill="#6E6E6E"/>
<path d="M51.3757 10.7354V15.4244H52.841H54.3063V14.2019V12.9878L54.7418 13.0129L55.1772 13.038L55.8638 14.2103L56.5503 15.3825L58.2334 15.4076C59.1544 15.416 59.9164 15.4076 59.9164 15.3909C59.9164 15.3658 59.5229 14.721 59.0372 13.9591L58.158 12.5775L58.6855 12.05C58.9786 11.7653 59.2884 11.3633 59.3889 11.154C60.0504 9.70551 59.7657 7.95548 58.7023 6.97581C57.8231 6.18036 57.1533 6.04639 53.7872 6.04639H51.3757V10.7354ZM56.4918 8.70071C56.9774 9.18637 56.9188 10.1158 56.3746 10.5009C56.1652 10.6517 55.9726 10.6851 55.2106 10.7186L54.3063 10.7605V9.56314V8.37412L55.2693 8.40767C56.2238 8.43276 56.2322 8.43276 56.4918 8.70071Z" fill="#6E6E6E"/>
<path d="M64.6889 10.7353V15.4326L67.7701 15.4076L70.843 15.3824L71.3625 15.1396C72.0491 14.8298 72.585 14.252 72.7609 13.6575C72.9198 13.13 72.928 12.5104 72.7943 12.0415C72.66 11.5894 71.9652 10.8944 71.4961 10.7436L71.1443 10.6264L71.5214 10.2915C72.1159 9.7724 72.2666 9.41233 72.2666 8.51642C72.2666 7.83815 72.2414 7.72094 72.0157 7.31901C71.7559 6.84174 71.3039 6.47332 70.7005 6.23887C70.3991 6.12165 69.8884 6.09653 67.519 6.06304L64.6889 6.02954V10.7353ZM69.3361 8.43262C69.495 8.58337 69.5455 8.72574 69.5455 8.97692C69.5455 9.2281 69.495 9.37046 69.3361 9.52115C69.152 9.71376 69.0764 9.73053 68.2895 9.73053H67.452V8.97692V8.22331H68.2895C69.0764 8.22331 69.152 8.24008 69.3361 8.43262ZM69.9218 11.9494C70.0814 12.1001 70.1311 12.2425 70.1311 12.5355C70.1311 12.8286 70.0814 12.9709 69.9218 13.1216C69.7295 13.3226 69.6791 13.331 68.582 13.331H67.452V12.5355V11.7401H68.582C69.6791 11.7401 69.7295 11.7484 69.9218 11.9494Z" fill="#6E6E6E"/>
<path d="M74.1505 10.7354V15.4244H77.5418H80.9332V14.2521V13.0799H79.007H77.0816V9.56314V6.04639H75.6164H74.1505V10.7354Z" fill="#6E6E6E"/>
<path d="M102.033 10.7354V15.4244H103.499H104.964V13.4985C104.964 11.715 104.972 11.5727 105.115 11.5727C105.215 11.5811 105.508 12.1002 106.195 13.4985L107.133 15.4244H108.858C109.803 15.4244 110.574 15.4076 110.574 15.3825C110.574 15.3658 109.971 14.2103 109.234 12.8287L107.894 10.3084L109.109 8.22344C109.779 7.07628 110.323 6.11338 110.323 6.08826C110.323 6.06313 109.594 6.04639 108.715 6.04639H107.099L106.136 7.69592C105.609 8.60021 105.123 9.35383 105.073 9.37892C104.989 9.40408 104.964 9.03562 104.964 7.72939V6.04639H103.499H102.033V10.7354Z" fill="#6E6E6E"/>
<path d="M26.256 1.6084H7.5V20.3644H26.256V1.6084Z" fill="#02AD4E"/>
</g>
</svg>
