<svg width="120" height="33" viewBox="0 0 120 33" fill="none" xmlns="http://www.w3.org/2000/svg">
<g style="mix-blend-mode:luminosity" opacity="0.38" clip-path="url(#clip0_117_3417)">
<path d="M32.3077 16.1538C32.3077 25.0749 25.0749 32.3077 16.1538 32.3077C7.23282 32.3077 0 25.0749 0 16.1538C0 7.23282 7.23282 0 16.1538 0C25.0768 0 32.3077 7.23282 32.3077 16.1538Z" fill="#2081E2"/>
<path d="M7.96986 16.6968L8.03955 16.5872L12.2418 10.0133C12.3032 9.91708 12.4476 9.92702 12.4941 10.0316C13.1961 11.6049 13.8018 13.5617 13.5181 14.7799C13.397 15.2811 13.065 15.9598 12.6916 16.5872C12.6435 16.6786 12.5903 16.7681 12.5339 16.8544C12.5073 16.8942 12.4626 16.9175 12.4143 16.9175H8.09266C7.97648 16.9175 7.90844 16.7914 7.96986 16.6968Z" fill="white"/>
<path d="M26.7004 17.9181V18.9586C26.7004 19.0184 26.6639 19.0715 26.6107 19.0947C26.2854 19.2342 25.1719 19.7453 24.7088 20.3893C23.5272 22.034 22.6243 24.3858 20.6061 24.3858H12.1867C9.20262 24.3858 6.78448 21.9593 6.78448 18.9652V18.869C6.78448 18.7894 6.8492 18.7246 6.92887 18.7246H11.6224C11.7154 18.7246 11.7833 18.811 11.7751 18.9022C11.7419 19.2075 11.7983 19.5196 11.9427 19.8034C12.2215 20.3693 12.799 20.7229 13.423 20.7229H15.7467V18.9089H13.4497C13.3318 18.9089 13.2622 18.7728 13.3302 18.6765C13.3551 18.6383 13.3834 18.5985 13.4131 18.5538C13.6306 18.245 13.9409 17.7653 14.2497 17.2193C14.4604 16.8509 14.6646 16.4576 14.8289 16.0626C14.862 15.9912 14.8885 15.9181 14.9151 15.8467C14.96 15.7206 15.0065 15.6028 15.0396 15.485C15.0728 15.3854 15.0994 15.2809 15.1259 15.1829C15.2039 14.8476 15.2371 14.4924 15.2371 14.124C15.2371 13.9797 15.2305 13.8286 15.2172 13.6843C15.2106 13.5266 15.1906 13.3689 15.1708 13.2112C15.1574 13.0718 15.1326 12.9341 15.106 12.7897C15.0728 12.5789 15.0263 12.3698 14.9732 12.159L14.955 12.0794C14.9151 11.9349 14.882 11.7972 14.8355 11.6528C14.7044 11.1997 14.5534 10.7583 14.394 10.345C14.336 10.1807 14.2695 10.023 14.2032 9.86539C14.1052 9.62807 14.0056 9.41231 13.9144 9.20816C13.868 9.1152 13.828 9.03056 13.7882 8.94427C13.7435 8.84635 13.697 8.74842 13.6505 8.6555C13.6174 8.58413 13.5792 8.51774 13.5525 8.45135L13.2688 7.9269C13.229 7.85553 13.2953 7.77088 13.3733 7.79247L15.1492 8.27375H15.1542C15.1574 8.27375 15.1591 8.27543 15.1607 8.27543L15.3947 8.34014L15.652 8.41319L15.7467 8.43972V7.38419C15.7467 6.87466 16.1549 6.46143 16.6595 6.46143C16.9117 6.46143 17.1407 6.56433 17.305 6.73193C17.4694 6.89958 17.5723 7.1286 17.5723 7.38419V8.95092L17.7615 9.00401C17.7764 9.00901 17.7913 9.01564 17.8047 9.02558C17.851 9.06044 17.9175 9.11188 18.0021 9.17497C18.0685 9.22806 18.1399 9.2928 18.2262 9.35919C18.397 9.49692 18.6013 9.67452 18.8254 9.87867C18.885 9.93011 18.9432 9.98322 18.9962 10.0363C19.285 10.3052 19.6087 10.6205 19.9174 10.9691C20.0037 11.067 20.0884 11.1666 20.1745 11.2711C20.2609 11.3773 20.3522 11.4819 20.4319 11.5865C20.5364 11.7259 20.6492 11.8702 20.7472 12.0213C20.7937 12.0927 20.8468 12.1657 20.8915 12.237C21.0177 12.4279 21.1289 12.6254 21.2352 12.8229C21.2799 12.9142 21.3264 13.0138 21.3662 13.1116C21.484 13.3755 21.577 13.6444 21.6367 13.9133C21.655 13.9714 21.6683 14.0345 21.6749 14.0909V14.1042C21.6949 14.1838 21.7015 14.2685 21.7081 14.3548C21.7347 14.6302 21.7214 14.9058 21.6616 15.1829C21.6367 15.3007 21.6036 15.412 21.5638 15.5298C21.5239 15.6426 21.484 15.7605 21.4326 15.8716C21.333 16.1024 21.2152 16.3331 21.0758 16.5488C21.0309 16.6285 20.9779 16.7131 20.9248 16.7928C20.8666 16.8774 20.807 16.9571 20.7538 17.0351C20.6809 17.1346 20.6029 17.2392 20.5231 17.3322C20.4518 17.4301 20.3788 17.528 20.299 17.6143C20.1879 17.7455 20.0817 17.8699 19.9704 17.9894C19.9041 18.0674 19.8328 18.147 19.7596 18.2185C19.6883 18.2981 19.6153 18.3695 19.5489 18.4358C19.4377 18.5471 19.3448 18.6334 19.2668 18.7047L19.0842 18.8723C19.0576 18.8956 19.0228 18.9089 18.9863 18.9089H17.5723V20.7229H19.3514C19.7497 20.7229 20.1282 20.5818 20.4335 20.3228C20.5381 20.2316 20.9945 19.8366 21.5339 19.2408C21.5521 19.2209 21.5753 19.2059 21.602 19.1993L26.5162 17.7786C26.6075 17.7521 26.7004 17.8218 26.7004 17.9181Z" fill="white"/>
<path d="M45.184 22.6641C44.0113 22.6641 42.9332 22.3915 41.95 21.8467C40.9786 21.3017 40.2028 20.5435 39.6223 19.5722C39.0537 18.5889 38.7693 17.4872 38.7693 16.2671C38.7693 15.0469 39.0537 13.9511 39.6223 12.9798C40.2028 12.0084 40.9786 11.2502 41.95 10.7053C42.9332 10.1604 44.0113 9.88794 45.184 9.88794C46.3568 9.88794 47.4288 10.1604 48.4003 10.7053C49.3835 11.2502 50.1535 12.0084 50.7103 12.9798C51.2789 13.9511 51.5632 15.0469 51.5632 16.2671C51.5632 17.4872 51.2789 18.5889 50.7103 19.5722C50.1417 20.5435 49.3717 21.3017 48.4003 21.8467C47.4288 22.3915 46.3568 22.6641 45.184 22.6641ZM45.184 19.8921C46.1791 19.8921 46.9728 19.5603 47.5651 18.897C48.1693 18.2335 48.4713 17.3569 48.4713 16.2671C48.4713 15.1654 48.1693 14.2888 47.5651 13.6373C46.9728 12.9738 46.1791 12.6422 45.184 12.6422C44.1771 12.6422 43.3716 12.9679 42.7674 13.6195C42.1752 14.271 41.879 15.1536 41.879 16.2671C41.879 17.3688 42.1752 18.2513 42.7674 18.9148C43.3716 19.5662 44.1771 19.8921 45.184 19.8921Z" fill="black"/>
<path d="M56.2921 14.0281C56.5883 13.5661 56.997 13.1929 57.5182 12.9086C58.0395 12.6243 58.6495 12.4822 59.3484 12.4822C60.1658 12.4822 60.9062 12.6894 61.5696 13.1041C62.233 13.5187 62.7542 14.1109 63.1333 14.881C63.5242 15.651 63.7197 16.5453 63.7197 17.5642C63.7197 18.5829 63.5242 19.4833 63.1333 20.2651C62.7542 21.0351 62.233 21.6333 61.5696 22.0598C60.9062 22.4744 60.1658 22.6817 59.3484 22.6817C58.6614 22.6817 58.0513 22.5396 57.5182 22.2553C56.997 21.9709 56.5883 21.6037 56.2921 21.1536V27.2662H53.2536V12.6243H56.2921V14.0281ZM60.6278 17.5642C60.6278 16.806 60.4146 16.2137 59.9881 15.7873C59.5735 15.3489 59.0582 15.1298 58.4422 15.1298C57.838 15.1298 57.3227 15.3489 56.8963 15.7873C56.4817 16.2255 56.2743 16.8238 56.2743 17.5819C56.2743 18.34 56.4817 18.9383 56.8963 19.3766C57.3227 19.8149 57.838 20.0341 58.4422 20.0341C59.0463 20.0341 59.5616 19.8149 59.9881 19.3766C60.4146 18.9264 60.6278 18.3223 60.6278 17.5642Z" fill="black"/>
<path d="M74.6604 17.422C74.6604 17.7063 74.6427 18.0024 74.6071 18.3105H67.7304C67.7778 18.9264 67.9733 19.4003 68.3168 19.732C68.6722 20.0519 69.1045 20.2118 69.614 20.2118C70.3722 20.2118 70.8992 19.8919 71.1954 19.2523H74.4294C74.2636 19.9037 73.9615 20.4901 73.5232 21.0114C73.0967 21.5326 72.5578 21.9413 71.9062 22.2375C71.2546 22.5336 70.5261 22.6817 69.7206 22.6817C68.7492 22.6817 67.8845 22.4744 67.1263 22.0598C66.3681 21.6451 65.7758 21.0528 65.3493 20.2829C64.9229 19.5128 64.7097 18.6126 64.7097 17.5819C64.7097 16.5513 64.917 15.651 65.3316 14.881C65.758 14.1109 66.3503 13.5187 67.1085 13.1041C67.8667 12.6894 68.7374 12.4822 69.7206 12.4822C70.6801 12.4822 71.533 12.6835 72.2794 13.0863C73.0257 13.489 73.6062 14.0636 74.0207 14.8099C74.4472 15.5563 74.6604 16.4269 74.6604 17.422ZM71.5508 16.6224C71.5508 16.1011 71.3731 15.6865 71.0177 15.3786C70.6623 15.0705 70.2181 14.9166 69.685 14.9166C69.1756 14.9166 68.7433 15.0646 68.3879 15.3608C68.0444 15.6569 67.8312 16.0774 67.7482 16.6224H71.5508Z" fill="black"/>
<path d="M82.3049 12.5178C83.4659 12.5178 84.3899 12.8969 85.0769 13.6551C85.7759 14.4014 86.1253 15.432 86.1253 16.7469V22.5397H83.1045V17.1556C83.1045 16.4921 82.9328 15.9768 82.5892 15.6097C82.2457 15.2424 81.7837 15.0588 81.2032 15.0588C80.6228 15.0588 80.1608 15.2424 79.8172 15.6097C79.4737 15.9768 79.3019 16.4921 79.3019 17.1556V22.5397H76.2634V12.6244H79.3019V13.9394C79.61 13.501 80.0245 13.1575 80.5457 12.9087C81.067 12.6481 81.6534 12.5178 82.3049 12.5178Z" fill="black"/>
<path d="M92.7502 22.6641C91.8381 22.6641 91.0207 22.5159 90.298 22.2198C89.5754 21.9236 88.995 21.4853 88.5567 20.9049C88.1302 20.3244 87.9051 19.6255 87.8814 18.8081H91.1154C91.1628 19.2701 91.3228 19.6255 91.5952 19.8743C91.8676 20.1112 92.223 20.2297 92.6613 20.2297C93.1115 20.2297 93.4668 20.1289 93.7275 19.9276C93.9882 19.7144 94.1184 19.4241 94.1184 19.0569C94.1184 18.7488 94.0118 18.4942 93.7986 18.2928C93.5972 18.0914 93.3425 17.9256 93.0345 17.7953C92.7383 17.6649 92.3118 17.5169 91.7551 17.3511C90.9496 17.1023 90.2922 16.8535 89.7827 16.6048C89.2733 16.356 88.8351 15.9887 88.4678 15.5031C88.1005 15.0173 87.917 14.3836 87.917 13.6018C87.917 12.4408 88.3375 11.5345 89.1786 10.883C90.0196 10.2196 91.1154 9.88794 92.4659 9.88794C93.84 9.88794 94.9477 10.2196 95.7887 10.883C96.6298 11.5345 97.08 12.4468 97.1392 13.6195H93.8519C93.8282 13.2167 93.6801 12.9028 93.4077 12.6778C93.1352 12.4408 92.7857 12.3224 92.3593 12.3224C91.992 12.3224 91.6959 12.423 91.4708 12.6244C91.2457 12.8139 91.1332 13.0923 91.1332 13.4596C91.1332 13.8623 91.3228 14.1763 91.7018 14.4014C92.0808 14.6264 92.6732 14.8693 93.4787 15.1299C94.2842 15.4023 94.9358 15.663 95.4333 15.9118C95.9428 16.1605 96.381 16.5218 96.7483 16.9957C97.1155 17.4694 97.2991 18.0796 97.2991 18.8259C97.2991 19.5367 97.1155 20.1823 96.7483 20.7628C96.3929 21.3431 95.8717 21.8051 95.1846 22.1488C94.4975 22.4923 93.6861 22.6641 92.7502 22.6641Z" fill="black"/>
<path d="M108.516 17.422C108.516 17.7063 108.498 18.0024 108.462 18.3105H101.586C101.633 18.9264 101.829 19.4003 102.172 19.732C102.527 20.0519 102.96 20.2118 103.469 20.2118C104.227 20.2118 104.754 19.8919 105.051 19.2523H108.285C108.119 19.9037 107.817 20.4901 107.378 21.0114C106.952 21.5326 106.413 21.9413 105.761 22.2375C105.11 22.5336 104.381 22.6817 103.576 22.6817C102.604 22.6817 101.74 22.4744 100.982 22.0598C100.223 21.6451 99.631 21.0528 99.2046 20.2829C98.7781 19.5128 98.5649 18.6126 98.5649 17.5819C98.5649 16.5513 98.7722 15.651 99.1868 14.881C99.6133 14.1109 100.206 13.5187 100.964 13.1041C101.722 12.6894 102.593 12.4822 103.576 12.4822C104.535 12.4822 105.388 12.6835 106.135 13.0863C106.881 13.489 107.461 14.0636 107.876 14.8099C108.302 15.5563 108.516 16.4269 108.516 17.422ZM105.406 16.6224C105.406 16.1011 105.228 15.6865 104.873 15.3786C104.518 15.0705 104.073 14.9166 103.54 14.9166C103.031 14.9166 102.599 15.0646 102.243 15.3608C101.9 15.6569 101.686 16.0774 101.603 16.6224H105.406Z" fill="black"/>
<path d="M109.515 17.5642C109.515 16.5453 109.704 15.651 110.083 14.881C110.474 14.1109 111.001 13.5187 111.665 13.1041C112.328 12.6894 113.068 12.4822 113.886 12.4822C114.585 12.4822 115.195 12.6243 115.716 12.9086C116.249 13.1929 116.657 13.5661 116.942 14.0281V12.6243H119.98V22.5396H116.942V21.1358C116.646 21.5978 116.232 21.9709 115.698 22.2553C115.177 22.5396 114.567 22.6817 113.868 22.6817C113.062 22.6817 112.328 22.4744 111.665 22.0598C111.001 21.6333 110.474 21.0351 110.083 20.2651C109.704 19.4833 109.515 18.5829 109.515 17.5642ZM116.942 17.5819C116.942 16.8238 116.729 16.2255 116.302 15.7873C115.888 15.3489 115.378 15.1298 114.774 15.1298C114.17 15.1298 113.655 15.3489 113.228 15.7873C112.814 16.2137 112.606 16.806 112.606 17.5642C112.606 18.3223 112.814 18.9264 113.228 19.3766C113.655 19.8149 114.17 20.0341 114.774 20.0341C115.378 20.0341 115.888 19.8149 116.302 19.3766C116.729 18.9383 116.942 18.34 116.942 17.5819Z" fill="black"/>
</g>
<defs>
<clipPath id="clip0_117_3417">
<rect width="120" height="32.3077" fill="white"/>
</clipPath>
</defs>
</svg>
