<svg width="50" height="50" viewBox="0 0 50 50" fill="none" xmlns="http://www.w3.org/2000/svg">
<rect width="50" height="50" rx="8" fill="#C3B6EE" fill-opacity="0.24"/>
<path d="M31.5 33C31.5 33.275 31.276 33.5 31 33.5H25.2678C24.9806 34.051 24.6168 34.5557 24.1904 35H31C32.104 35 33 34.104 33 33V22.828C33 22.298 32.789 21.789 32.414 21.414L26.585 15.586C26.57 15.571 26.5531 15.5581 26.5363 15.5452C26.5238 15.5357 26.5115 15.5262 26.5 15.516C26.429 15.452 26.359 15.389 26.281 15.336C26.2557 15.3189 26.2281 15.3055 26.2005 15.2921C26.1845 15.2843 26.1685 15.2765 26.153 15.268C26.1363 15.2586 26.1197 15.249 26.103 15.2393C26.0488 15.208 25.9944 15.1765 25.937 15.152C25.74 15.07 25.528 15.029 25.313 15.014C25.2933 15.0127 25.2738 15.0101 25.2542 15.0074C25.2271 15.0037 25.1999 15 25.172 15H19C17.896 15 17 15.896 17 17V24.4982C17.4742 24.3004 17.9768 24.1572 18.5 24.0764V17C18.5 16.725 18.724 16.5 19 16.5H25V21C25 22.104 25.896 23 27 23H31.5V33ZM26.5 17.621L30.378 21.5H27C26.724 21.5 26.5 21.275 26.5 21V17.621Z" fill="#212121"/>
<path d="M25 30.5C25 33.5376 22.5376 36 19.5 36C16.4624 36 14 33.5376 14 30.5C14 27.4624 16.4624 25 19.5 25C22.5376 25 25 27.4624 25 30.5ZM22.8536 28.1464C22.6583 27.9512 22.3417 27.9512 22.1464 28.1464L18.5 31.7929L16.8536 30.1464C16.6583 29.9512 16.3417 29.9512 16.1464 30.1464C15.9512 30.3417 15.9512 30.6583 16.1464 30.8536L18.1464 32.8536C18.3417 33.0488 18.6583 33.0488 18.8536 32.8536L22.8536 28.8536C23.0488 28.6583 23.0488 28.3417 22.8536 28.1464Z" fill="#212121"/>
</svg>
