<svg width="600" height="600" viewBox="0 0 600 600" fill="none" xmlns="http://www.w3.org/2000/svg">
<g filter="url(#filter0_b_117_4329)">
<rect width="600" height="600" rx="20" fill="white" fill-opacity="0.98"/>
<rect x="24" y="213" width="551" height="309" rx="12" fill="white"/>
<path d="M59.9 262V250.38H64.44V247.64H52.34V250.38H56.86V262H59.9ZM71.643 262H73.903V255.28C73.903 252.66 72.263 251.12 69.463 251.12C66.883 251.12 65.103 252.72 64.943 255.18H67.443C67.543 253.98 68.263 253.28 69.463 253.28C70.623 253.28 71.303 253.98 71.303 255.18V255.82C70.643 255.74 70.123 255.7 69.523 255.7C66.403 255.7 64.723 256.82 64.723 258.9C64.723 260.9 66.203 262.2 68.423 262.2C69.883 262.2 70.943 261.68 71.643 260.68V262ZM67.343 258.82C67.343 257.86 68.123 257.36 69.703 257.36C70.183 257.36 70.643 257.4 71.303 257.5V258.26C71.303 259.5 70.443 260.28 69.023 260.28C67.983 260.28 67.343 259.72 67.343 258.82ZM78.8986 262L81.2386 258.16L83.6386 262H86.7986L83.2186 256.66L86.5386 251.32H83.6186L81.4186 255L79.2386 251.32H76.0386L79.3986 256.56L75.7986 262H78.8986ZM95.1234 262H97.3834V255.28C97.3834 252.66 95.7434 251.12 92.9434 251.12C90.3634 251.12 88.5834 252.72 88.4234 255.18H90.9234C91.0234 253.98 91.7434 253.28 92.9434 253.28C94.1034 253.28 94.7834 253.98 94.7834 255.18V255.82C94.1234 255.74 93.6034 255.7 93.0034 255.7C89.8834 255.7 88.2034 256.82 88.2034 258.9C88.2034 260.9 89.6834 262.2 91.9034 262.2C93.3634 262.2 94.4234 261.68 95.1234 260.68V262ZM90.8234 258.82C90.8234 257.86 91.6034 257.36 93.1834 257.36C93.6634 257.36 94.1234 257.4 94.7834 257.5V258.26C94.7834 259.5 93.9234 260.28 92.5034 260.28C91.4634 260.28 90.8234 259.72 90.8234 258.82ZM110.939 256.66C110.939 253.5 109.079 251.12 106.199 251.12C104.919 251.12 103.839 251.66 103.059 252.7V247.64H100.279V262H102.839V260.46C103.659 261.58 104.819 262.2 106.199 262.2C109.079 262.2 110.939 259.78 110.939 256.66ZM108.079 256.66C108.079 258.66 106.939 259.72 105.579 259.72C104.199 259.72 103.079 258.64 103.079 256.62C103.079 254.6 104.239 253.58 105.579 253.58C106.939 253.58 108.079 254.62 108.079 256.66ZM116.02 262V247.64H113.22V262H116.02ZM123.653 262.18C126.253 262.18 128.113 260.8 128.713 258.38H125.953C125.633 259.44 124.813 260.04 123.593 260.04C122.173 260.04 121.333 259.08 121.153 257.34H128.733C129.233 253.86 126.993 251.12 123.613 251.12C120.533 251.12 118.313 253.44 118.313 256.62C118.313 259.96 120.453 262.18 123.653 262.18ZM123.553 253.16C124.873 253.16 125.713 254.1 125.793 255.58H121.193C121.433 254 122.253 253.16 123.553 253.16ZM138.995 248.84C138.995 247.86 138.235 247.16 137.135 247.16C136.055 247.16 135.295 247.86 135.295 248.84C135.295 249.78 136.055 250.48 137.135 250.48C138.235 250.48 138.995 249.78 138.995 248.84ZM138.555 262V251.32H135.775V262H138.555ZM144.309 256.18C144.309 254.46 145.249 253.58 146.349 253.58C147.609 253.58 148.229 254.46 148.229 256.04V262H150.989V255.1C150.989 252.52 149.509 251.12 147.369 251.12C145.969 251.12 144.869 251.78 144.089 252.84V251.32H141.529V262H144.309V256.18ZM158.385 262.2C161.245 262.2 163.245 260.38 163.565 257.44H160.645C160.485 258.9 159.665 259.74 158.385 259.74C156.925 259.74 156.025 258.58 156.025 256.66C156.025 254.76 156.945 253.58 158.385 253.58C159.645 253.58 160.505 254.46 160.645 255.88H163.565C163.225 253 161.165 251.12 158.385 251.12C155.385 251.12 153.185 253.46 153.185 256.66C153.185 259.92 155.305 262.2 158.385 262.2ZM170.53 262.2C173.63 262.2 175.95 259.76 175.95 256.66C175.95 253.54 173.63 251.12 170.53 251.12C167.43 251.12 165.11 253.54 165.11 256.66C165.11 259.76 167.43 262.2 170.53 262.2ZM170.53 259.74C169.15 259.74 167.97 258.64 167.97 256.66C167.97 254.68 169.15 253.6 170.53 253.6C171.91 253.6 173.09 254.68 173.09 256.66C173.09 258.64 171.91 259.74 170.53 259.74ZM181.004 262V256.04C181.004 254.44 181.884 253.58 183.004 253.58C184.224 253.58 184.864 254.48 184.864 255.98V262H187.624V256.04C187.624 254.44 188.524 253.58 189.624 253.58C190.844 253.58 191.484 254.48 191.484 255.98V262H194.244V255.1C194.244 252.54 192.784 251.12 190.624 251.12C189.024 251.12 187.944 251.84 187.104 253.02C186.564 251.8 185.444 251.12 183.984 251.12C182.564 251.12 181.564 251.76 180.784 252.84V251.32H178.224V262H181.004ZM201.763 262.18C204.363 262.18 206.223 260.8 206.823 258.38H204.063C203.743 259.44 202.923 260.04 201.703 260.04C200.283 260.04 199.443 259.08 199.263 257.34H206.843C207.343 253.86 205.103 251.12 201.723 251.12C198.643 251.12 196.423 253.44 196.423 256.62C196.423 259.96 198.563 262.18 201.763 262.18ZM201.663 253.16C202.983 253.16 203.823 254.1 203.903 255.58H199.303C199.543 254 200.363 253.16 201.663 253.16Z" fill="#1D1D1F"/>
<g clip-path="url(#clip0_117_4329)">
<path d="M228 262.833C223.398 262.833 219.667 259.102 219.667 254.5C219.667 249.897 223.398 246.167 228 246.167C232.603 246.167 236.333 249.897 236.333 254.5C236.333 259.102 232.603 262.833 228 262.833ZM228 261.167C229.768 261.167 231.464 260.464 232.714 259.214C233.964 257.964 234.667 256.268 234.667 254.5C234.667 252.732 233.964 251.036 232.714 249.786C231.464 248.536 229.768 247.833 228 247.833C226.232 247.833 224.536 248.536 223.286 249.786C222.036 251.036 221.333 252.732 221.333 254.5C221.333 256.268 222.036 257.964 223.286 259.214C224.536 260.464 226.232 261.167 228 261.167V261.167ZM227.167 250.333H228.833V252H227.167V250.333ZM227.167 253.667H228.833V258.667H227.167V253.667Z" fill="#787F84"/>
</g>
<path d="M56.9536 302.282V301.115C58.9984 300.957 60.2224 299.733 60.2224 298.019C60.2224 296.55 59.2 295.73 57.5008 295.37L56.0608 295.067C55.4128 294.938 54.8224 294.635 54.8224 293.973C54.8224 293.224 55.4416 292.749 56.3632 292.749C57.3568 292.749 58.0336 293.382 58.0912 294.333H60.0928C59.9632 292.576 58.7248 291.395 56.9536 291.165V289.955H55.6432V291.165C53.9584 291.41 52.792 292.576 52.792 294.131C52.792 295.859 53.9872 296.522 55.384 296.838L56.8528 297.141C57.5872 297.299 58.0912 297.659 58.0912 298.278C58.0912 299.07 57.328 299.517 56.3344 299.517C55.1392 299.517 54.4624 298.883 54.4336 297.861H52.432C52.5616 299.632 53.7424 300.842 55.6432 301.086V302.282H56.9536Z" fill="#787F84"/>
<path d="M72.008 310V291.072H64.532V294.432H68.116V310H72.008ZM80.3625 308.488C80.3625 306.108 79.2985 304.876 77.5065 304.876C76.0785 304.876 74.9865 305.856 74.9865 307.312C74.9865 308.572 75.9385 309.608 77.1985 309.608C77.3665 309.608 77.5345 309.608 77.7865 309.524C77.5625 311.036 76.1625 311.988 74.0905 312.016V314.088C77.6185 314.06 80.3625 311.848 80.3625 308.488ZM88.1682 310V291.072H80.6922V294.432H84.2762V310H88.1682ZM105.736 304.512C105.736 302.44 104.364 300.984 102.544 300.172C104.028 299.36 105.092 298.044 105.092 296.224C105.092 293.088 102.404 290.792 98.484 290.792C94.508 290.792 91.82 293.088 91.82 296.224C91.82 298.044 92.884 299.36 94.368 300.172C92.52 300.984 91.176 302.44 91.176 304.512C91.176 307.872 94.06 310.252 98.484 310.252C102.824 310.252 105.736 307.872 105.736 304.512ZM95.824 296.364C95.824 294.824 96.832 293.872 98.484 293.872C100.08 293.872 101.116 294.824 101.116 296.364C101.116 297.792 100.08 298.688 98.484 298.688C96.832 298.688 95.824 297.792 95.824 296.364ZM95.18 304.428C95.18 302.804 96.44 301.768 98.484 301.768C100.472 301.768 101.76 302.804 101.76 304.428C101.76 306.136 100.472 307.172 98.484 307.172C96.44 307.172 95.18 306.136 95.18 304.428ZM114.662 310.252C119.002 310.252 121.914 307.872 121.914 304.372C121.914 302.328 120.57 300.816 118.218 300.06C120.038 299.108 121.046 297.736 121.046 296C121.046 292.948 118.61 290.792 114.634 290.792C110.91 290.792 108.054 293.256 108.026 296.532H111.806C111.834 294.88 112.842 293.872 114.438 293.872C116.062 293.872 117.042 294.796 117.042 296.28C117.042 297.82 115.894 298.772 113.99 298.772H112.17V301.852H114.214C116.538 301.852 117.91 302.832 117.91 304.484C117.91 306.164 116.734 307.172 114.718 307.172C112.786 307.172 111.554 306.136 111.442 304.428H107.662C107.69 307.844 110.574 310.252 114.662 310.252ZM129.28 308.488C129.28 306.108 128.216 304.876 126.424 304.876C124.996 304.876 123.904 305.856 123.904 307.312C123.904 308.572 124.856 309.608 126.116 309.608C126.284 309.608 126.452 309.608 126.704 309.524C126.48 311.036 125.08 311.988 123.008 312.016V314.088C126.536 314.06 129.28 311.848 129.28 308.488ZM138.235 310.28C142.995 310.28 145.403 307.06 145.403 303.812C145.403 300.62 143.247 297.512 138.739 297.512C137.619 297.512 136.527 297.792 135.575 298.408L136.163 294.544H144.283V291.072H133.335L131.683 301.684L134.875 302.72C135.463 301.432 136.583 300.816 138.095 300.816C140.391 300.816 141.371 302.328 141.371 303.812C141.371 305.352 140.503 306.808 138.207 306.808C136.443 306.808 135.155 305.884 134.931 304.232H131.039C131.151 307.76 134.203 310.28 138.235 310.28ZM154.231 310.28C158.991 310.28 161.399 307.06 161.399 303.812C161.399 300.62 159.243 297.512 154.735 297.512C153.615 297.512 152.523 297.792 151.571 298.408L152.159 294.544H160.279V291.072H149.331L147.679 301.684L150.871 302.72C151.459 301.432 152.579 300.816 154.091 300.816C156.387 300.816 157.367 302.328 157.367 303.812C157.367 305.352 156.499 306.808 154.203 306.808C152.439 306.808 151.151 305.884 150.927 304.232H147.035C147.147 307.76 150.199 310.28 154.231 310.28ZM163.479 300.564C163.479 306.808 166.055 310.28 170.787 310.28C175.519 310.28 178.123 306.808 178.123 300.564C178.123 294.292 175.463 290.792 170.787 290.792C166.111 290.792 163.479 294.292 163.479 300.564ZM167.483 300.564C167.483 296.476 168.659 294.264 170.787 294.264C172.943 294.264 174.119 296.476 174.119 300.564C174.119 304.624 172.943 306.808 170.787 306.808C168.603 306.808 167.483 304.624 167.483 300.564Z" fill="#1D1D1F"/>
<path d="M65.152 355H67.024L62.656 343.512H60.72L56.32 355H58.096L59.152 352.152H64.112L65.152 355ZM61.648 345.432L63.584 350.728H59.68L61.648 345.432ZM70.4474 344.552C70.4474 343.928 69.9674 343.48 69.2794 343.48C68.5914 343.48 68.0954 343.928 68.0954 344.552C68.0954 345.16 68.5914 345.624 69.2794 345.624C69.9674 345.624 70.4474 345.16 70.4474 344.552ZM70.0954 355V346.52H68.4794V355H70.0954ZM73.9548 350.664C73.9548 348.792 75.2828 347.992 77.1068 348.088V346.408C75.7148 346.408 74.4348 347.144 73.8428 348.312V346.52H72.3388V355H73.9548V350.664ZM77.7464 350.76C77.7464 353.304 79.2184 355.16 81.5064 355.16C82.7064 355.16 83.7304 354.552 84.3384 353.48V355H85.8424V343.512H84.2264V347.976C83.6344 346.936 82.6424 346.36 81.5064 346.36C79.2184 346.36 77.7464 348.184 77.7464 350.76ZM79.4264 350.76C79.4264 348.84 80.4184 347.784 81.8264 347.784C83.1704 347.784 84.2264 348.824 84.2264 350.728C84.2264 352.6 83.2024 353.72 81.8264 353.72C80.4184 353.72 79.4264 352.648 79.4264 350.76ZM89.7048 350.664C89.7048 348.792 91.0328 347.992 92.8568 348.088V346.408C91.4648 346.408 90.1848 347.144 89.5928 348.312V346.52H88.0888V355H89.7048V350.664ZM97.6564 355.16C100.056 355.16 101.816 353.272 101.816 350.76C101.816 348.248 100.056 346.36 97.6564 346.36C95.2564 346.36 93.4964 348.248 93.4964 350.76C93.4964 353.272 95.2564 355.16 97.6564 355.16ZM97.6564 353.736C96.2644 353.736 95.1764 352.616 95.1764 350.76C95.1764 348.904 96.2644 347.8 97.6564 347.8C99.0484 347.8 100.152 348.904 100.152 350.76C100.152 352.616 99.0484 353.736 97.6564 353.736ZM111.56 350.76C111.56 348.2 110.072 346.36 107.816 346.36C106.616 346.36 105.576 346.984 104.968 348.072V346.52H103.464V358.088H105.08V353.56C105.688 354.584 106.664 355.16 107.816 355.16C110.088 355.16 111.56 353.32 111.56 350.76ZM109.88 350.76C109.88 352.664 108.872 353.72 107.48 353.72C106.12 353.72 105.08 352.632 105.08 350.76C105.08 348.856 106.136 347.784 107.48 347.784C108.872 347.784 109.88 348.856 109.88 350.76ZM119.918 352.472C119.918 351.256 119.118 350.52 117.438 350.216L115.998 349.944C114.974 349.752 114.542 349.432 114.542 348.744C114.542 348.008 115.23 347.576 116.254 347.576C117.39 347.576 118.142 348.168 118.238 349.192H119.79C119.646 347.448 118.27 346.36 116.238 346.36C114.27 346.36 112.974 347.4 112.974 348.888C112.974 350.168 113.854 350.968 115.422 351.272L116.798 351.528C117.854 351.736 118.286 352.04 118.286 352.744C118.286 353.544 117.534 353.944 116.398 353.944C115.102 353.944 114.254 353.288 114.19 352.232H112.638C112.798 354.056 114.126 355.16 116.366 355.16C118.622 355.16 119.918 354.136 119.918 352.472Z" fill="#787F84"/>
<path d="M510.504 356.424V355.128C512.776 354.952 514.136 353.592 514.136 351.688C514.136 350.056 513 349.144 511.112 348.744L509.512 348.408C508.792 348.264 508.136 347.928 508.136 347.192C508.136 346.36 508.824 345.832 509.848 345.832C510.952 345.832 511.704 346.536 511.768 347.592H513.992C513.848 345.64 512.472 344.328 510.504 344.072V342.728H509.048V344.072C507.176 344.344 505.88 345.64 505.88 347.368C505.88 349.288 507.208 350.024 508.76 350.376L510.392 350.712C511.208 350.888 511.768 351.288 511.768 351.976C511.768 352.856 510.92 353.352 509.816 353.352C508.488 353.352 507.736 352.648 507.704 351.512H505.48C505.624 353.48 506.936 354.824 509.048 355.096V356.424H510.504ZM519.358 355.128C521.822 355.128 523.55 353.48 523.55 351.4C523.55 349.352 521.998 347.896 519.79 347.896C519.614 347.896 519.438 347.912 519.262 347.976L522.366 344.184H519.854L516.59 348.12C515.582 349.32 515.182 350.184 515.182 351.544C515.182 353.48 516.894 355.128 519.358 355.128ZM519.374 353.272C518.366 353.272 517.502 352.632 517.502 351.464C517.502 350.2 518.366 349.64 519.374 349.64C520.382 349.64 521.246 350.248 521.246 351.48C521.246 352.632 520.382 353.272 519.374 353.272ZM527.506 353.576C527.506 352.68 526.898 352.056 526.018 352.056C525.138 352.056 524.514 352.68 524.514 353.576C524.514 354.456 525.138 355.08 526.018 355.08C526.898 355.08 527.506 354.456 527.506 353.576ZM536.429 353.016H532.253L533.885 351.256C535.773 349.352 536.253 348.52 536.253 347.208C536.253 345.384 534.669 344.024 532.509 344.024C530.189 344.024 528.557 345.56 528.557 347.72H530.717C530.717 346.664 531.357 346.008 532.397 346.008C533.341 346.008 533.933 346.6 533.933 347.48C533.933 348.424 533.405 349.096 532.157 350.376L528.877 353.736V355H536.429V353.016ZM541.607 355V344.184H537.335V346.104H539.383V355H541.607Z" fill="#1D1D1F"/>
<path d="M59.008 397V392.328H63.456V390.792H59.008V387.048H64.224V385.512H57.248V397H59.008ZM69.1408 397.16C71.5408 397.16 73.3008 395.272 73.3008 392.76C73.3008 390.248 71.5408 388.36 69.1408 388.36C66.7408 388.36 64.9808 390.248 64.9808 392.76C64.9808 395.272 66.7408 397.16 69.1408 397.16ZM69.1408 395.736C67.7488 395.736 66.6608 394.616 66.6608 392.76C66.6608 390.904 67.7488 389.8 69.1408 389.8C70.5328 389.8 71.6368 390.904 71.6368 392.76C71.6368 394.616 70.5328 395.736 69.1408 395.736ZM76.5641 392.664C76.5641 390.792 77.8921 389.992 79.7161 390.088V388.408C78.3241 388.408 77.0441 389.144 76.4521 390.312V388.52H74.9481V397H76.5641V392.664ZM82.611 397V392.984L86.435 397H88.515L84.227 392.632L88.147 388.52H86.243L82.611 392.312V385.512H80.995V397H82.611ZM96.0588 394.472C96.0588 393.256 95.2588 392.52 93.5788 392.216L92.1388 391.944C91.1148 391.752 90.6828 391.432 90.6828 390.744C90.6828 390.008 91.3708 389.576 92.3948 389.576C93.5308 389.576 94.2828 390.168 94.3788 391.192H95.9308C95.7868 389.448 94.4108 388.36 92.3788 388.36C90.4108 388.36 89.1148 389.4 89.1148 390.888C89.1148 392.168 89.9948 392.968 91.5628 393.272L92.9388 393.528C93.9948 393.736 94.4268 394.04 94.4268 394.744C94.4268 395.544 93.6748 395.944 92.5388 395.944C91.2428 395.944 90.3948 395.288 90.3307 394.232H88.7788C88.9388 396.056 90.2668 397.16 92.5068 397.16C94.7628 397.16 96.0588 396.136 96.0588 394.472Z" fill="#787F84"/>
<path d="M488.504 398.424V397.128C490.776 396.952 492.136 395.592 492.136 393.688C492.136 392.056 491 391.144 489.112 390.744L487.512 390.408C486.792 390.264 486.136 389.928 486.136 389.192C486.136 388.36 486.824 387.832 487.848 387.832C488.952 387.832 489.704 388.536 489.768 389.592H491.992C491.848 387.64 490.472 386.328 488.504 386.072V384.728H487.048V386.072C485.176 386.344 483.88 387.64 483.88 389.368C483.88 391.288 485.208 392.024 486.76 392.376L488.392 392.712C489.208 392.888 489.768 393.288 489.768 393.976C489.768 394.856 488.92 395.352 487.816 395.352C486.488 395.352 485.736 394.648 485.704 393.512H483.48C483.624 395.48 484.936 396.824 487.048 397.096V398.424H488.504ZM497.358 397.128C499.822 397.128 501.55 395.48 501.55 393.4C501.55 391.352 499.998 389.896 497.79 389.896C497.614 389.896 497.438 389.912 497.262 389.976L500.366 386.184H497.854L494.59 390.12C493.582 391.32 493.182 392.184 493.182 393.544C493.182 395.48 494.894 397.128 497.358 397.128ZM497.374 395.272C496.366 395.272 495.502 394.632 495.502 393.464C495.502 392.2 496.366 391.64 497.374 391.64C498.382 391.64 499.246 392.248 499.246 393.48C499.246 394.632 498.382 395.272 497.374 395.272ZM502.72 391.608C502.72 395.176 504.192 397.16 506.896 397.16C509.6 397.16 511.088 395.176 511.088 391.608C511.088 388.024 509.568 386.024 506.896 386.024C504.224 386.024 502.72 388.024 502.72 391.608ZM505.008 391.608C505.008 389.272 505.68 388.008 506.896 388.008C508.128 388.008 508.8 389.272 508.8 391.608C508.8 393.928 508.128 395.176 506.896 395.176C505.648 395.176 505.008 393.928 505.008 391.608ZM512.549 391.608C512.549 395.176 514.021 397.16 516.725 397.16C519.429 397.16 520.917 395.176 520.917 391.608C520.917 388.024 519.397 386.024 516.725 386.024C514.053 386.024 512.549 388.024 512.549 391.608ZM514.837 391.608C514.837 389.272 515.509 388.008 516.725 388.008C517.957 388.008 518.629 389.272 518.629 391.608C518.629 393.928 517.957 395.176 516.725 395.176C515.477 395.176 514.837 393.928 514.837 391.608ZM524.928 395.576C524.928 394.68 524.32 394.056 523.44 394.056C522.56 394.056 521.936 394.68 521.936 395.576C521.936 396.456 522.56 397.08 523.44 397.08C524.32 397.08 524.928 396.456 524.928 395.576ZM529.233 386.056C526.753 386.056 525.041 387.704 525.041 389.784C525.041 391.832 526.577 393.288 528.785 393.288C528.961 393.288 529.137 393.272 529.329 393.208L526.225 397H528.737L531.985 393.064C533.025 391.832 533.409 390.968 533.409 389.64C533.409 387.704 531.681 386.056 529.233 386.056ZM529.217 387.912C530.209 387.912 531.089 388.552 531.089 389.72C531.089 390.984 530.209 391.544 529.217 391.544C528.193 391.544 527.345 390.936 527.345 389.704C527.345 388.552 528.193 387.912 529.217 387.912ZM538.108 397.128C540.572 397.128 542.3 395.48 542.3 393.4C542.3 391.352 540.748 389.896 538.54 389.896C538.364 389.896 538.188 389.912 538.012 389.976L541.116 386.184H538.604L535.34 390.12C534.332 391.32 533.932 392.184 533.932 393.544C533.932 395.48 535.644 397.128 538.108 397.128ZM538.124 395.272C537.116 395.272 536.252 394.632 536.252 393.464C536.252 392.2 537.116 391.64 538.124 391.64C539.132 391.64 539.996 392.248 539.996 393.48C539.996 394.632 539.132 395.272 538.124 395.272Z" fill="#1D1D1F"/>
<path d="M62.496 439H64L67.648 430.2V439H69.28V427.512H67.104L63.264 436.84L59.408 427.512H57.248V439H58.864V430.216L62.496 439ZM73.6036 428.552C73.6036 427.928 73.1236 427.48 72.4356 427.48C71.7476 427.48 71.2516 427.928 71.2516 428.552C71.2516 429.16 71.7476 429.624 72.4356 429.624C73.1236 429.624 73.6036 429.16 73.6036 428.552ZM73.2516 439V430.52H71.6356V439H73.2516ZM77.111 434.216C77.111 432.712 78.039 431.784 79.143 431.784C80.343 431.784 80.983 432.6 80.983 434.056V439H82.599V433.512C82.599 431.48 81.447 430.36 79.703 430.36C78.535 430.36 77.575 430.984 76.999 431.928V430.52H75.495V439H77.111V434.216ZM86.713 428.552C86.713 427.928 86.233 427.48 85.545 427.48C84.857 427.48 84.361 427.928 84.361 428.552C84.361 429.16 84.857 429.624 85.545 429.624C86.233 429.624 86.713 429.16 86.713 428.552ZM86.361 439V430.52H84.745V439H86.361ZM90.2204 434.216C90.2204 432.712 91.1484 431.784 92.2524 431.784C93.4524 431.784 94.0924 432.6 94.0924 434.056V439H95.7084V433.512C95.7084 431.48 94.5564 430.36 92.8124 430.36C91.6444 430.36 90.6844 430.984 90.1084 431.928V430.52H88.6044V439H90.2204V434.216ZM101.246 442.264C103.646 442.264 105.07 440.936 105.07 438.712V430.52H103.566V432.024C102.99 430.952 102.03 430.36 100.814 430.36C98.6864 430.36 97.2464 432.056 97.2464 434.584C97.2464 437.08 98.7504 438.824 100.862 438.824C102.014 438.824 102.974 438.232 103.454 437.208V438.744C103.454 440.2 102.686 440.984 101.23 440.984C99.9184 440.984 99.1504 440.344 99.0544 439.16H97.4864C97.5824 441.08 99.0224 442.264 101.246 442.264ZM98.8784 434.584C98.8784 432.84 99.7584 431.752 101.15 431.752C102.542 431.752 103.454 432.872 103.454 434.632C103.454 436.312 102.526 437.416 101.15 437.416C99.7424 437.416 98.8784 436.344 98.8784 434.584Z" fill="#787F84"/>
<path d="M506.504 440.424V439.128C508.776 438.952 510.136 437.592 510.136 435.688C510.136 434.056 509 433.144 507.112 432.744L505.512 432.408C504.792 432.264 504.136 431.928 504.136 431.192C504.136 430.36 504.824 429.832 505.848 429.832C506.952 429.832 507.704 430.536 507.768 431.592H509.992C509.848 429.64 508.472 428.328 506.504 428.072V426.728H505.048V428.072C503.176 428.344 501.88 429.64 501.88 431.368C501.88 433.288 503.208 434.024 504.76 434.376L506.392 434.712C507.208 434.888 507.768 435.288 507.768 435.976C507.768 436.856 506.92 437.352 505.816 437.352C504.488 437.352 503.736 436.648 503.704 435.512H501.48C501.624 437.48 502.936 438.824 505.048 439.096V440.424H506.504ZM511.486 433.608C511.486 437.176 512.958 439.16 515.662 439.16C518.366 439.16 519.854 437.176 519.854 433.608C519.854 430.024 518.334 428.024 515.662 428.024C512.99 428.024 511.486 430.024 511.486 433.608ZM513.774 433.608C513.774 431.272 514.446 430.008 515.662 430.008C516.894 430.008 517.566 431.272 517.566 433.608C517.566 435.928 516.894 437.176 515.662 437.176C514.414 437.176 513.774 435.928 513.774 433.608ZM523.866 437.576C523.866 436.68 523.258 436.056 522.378 436.056C521.498 436.056 520.874 436.68 520.874 437.576C520.874 438.456 521.498 439.08 522.378 439.08C523.258 439.08 523.866 438.456 523.866 437.576ZM529.108 439.16C531.828 439.16 533.204 437.32 533.204 435.464C533.204 433.64 531.972 431.864 529.396 431.864C528.756 431.864 528.132 432.024 527.588 432.376L527.924 430.168H532.564V428.184H526.308L525.364 434.248L527.188 434.84C527.524 434.104 528.164 433.752 529.028 433.752C530.34 433.752 530.9 434.616 530.9 435.464C530.9 436.344 530.404 437.176 529.092 437.176C528.084 437.176 527.348 436.648 527.22 435.704H524.996C525.06 437.72 526.804 439.16 529.108 439.16ZM541.945 437.016H537.769L539.401 435.256C541.289 433.352 541.769 432.52 541.769 431.208C541.769 429.384 540.185 428.024 538.025 428.024C535.705 428.024 534.073 429.56 534.073 431.72H536.233C536.233 430.664 536.873 430.008 537.913 430.008C538.857 430.008 539.449 430.6 539.449 431.48C539.449 432.424 538.921 433.096 537.673 434.376L534.393 437.736V439H541.945V437.016Z" fill="#1D1D1F"/>
<path d="M61.232 477C63.808 477 65.472 475.64 65.472 473.224C65.472 470.824 63.808 469.512 61.232 469.512H57.248V481H59.008V477H61.232ZM61.216 471C62.768 471 63.712 471.816 63.712 473.24C63.712 474.664 62.768 475.512 61.216 475.512H59.008V471H61.216ZM72.0841 481H73.4281V475.56C73.4281 473.544 72.2121 472.36 70.1161 472.36C68.1321 472.36 66.7721 473.624 66.6921 475.528H68.1641C68.2121 474.344 68.9321 473.64 70.1161 473.64C71.2361 473.64 71.8921 474.328 71.8921 475.544V476.168C71.2041 476.088 70.8041 476.072 70.3081 476.072C67.7801 476.072 66.4521 476.936 66.4521 478.6C66.4521 480.152 67.6041 481.16 69.3641 481.16C70.6121 481.16 71.5561 480.632 72.0841 479.688V481ZM67.9881 478.552C67.9881 477.56 68.7881 477.08 70.4041 477.08C70.8201 477.08 71.2681 477.096 71.8921 477.176V477.864C71.8921 479.16 71.0441 480.008 69.6841 480.008C68.6441 480.008 67.9881 479.432 67.9881 478.552ZM82.3631 472.52H80.7311L78.4431 478.984L75.9791 472.52H74.2351L77.5791 480.888L76.3631 484.088H78.1231L82.3631 472.52ZM85.1266 481V476.136C85.1266 474.712 86.0066 473.784 87.1266 473.784C88.3106 473.784 88.9346 474.616 88.9346 476.024V481H90.5506V476.136C90.5506 474.712 91.4466 473.784 92.5506 473.784C93.7346 473.784 94.3586 474.616 94.3586 476.024V481H95.9746V475.512C95.9746 473.496 94.8546 472.36 93.1106 472.36C91.8146 472.36 90.8386 473.032 90.2466 474.12C89.8626 473 88.9186 472.36 87.6706 472.36C86.5026 472.36 85.5906 472.952 85.0146 473.928V472.52H83.5106V481H85.1266ZM101.624 481.16C103.624 481.16 105.08 480.024 105.496 478.136H103.896C103.624 479.24 102.792 479.896 101.592 479.896C100.168 479.896 99.3036 478.888 99.1756 477.16H105.496C105.784 474.408 104.104 472.36 101.576 472.36C99.2396 472.36 97.5276 474.2 97.5276 476.712C97.5276 479.384 99.1756 481.16 101.624 481.16ZM101.544 473.576C102.856 473.576 103.704 474.52 103.784 476.088H99.1916C99.3676 474.504 100.248 473.576 101.544 473.576ZM108.83 476.216C108.83 474.712 109.758 473.784 110.862 473.784C112.062 473.784 112.702 474.6 112.702 476.056V481H114.318V475.512C114.318 473.48 113.166 472.36 111.422 472.36C110.254 472.36 109.294 472.984 108.718 473.928V472.52H107.214V481H108.83V476.216ZM121.217 479.432C120.881 479.592 120.545 479.656 120.161 479.656C119.297 479.656 118.737 479.24 118.737 478.072V473.896H121.297V472.52H118.737V470.008H117.121V472.52H115.248V473.896H117.121V478.44C117.121 480.312 118.209 481.16 119.777 481.16C120.289 481.16 120.721 481.08 121.217 480.856V479.432ZM129.528 478.472C129.528 477.256 128.728 476.52 127.048 476.216L125.608 475.944C124.584 475.752 124.152 475.432 124.152 474.744C124.152 474.008 124.84 473.576 125.864 473.576C127 473.576 127.752 474.168 127.848 475.192H129.4C129.256 473.448 127.88 472.36 125.848 472.36C123.88 472.36 122.584 473.4 122.584 474.888C122.584 476.168 123.464 476.968 125.032 477.272L126.408 477.528C127.464 477.736 127.896 478.04 127.896 478.744C127.896 479.544 127.144 479.944 126.008 479.944C124.712 479.944 123.864 479.288 123.799 478.232H122.248C122.408 480.056 123.736 481.16 125.976 481.16C128.232 481.16 129.528 480.136 129.528 478.472Z" fill="#787F84"/>
<path d="M479.504 482.424V481.128C481.776 480.952 483.136 479.592 483.136 477.688C483.136 476.056 482 475.144 480.112 474.744L478.512 474.408C477.792 474.264 477.136 473.928 477.136 473.192C477.136 472.36 477.824 471.832 478.848 471.832C479.952 471.832 480.704 472.536 480.768 473.592H482.992C482.848 471.64 481.472 470.328 479.504 470.072V468.728H478.048V470.072C476.176 470.344 474.88 471.64 474.88 473.368C474.88 475.288 476.208 476.024 477.76 476.376L479.392 476.712C480.208 476.888 480.768 477.288 480.768 477.976C480.768 478.856 479.92 479.352 478.816 479.352C477.488 479.352 476.736 478.648 476.704 477.512H474.48C474.624 479.48 475.936 480.824 478.048 481.096V482.424H479.504ZM488.326 481V470.184H484.054V472.104H486.102V481H488.326ZM493.1 480.136C493.1 478.776 492.492 478.072 491.468 478.072C490.652 478.072 490.028 478.632 490.028 479.464C490.028 480.184 490.572 480.776 491.292 480.776C491.388 480.776 491.484 480.776 491.628 480.728C491.5 481.592 490.7 482.136 489.516 482.152V483.336C491.532 483.32 493.1 482.056 493.1 480.136ZM502.901 478.872V476.936H501.381V470.184H499.621L494.037 477.224V478.872H499.173V481H501.381V478.872H502.901ZM496.469 476.936L499.173 473.368V476.936H496.469ZM504.049 475.608C504.049 479.176 505.521 481.16 508.225 481.16C510.929 481.16 512.417 479.176 512.417 475.608C512.417 472.024 510.897 470.024 508.225 470.024C505.553 470.024 504.049 472.024 504.049 475.608ZM506.337 475.608C506.337 473.272 507.009 472.008 508.225 472.008C509.457 472.008 510.129 473.272 510.129 475.608C510.129 477.928 509.457 479.176 508.225 479.176C506.977 479.176 506.337 477.928 506.337 475.608ZM517.592 481V470.184H513.32V472.104H515.368V481H517.592ZM522.366 479.576C522.366 478.68 521.758 478.056 520.878 478.056C519.998 478.056 519.374 478.68 519.374 479.576C519.374 480.456 519.998 481.08 520.878 481.08C521.758 481.08 522.366 480.456 522.366 479.576ZM523.392 475.608C523.392 479.176 524.864 481.16 527.568 481.16C530.272 481.16 531.76 479.176 531.76 475.608C531.76 472.024 530.24 470.024 527.568 470.024C524.896 470.024 523.392 472.024 523.392 475.608ZM525.68 475.608C525.68 473.272 526.352 472.008 527.568 472.008C528.8 472.008 529.472 473.272 529.472 475.608C529.472 477.928 528.8 479.176 527.568 479.176C526.32 479.176 525.68 477.928 525.68 475.608ZM533.22 475.608C533.22 479.176 534.692 481.16 537.396 481.16C540.1 481.16 541.588 479.176 541.588 475.608C541.588 472.024 540.068 470.024 537.396 470.024C534.724 470.024 533.22 472.024 533.22 475.608ZM535.508 475.608C535.508 473.272 536.18 472.008 537.396 472.008C538.628 472.008 539.3 473.272 539.3 475.608C539.3 477.928 538.628 479.176 537.396 479.176C536.148 479.176 535.508 477.928 535.508 475.608Z" fill="#1D1D1F"/>
<g filter="url(#filter1_d_117_4329)">
<rect x="40" y="54" width="422" height="72" rx="12" fill="white" shape-rendering="crispEdges"/>
<path d="M96 66H64C59.5817 66 56 69.5817 56 74V106C56 110.418 59.5817 114 64 114H96C100.418 114 104 110.418 104 106V74C104 69.5817 100.418 66 96 66Z" fill="#F0F7FF"/>
<path fill-rule="evenodd" clip-rule="evenodd" d="M82.4 75L92 85V101.5C92 103.433 90.496 105 88.64 105H71.36C69.504 105 68 103.433 68 101.5V78.5C68 76.567 69.504 75 71.36 75H82.4Z" fill="url(#paint0_linear_117_4329)"/>
<path opacity="0.3" d="M92 85.5356H85.959C84.112 85.5356 82.446 83.7919 82.446 81.8589V75.5356L92 85.5356Z" fill="white"/>
<path d="M74.2381 96.8573V95.029H75.5501C76.6611 95.029 77.2781 94.2653 77.2781 93.3704C77.2781 92.4679 76.6681 91.7119 75.5501 91.7119H73.1431V96.8573H74.2381ZM75.4031 94.0647H74.2381V92.6762H75.4031C75.8351 92.6762 76.1591 92.9384 76.1591 93.3704C76.1591 93.7947 75.8351 94.0647 75.4031 94.0647Z" fill="white"/>
<path d="M80.1569 96.8573C81.7689 96.8573 82.8879 95.839 82.8879 94.2884C82.8879 92.7379 81.7689 91.7119 80.1569 91.7119H78.1279V96.8573H80.1569ZM80.1569 95.893H79.2239V92.6762H80.1569C81.2139 92.6762 81.7689 93.3782 81.7689 94.2884C81.7689 95.1602 81.1749 95.893 80.1569 95.893Z" fill="white"/>
<path d="M84.9319 96.8573V94.7282H87.4239V93.7639H84.9319V92.6762H87.4779V91.7119H83.8369V96.8573H84.9319Z" fill="white"/>
<path d="M121.278 80.234L124.904 73.948H123.336L120.55 78.792L117.792 73.948H116.112L119.724 80.234V84H121.278V80.234ZM127.772 84.14C129.872 84.14 131.412 82.488 131.412 80.29C131.412 78.092 129.872 76.44 127.772 76.44C125.672 76.44 124.132 78.092 124.132 80.29C124.132 82.488 125.672 84.14 127.772 84.14ZM127.772 82.894C126.554 82.894 125.602 81.914 125.602 80.29C125.602 78.666 126.554 77.7 127.772 77.7C128.99 77.7 129.956 78.666 129.956 80.29C129.956 81.914 128.99 82.894 127.772 82.894ZM137.487 80.948C137.487 82.11 136.717 82.894 135.765 82.894C134.841 82.894 134.197 82.362 134.197 81.074V76.58H132.783V81.354C132.783 83.258 133.819 84.14 135.317 84.14C136.325 84.14 137.193 83.594 137.585 82.824V84H138.901V76.58H137.487V80.948ZM142.279 80.206C142.279 78.568 143.441 77.868 145.037 77.952V76.482C143.819 76.482 142.699 77.126 142.181 78.148V76.58H140.865V84H142.279V80.206ZM152.008 84.154C153.87 84.154 155.186 82.95 155.438 80.99H153.968C153.8 82.194 153.072 82.894 152.022 82.894C150.804 82.894 150.006 81.872 150.006 80.29C150.006 78.722 150.804 77.686 152.022 77.686C153.058 77.686 153.8 78.4 153.954 79.59H155.438C155.172 77.658 153.842 76.44 152.008 76.44C150.006 76.44 148.55 78.05 148.55 80.29C148.55 82.558 149.978 84.154 152.008 84.154ZM158.275 80.206C158.275 78.568 159.437 77.868 161.033 77.952V76.482C159.815 76.482 158.695 77.126 158.177 78.148V76.58H156.861V84H158.275V80.206ZM168.449 76.58H167.021L165.019 82.236L162.863 76.58H161.337L164.263 83.902L163.199 86.702H164.739L168.449 76.58ZM176.537 80.29C176.537 78.05 175.235 76.44 173.261 76.44C172.211 76.44 171.301 76.986 170.769 77.938V76.58H169.453V86.702H170.867V82.74C171.399 83.636 172.253 84.14 173.261 84.14C175.249 84.14 176.537 82.53 176.537 80.29ZM175.067 80.29C175.067 81.956 174.185 82.88 172.967 82.88C171.777 82.88 170.867 81.928 170.867 80.29C170.867 78.624 171.791 77.686 172.967 77.686C174.185 77.686 175.067 78.624 175.067 80.29ZM182.047 82.628C181.753 82.768 181.459 82.824 181.123 82.824C180.367 82.824 179.877 82.46 179.877 81.438V77.784H182.117V76.58H179.877V74.382H178.463V76.58H176.825V77.784H178.463V81.76C178.463 83.398 179.415 84.14 180.787 84.14C181.235 84.14 181.613 84.07 182.047 83.874V82.628ZM186.369 84.14C188.469 84.14 190.009 82.488 190.009 80.29C190.009 78.092 188.469 76.44 186.369 76.44C184.269 76.44 182.729 78.092 182.729 80.29C182.729 82.488 184.269 84.14 186.369 84.14ZM186.369 82.894C185.151 82.894 184.199 81.914 184.199 80.29C184.199 78.666 185.151 77.7 186.369 77.7C187.587 77.7 188.553 78.666 188.553 80.29C188.553 81.914 187.587 82.894 186.369 82.894ZM198.562 82.628C198.268 82.768 197.974 82.824 197.638 82.824C196.882 82.824 196.392 82.46 196.392 81.438V77.784H198.632V76.58H196.392V74.382H194.978V76.58H193.34V77.784H194.978V81.76C194.978 83.398 195.93 84.14 197.302 84.14C197.75 84.14 198.128 84.07 198.562 83.874V82.628ZM204.476 84H205.652V79.24C205.652 77.476 204.588 76.44 202.754 76.44C201.018 76.44 199.828 77.546 199.758 79.212H201.046C201.088 78.176 201.718 77.56 202.754 77.56C203.734 77.56 204.308 78.162 204.308 79.226V79.772C203.706 79.702 203.356 79.688 202.922 79.688C200.71 79.688 199.548 80.444 199.548 81.9C199.548 83.258 200.556 84.14 202.096 84.14C203.188 84.14 204.014 83.678 204.476 82.852V84ZM200.892 81.858C200.892 80.99 201.592 80.57 203.006 80.57C203.37 80.57 203.762 80.584 204.308 80.654V81.256C204.308 82.39 203.566 83.132 202.376 83.132C201.466 83.132 200.892 82.628 200.892 81.858ZM208.312 84L210.273 81.046L212.261 84H213.885L211.281 80.248L213.717 76.58H212.191L210.357 79.38L208.523 76.58H206.885L209.349 80.206L206.717 84H208.312ZM220.033 84V77.784H222.105V76.58H220.033V76.048C220.033 75.334 220.425 75.026 221.097 75.026C221.349 75.026 221.601 75.054 221.825 75.152V74.004C221.545 73.892 221.209 73.822 220.789 73.822C219.389 73.822 218.619 74.606 218.619 76.034V76.58H216.981V77.784H218.619V84H220.033ZM226.086 84.14C228.186 84.14 229.726 82.488 229.726 80.29C229.726 78.092 228.186 76.44 226.086 76.44C223.986 76.44 222.446 78.092 222.446 80.29C222.446 82.488 223.986 84.14 226.086 84.14ZM226.086 82.894C224.868 82.894 223.916 81.914 223.916 80.29C223.916 78.666 224.868 77.7 226.086 77.7C227.304 77.7 228.27 78.666 228.27 80.29C228.27 81.914 227.304 82.894 226.086 82.894ZM232.582 80.206C232.582 78.568 233.744 77.868 235.34 77.952V76.482C234.122 76.482 233.002 77.126 232.484 78.148V76.58H231.168V84H232.582V80.206ZM237.873 84V79.744C237.873 78.498 238.643 77.686 239.623 77.686C240.659 77.686 241.205 78.414 241.205 79.646V84H242.619V79.744C242.619 78.498 243.403 77.686 244.369 77.686C245.405 77.686 245.951 78.414 245.951 79.646V84H247.365V79.198C247.365 77.434 246.385 76.44 244.859 76.44C243.725 76.44 242.871 77.028 242.353 77.98C242.017 77 241.191 76.44 240.099 76.44C239.077 76.44 238.279 76.958 237.775 77.812V76.58H236.459V84H237.873Z" fill="#787F84"/>
<path d="M122.256 106.24C125.136 106.24 127.44 104.32 127.872 101.472H126C125.68 103.328 124.176 104.656 122.272 104.656C120 104.656 118.4 102.816 118.4 100.24C118.4 97.696 120 95.856 122.272 95.856C124.176 95.856 125.68 97.168 126 99.024H127.872C127.44 96.192 125.136 94.272 122.256 94.272C119.056 94.272 116.576 96.864 116.576 100.24C116.576 103.632 119.056 106.24 122.256 106.24ZM134.709 106H136.053V100.56C136.053 98.544 134.837 97.36 132.741 97.36C130.757 97.36 129.397 98.624 129.317 100.528H130.789C130.837 99.344 131.557 98.64 132.741 98.64C133.861 98.64 134.517 99.328 134.517 100.544V101.168C133.829 101.088 133.429 101.072 132.933 101.072C130.405 101.072 129.077 101.936 129.077 103.6C129.077 105.152 130.229 106.16 131.989 106.16C133.237 106.16 134.181 105.632 134.709 104.688V106ZM130.613 103.552C130.613 102.56 131.413 102.08 133.029 102.08C133.445 102.08 133.893 102.096 134.517 102.176V102.864C134.517 104.16 133.669 105.008 132.309 105.008C131.269 105.008 130.613 104.432 130.613 103.552ZM146.31 101.76C146.31 99.2 144.822 97.36 142.566 97.36C141.366 97.36 140.326 97.984 139.718 99.072V97.52H138.214V109.088H139.83V104.56C140.438 105.584 141.414 106.16 142.566 106.16C144.838 106.16 146.31 104.32 146.31 101.76ZM144.63 101.76C144.63 103.664 143.622 104.72 142.23 104.72C140.87 104.72 139.83 103.632 139.83 101.76C139.83 99.856 140.886 98.784 142.23 98.784C143.622 98.784 144.63 99.856 144.63 101.76ZM149.916 95.552C149.916 94.928 149.436 94.48 148.748 94.48C148.06 94.48 147.564 94.928 147.564 95.552C147.564 96.16 148.06 96.624 148.748 96.624C149.436 96.624 149.916 96.16 149.916 95.552ZM149.564 106V97.52H147.948V106H149.564ZM156.592 104.432C156.256 104.592 155.92 104.656 155.536 104.656C154.672 104.656 154.112 104.24 154.112 103.072V98.896H156.672V97.52H154.112V95.008H152.496V97.52H150.623V98.896H152.496V103.44C152.496 105.312 153.584 106.16 155.152 106.16C155.664 106.16 156.096 106.08 156.592 105.856V104.432ZM163.35 106H164.694V100.56C164.694 98.544 163.478 97.36 161.382 97.36C159.398 97.36 158.038 98.624 157.958 100.528H159.43C159.478 99.344 160.198 98.64 161.382 98.64C162.502 98.64 163.158 99.328 163.158 100.544V101.168C162.47 101.088 162.07 101.072 161.574 101.072C159.046 101.072 157.718 101.936 157.718 103.6C157.718 105.152 158.87 106.16 160.63 106.16C161.878 106.16 162.822 105.632 163.35 104.688V106ZM159.254 103.552C159.254 102.56 160.054 102.08 161.67 102.08C162.086 102.08 162.534 102.096 163.158 102.176V102.864C163.158 104.16 162.31 105.008 160.95 105.008C159.91 105.008 159.254 104.432 159.254 103.552ZM168.486 106V94.512H166.854V106H168.486ZM177.465 109.264C179.865 109.264 181.289 107.936 181.289 105.712V97.52H179.785V99.024C179.209 97.952 178.249 97.36 177.033 97.36C174.905 97.36 173.465 99.056 173.465 101.584C173.465 104.08 174.969 105.824 177.081 105.824C178.233 105.824 179.193 105.232 179.673 104.208V105.744C179.673 107.2 178.905 107.984 177.449 107.984C176.137 107.984 175.369 107.344 175.273 106.16H173.705C173.801 108.08 175.241 109.264 177.465 109.264ZM175.097 101.584C175.097 99.84 175.977 98.752 177.369 98.752C178.761 98.752 179.673 99.872 179.673 101.632C179.673 103.312 178.745 104.416 177.369 104.416C175.961 104.416 175.097 103.344 175.097 101.584ZM188.662 106H190.006V100.56C190.006 98.544 188.79 97.36 186.694 97.36C184.71 97.36 183.35 98.624 183.27 100.528H184.742C184.79 99.344 185.51 98.64 186.694 98.64C187.814 98.64 188.47 99.328 188.47 100.544V101.168C187.782 101.088 187.382 101.072 186.886 101.072C184.358 101.072 183.03 101.936 183.03 103.6C183.03 105.152 184.182 106.16 185.942 106.16C187.19 106.16 188.134 105.632 188.662 104.688V106ZM184.566 103.552C184.566 102.56 185.366 102.08 186.982 102.08C187.398 102.08 187.846 102.096 188.47 102.176V102.864C188.47 104.16 187.622 105.008 186.262 105.008C185.222 105.008 184.566 104.432 184.566 103.552ZM194.135 95.552C194.135 94.928 193.655 94.48 192.967 94.48C192.279 94.48 191.783 94.928 191.783 95.552C191.783 96.16 192.279 96.624 192.967 96.624C193.655 96.624 194.135 96.16 194.135 95.552ZM193.783 106V97.52H192.167V106H193.783ZM197.642 101.216C197.642 99.712 198.57 98.784 199.674 98.784C200.874 98.784 201.514 99.6 201.514 101.056V106H203.13V100.512C203.13 98.48 201.978 97.36 200.234 97.36C199.066 97.36 198.106 97.984 197.53 98.928V97.52H196.026V106H197.642V101.216ZM211.996 103.472C211.996 102.256 211.196 101.52 209.516 101.216L208.076 100.944C207.052 100.752 206.62 100.432 206.62 99.744C206.62 99.008 207.308 98.576 208.332 98.576C209.468 98.576 210.22 99.168 210.316 100.192H211.868C211.724 98.448 210.348 97.36 208.316 97.36C206.348 97.36 205.052 98.4 205.052 99.888C205.052 101.168 205.932 101.968 207.5 102.272L208.876 102.528C209.932 102.736 210.364 103.04 210.364 103.744C210.364 104.544 209.612 104.944 208.476 104.944C207.18 104.944 206.332 104.288 206.268 103.232H204.716C204.876 105.056 206.204 106.16 208.444 106.16C210.7 106.16 211.996 105.136 211.996 103.472ZM219.488 106V98.896H221.856V97.52H219.488V96.912C219.488 96.096 219.936 95.744 220.704 95.744C220.992 95.744 221.28 95.776 221.536 95.888V94.576C221.216 94.448 220.832 94.368 220.352 94.368C218.752 94.368 217.872 95.264 217.872 96.896V97.52H216V98.896H217.872V106H219.488ZM226.406 106.16C228.806 106.16 230.566 104.272 230.566 101.76C230.566 99.248 228.806 97.36 226.406 97.36C224.006 97.36 222.246 99.248 222.246 101.76C222.246 104.272 224.006 106.16 226.406 106.16ZM226.406 104.736C225.014 104.736 223.926 103.616 223.926 101.76C223.926 99.904 225.014 98.8 226.406 98.8C227.798 98.8 228.902 99.904 228.902 101.76C228.902 103.616 227.798 104.736 226.406 104.736ZM233.83 101.664C233.83 99.792 235.158 98.992 236.982 99.088V97.408C235.59 97.408 234.31 98.144 233.718 99.312V97.52H232.214V106H233.83V101.664ZM249.7 101.76C249.7 99.2 248.212 97.36 245.956 97.36C244.756 97.36 243.716 97.984 243.108 99.072V97.52H241.604V109.088H243.22V104.56C243.828 105.584 244.804 106.16 245.956 106.16C248.228 106.16 249.7 104.32 249.7 101.76ZM248.02 101.76C248.02 103.664 247.012 104.72 245.62 104.72C244.26 104.72 243.22 103.632 243.22 101.76C243.22 99.856 244.276 98.784 245.62 98.784C247.012 98.784 248.02 99.856 248.02 101.76ZM256.475 106H257.819V100.56C257.819 98.544 256.603 97.36 254.507 97.36C252.523 97.36 251.163 98.624 251.083 100.528H252.555C252.603 99.344 253.323 98.64 254.507 98.64C255.627 98.64 256.283 99.328 256.283 100.544V101.168C255.595 101.088 255.195 101.072 254.699 101.072C252.171 101.072 250.843 101.936 250.843 103.6C250.843 105.152 251.995 106.16 253.755 106.16C255.003 106.16 255.947 105.632 256.475 104.688V106ZM252.379 103.552C252.379 102.56 253.179 102.08 254.795 102.08C255.211 102.08 255.659 102.096 256.283 102.176V102.864C256.283 104.16 255.435 105.008 254.075 105.008C253.035 105.008 252.379 104.432 252.379 103.552ZM266.699 103.472C266.699 102.256 265.899 101.52 264.219 101.216L262.779 100.944C261.755 100.752 261.323 100.432 261.323 99.744C261.323 99.008 262.011 98.576 263.035 98.576C264.171 98.576 264.923 99.168 265.019 100.192H266.571C266.427 98.448 265.051 97.36 263.019 97.36C261.051 97.36 259.755 98.4 259.755 99.888C259.755 101.168 260.635 101.968 262.203 102.272L263.579 102.528C264.635 102.736 265.067 103.04 265.067 103.744C265.067 104.544 264.315 104.944 263.179 104.944C261.883 104.944 261.035 104.288 260.971 103.232H259.419C259.579 105.056 260.907 106.16 263.147 106.16C265.403 106.16 266.699 105.136 266.699 103.472ZM273.138 104.432C272.802 104.592 272.466 104.656 272.082 104.656C271.218 104.656 270.658 104.24 270.658 103.072V98.896H273.218V97.52H270.658V95.008H269.042V97.52H267.17V98.896H269.042V103.44C269.042 105.312 270.13 106.16 271.698 106.16C272.21 106.16 272.642 106.08 273.138 105.856V104.432ZM285.144 97.52H283.512L281.224 103.984L278.76 97.52H277.016L280.36 105.888L279.144 109.088H280.904L285.144 97.52ZM289.514 106.16C291.514 106.16 292.97 105.024 293.386 103.136H291.786C291.514 104.24 290.682 104.896 289.482 104.896C288.058 104.896 287.194 103.888 287.066 102.16H293.386C293.674 99.408 291.994 97.36 289.466 97.36C287.13 97.36 285.418 99.2 285.418 101.712C285.418 104.384 287.066 106.16 289.514 106.16ZM289.434 98.576C290.746 98.576 291.594 99.52 291.674 101.088H287.082C287.258 99.504 288.138 98.576 289.434 98.576ZM300.24 106H301.584V100.56C301.584 98.544 300.368 97.36 298.272 97.36C296.288 97.36 294.928 98.624 294.848 100.528H296.32C296.368 99.344 297.088 98.64 298.272 98.64C299.392 98.64 300.048 99.328 300.048 100.544V101.168C299.36 101.088 298.96 101.072 298.464 101.072C295.936 101.072 294.608 101.936 294.608 103.6C294.608 105.152 295.76 106.16 297.52 106.16C298.768 106.16 299.712 105.632 300.24 104.688V106ZM296.144 103.552C296.144 102.56 296.944 102.08 298.56 102.08C298.976 102.08 299.424 102.096 300.048 102.176V102.864C300.048 104.16 299.2 105.008 297.84 105.008C296.8 105.008 296.144 104.432 296.144 103.552ZM305.361 101.664C305.361 99.792 306.689 98.992 308.513 99.088V97.408C307.121 97.408 305.841 98.144 305.249 99.312V97.52H303.745V106H305.361V101.664Z" fill="#1D1D1F"/>
<rect x="326" y="69" width="120" height="42" rx="12" fill="#F0F7FF"/>
<path d="M355.015 96C358.36 96 360.505 93.69 360.505 90.555C360.505 87.42 358.435 85.23 355.015 85.23H351.19V96H355.015ZM353.47 87.195H354.895C357.04 87.195 358.165 88.41 358.165 90.555C358.165 92.79 357.04 94.035 354.895 94.035H353.47V87.195ZM365.568 96.15C367.893 96.15 369.633 94.32 369.633 91.995C369.633 89.655 367.893 87.84 365.568 87.84C363.243 87.84 361.503 89.655 361.503 91.995C361.503 94.32 363.243 96.15 365.568 96.15ZM365.568 94.305C364.533 94.305 363.648 93.48 363.648 91.995C363.648 90.51 364.533 89.7 365.568 89.7C366.603 89.7 367.488 90.51 367.488 91.995C367.488 93.48 366.603 94.305 365.568 94.305ZM377.448 96H379.518L381.813 87.99H379.758L378.408 93.06L376.983 87.99H374.928L373.458 93.06L372.093 87.99H370.068L372.348 96H374.433L375.933 90.795L377.448 96ZM385.066 91.635C385.066 90.345 385.771 89.685 386.596 89.685C387.541 89.685 388.006 90.345 388.006 91.53V96H390.076V90.825C390.076 88.89 388.966 87.84 387.361 87.84C386.311 87.84 385.486 88.335 384.901 89.13V87.99H382.981V96H385.066V91.635ZM394.092 96V85.23H391.992V96H394.092ZM399.622 96.15C401.947 96.15 403.687 94.32 403.687 91.995C403.687 89.655 401.947 87.84 399.622 87.84C397.297 87.84 395.557 89.655 395.557 91.995C395.557 94.32 397.297 96.15 399.622 96.15ZM399.622 94.305C398.587 94.305 397.702 93.48 397.702 91.995C397.702 90.51 398.587 89.7 399.622 89.7C400.657 89.7 401.542 90.51 401.542 91.995C401.542 93.48 400.657 94.305 399.622 94.305ZM409.908 96H411.603V90.96C411.603 88.995 410.373 87.84 408.273 87.84C406.338 87.84 405.003 89.04 404.883 90.885H406.758C406.833 89.985 407.373 89.46 408.273 89.46C409.143 89.46 409.653 89.985 409.653 90.885V91.365C409.158 91.305 408.768 91.275 408.318 91.275C405.978 91.275 404.718 92.115 404.718 93.675C404.718 95.175 405.828 96.15 407.493 96.15C408.588 96.15 409.383 95.76 409.908 95.01V96ZM406.683 93.615C406.683 92.895 407.268 92.52 408.453 92.52C408.813 92.52 409.158 92.55 409.653 92.625V93.195C409.653 94.125 409.008 94.71 407.943 94.71C407.163 94.71 406.683 94.29 406.683 93.615ZM412.994 91.995C412.994 94.335 414.389 96.15 416.549 96.15C417.584 96.15 418.454 95.685 419.084 94.845V96H420.989V85.23H418.919V89.025C418.319 88.26 417.509 87.84 416.549 87.84C414.389 87.84 412.994 89.625 412.994 91.995ZM415.139 91.995C415.139 90.465 415.994 89.685 417.014 89.685C418.034 89.685 418.904 90.45 418.904 91.965C418.904 93.48 418.049 94.29 417.014 94.29C415.994 94.29 415.139 93.495 415.139 91.995Z" fill="#0182FF"/>
<rect x="39.5" y="53.5" width="423" height="73" rx="12.5" stroke="#EBF0FF" shape-rendering="crispEdges"/>
</g>
</g>
<defs>
<filter id="filter0_b_117_4329" x="-24" y="-24" width="648" height="648" filterUnits="userSpaceOnUse" color-interpolation-filters="sRGB">
<feFlood flood-opacity="0" result="BackgroundImageFix"/>
<feGaussianBlur in="BackgroundImageFix" stdDeviation="12"/>
<feComposite in2="SourceAlpha" operator="in" result="effect1_backgroundBlur_117_4329"/>
<feBlend mode="normal" in="SourceGraphic" in2="effect1_backgroundBlur_117_4329" result="shape"/>
</filter>
<filter id="filter1_d_117_4329" x="9" y="33" width="524" height="174" filterUnits="userSpaceOnUse" color-interpolation-filters="sRGB">
<feFlood flood-opacity="0" result="BackgroundImageFix"/>
<feColorMatrix in="SourceAlpha" type="matrix" values="0 0 0 0 0 0 0 0 0 0 0 0 0 0 0 0 0 0 127 0" result="hardAlpha"/>
<feOffset dx="20" dy="30"/>
<feGaussianBlur stdDeviation="25"/>
<feComposite in2="hardAlpha" operator="out"/>
<feColorMatrix type="matrix" values="0 0 0 0 0 0 0 0 0 0 0 0 0 0 0 0 0 0 0.04 0"/>
<feBlend mode="normal" in2="BackgroundImageFix" result="effect1_dropShadow_117_4329"/>
<feBlend mode="normal" in="SourceGraphic" in2="effect1_dropShadow_117_4329" result="shape"/>
</filter>
<linearGradient id="paint0_linear_117_4329" x1="95.266" y1="104.966" x2="95.266" y2="66.802" gradientUnits="userSpaceOnUse">
<stop stop-color="#0083FF"/>
<stop offset="1" stop-color="#0049FF"/>
</linearGradient>
<clipPath id="clip0_117_4329">
<rect width="20" height="20" fill="white" transform="translate(218 244.5)"/>
</clipPath>
</defs>
</svg>
