<svg width="176" height="33" viewBox="0 0 176 33" fill="none" xmlns="http://www.w3.org/2000/svg">
<path d="M70.3134 13.7543V22.6037H67.0748V13.7543H63.8097V10.9225H73.5784V13.7543H70.3134ZM81.1322 19.0993H75.9699C75.9612 19.4892 76.1175 19.8645 76.3999 20.1326C76.6823 20.4007 77.0647 20.5364 77.4524 20.5064C78.2494 20.5021 79.0313 20.2885 79.7203 19.8869L80.894 21.8338C79.8323 22.4892 78.6109 22.8383 77.3642 22.8426C74.7168 22.8426 73.2784 20.9665 73.2784 18.2763C73.2784 15.2498 74.9815 13.6923 77.2759 13.6923C79.5703 13.6923 81.1764 15.2852 81.1764 18.5418C81.1411 18.7542 81.1411 18.94 81.1322 19.0905V19.0993ZM77.1612 15.887C76.4729 15.887 76.1023 16.356 75.9964 17.2321H78.4937C78.3437 16.3471 78.0525 15.887 77.17 15.887H77.1612ZM86.7093 22.816C84.1502 22.816 82.6148 21.1789 82.6148 18.2144C82.6148 15.5595 83.9737 13.6658 86.7799 13.6658C88.1886 13.619 89.4979 14.3909 90.1421 15.648L88.0771 17.2409C87.6624 16.4799 87.3712 16.1082 86.727 16.1082C86.0828 16.1082 85.5798 16.8781 85.5798 18.2675C85.5798 19.6568 85.9945 20.3736 86.8152 20.3736C87.38 20.3736 87.7859 20.055 88.333 19.2232L90.2303 20.7099C89.2067 22.2143 88.2624 22.8072 86.7005 22.8072L86.7093 22.816ZM96.9458 22.6391V17.6569C96.9458 16.5064 96.5663 16.2144 95.9486 16.2144C95.3309 16.2144 94.925 16.5153 94.925 17.6303V22.6479H91.9246V11.6747L94.925 10.4712V14.4534C95.5461 13.9426 96.328 13.6698 97.1311 13.6835C99.046 13.6835 99.9549 14.9755 99.9549 17.2763V22.6479L96.9458 22.6391Z" fill="#515862"/>
<path d="M107.147 22.8157C103.679 22.8157 101.852 20.2494 101.852 16.7805C101.852 13.0195 104.058 10.7452 107.147 10.7452C110.015 10.7452 111.144 11.9841 111.947 14.1964L109.018 15.3469C108.594 14.2584 108.197 13.577 107.129 13.577C105.779 13.577 105.188 14.9309 105.188 16.7893C105.188 18.6477 105.753 19.9928 107.156 19.9928C108.171 19.9928 108.603 19.4441 109.238 18.338L111.974 19.7981C111.145 21.7157 109.22 22.92 107.138 22.8246L107.147 22.8157ZM119.378 17.1521C119.043 16.7144 118.533 16.446 117.983 16.4176C117.251 16.4176 116.801 16.7716 116.801 17.8335V22.6122H113.801V13.8513H116.801V14.4885C117.654 13.585 119.019 13.3974 120.084 14.0372L119.378 17.1521ZM126.526 22.6211V22.037C125.912 22.5493 125.135 22.8226 124.337 22.8069C122.422 22.8069 121.513 21.5149 121.513 19.2052V13.869H124.514V18.8247C124.514 19.9574 124.902 20.2583 125.52 20.2583C126.137 20.2583 126.517 19.9574 126.517 18.8601V13.869H129.535V22.6476L126.526 22.6211ZM136.727 22.6211V17.6389C136.727 16.4884 136.338 16.1964 135.73 16.1964C135.121 16.1964 134.706 16.4973 134.706 17.6123V22.6299H131.706V13.869H134.706V14.4531C135.327 13.9423 136.109 13.6695 136.912 13.6832C138.827 13.6832 139.736 14.9752 139.736 17.276V22.6476L136.727 22.6211ZM145.595 22.798C143.036 22.798 141.492 21.1609 141.492 18.1964C141.492 15.5415 142.86 13.6478 145.657 13.6478C147.067 13.6041 148.378 14.3746 149.028 15.63L146.963 17.1964C146.54 16.4353 146.257 16.0637 145.613 16.0637C144.969 16.0637 144.466 16.8336 144.466 18.2229C144.466 19.6123 144.881 20.3291 145.701 20.3291C146.266 20.3291 146.672 20.0105 147.219 19.1786L149.116 20.6653C148.101 22.2051 147.148 22.7892 145.604 22.7892L145.595 22.798ZM155.832 22.6211V17.6389C155.832 16.4884 155.452 16.1964 154.835 16.1964C154.217 16.1964 153.82 16.4973 153.82 17.6123V22.6299H150.819V11.6567L153.82 10.4531V14.4354C154.437 13.9232 155.216 13.65 156.017 13.6655C157.941 13.6655 158.841 14.9575 158.841 17.2583V22.6299L155.832 22.6211Z" fill="#515862"/>
<path d="M17 6.64355V13.3136H23.6435V26.6436H30.2962V13.3136H36.9396V6.64355H17ZM43.5923 19.9736V13.3128H36.9388V26.6428H56.8876V19.9727L43.5923 19.9736ZM43.5923 6.64355H56.8876V13.3136H43.5923V6.64355Z" fill="#515862"/>
</svg>
