<svg width="120" height="28" viewBox="0 0 120 28" fill="none" xmlns="http://www.w3.org/2000/svg">
<g style="mix-blend-mode:luminosity" opacity="0.38" clip-path="url(#clip0_117_3428)">
<path fill-rule="evenodd" clip-rule="evenodd" d="M118.048 25.281C117.843 25.2812 117.643 25.2207 117.473 25.1072C117.302 24.9938 117.169 24.8324 117.091 24.6434C117.013 24.4545 116.992 24.2466 117.032 24.0458C117.072 23.8452 117.17 23.6608 117.315 23.5161C117.459 23.3713 117.644 23.2727 117.845 23.2327C118.045 23.1927 118.252 23.2131 118.442 23.2914C118.631 23.3696 118.792 23.5021 118.906 23.6722C119.02 23.8423 119.08 24.0423 119.08 24.2469C119.08 24.8129 118.618 25.281 118.048 25.281ZM118.048 23.0237C117.37 23.0237 116.822 23.5683 116.822 24.2469C116.822 24.9261 117.37 25.4591 118.048 25.4591C118.208 25.4608 118.367 25.4307 118.515 25.3707C118.664 25.3106 118.799 25.2215 118.914 25.1088C119.028 24.9961 119.118 24.8619 119.18 24.714C119.242 24.5661 119.275 24.4072 119.275 24.2469C119.275 24.086 119.242 23.9265 119.181 23.7779C119.119 23.6293 119.029 23.4943 118.915 23.3807C118.801 23.2671 118.665 23.177 118.517 23.1157C118.368 23.0545 118.208 23.0232 118.048 23.0237ZM117.817 24.1557V23.7623H118.042C118.172 23.7623 118.317 23.8002 118.317 23.9501C118.317 24.1177 118.155 24.1557 118.015 24.1557H117.817ZM118.564 23.9562C118.564 23.6594 118.311 23.5524 118.054 23.5524H117.569V24.931H117.817V24.3546H117.994L118.317 24.931H118.618L118.246 24.3283C118.44 24.2854 118.563 24.1557 118.563 23.9562H118.564ZM88.4815 11.7791H85.5785V14.7657H83.7777V17.1245H85.5785V21.8268C85.5785 23.4747 85.9792 25.6909 89.1462 25.6909C89.7639 25.6909 90.5446 25.5661 91.01 25.3881L90.9385 23.0787C90.6431 23.1773 90.19 23.2991 89.6469 23.2991C88.7869 23.2991 88.4815 22.6945 88.4815 21.8061V17.1251H91.0562V14.7657H88.4815V11.7797V11.7791ZM111.095 19.7856L114.927 14.7657H111.495L109.298 17.8312L107.162 14.7657H103.598L107.453 19.7862L103.128 25.4511H106.645L109.252 21.8238L111.839 25.4511H115.443L111.095 19.785V19.7856ZM77.0923 23.2305C75.1712 23.2305 74.2962 21.5907 74.2962 20.0652C74.2962 18.5618 75.1712 16.9421 77.0923 16.9421C79.0131 16.9421 79.8892 18.5618 79.8892 20.0652C79.8892 21.5907 79.0131 23.2311 77.0923 23.2311V23.2305ZM77.0923 14.4646C73.74 14.4646 71.3084 16.8204 71.3084 20.0652C71.3084 23.4233 73.7945 25.7803 77.0923 25.7803C80.3892 25.7803 82.8777 23.4012 82.8777 20.0652C82.8777 16.8204 80.4439 14.4646 77.0923 14.4646ZM99.5754 20.9249C99.5754 22.5097 98.6808 23.5028 97.0577 23.5028C96.4546 23.5028 95.3754 23.3198 95.3754 22.3598C95.3754 21.3294 96.6654 20.6937 99.1815 20.6937H99.5754V20.9249ZM97.6154 14.4646C95.9208 14.4646 94.1977 15.1499 93.0454 16.2189L94.5562 17.9138C95.2508 17.2175 96.4431 16.7775 97.4008 16.7775C98.4516 16.7775 99.5223 17.3037 99.5223 18.5618V18.7491C96.4285 18.7644 92.4962 19.1382 92.4962 22.3207C92.4962 24.6611 94.5285 25.7081 96.5431 25.7081C97.8023 25.7081 98.8885 24.9909 99.5516 24.2132H99.6177V25.4511H102.392V18.9907C102.392 17.3007 101.772 14.4646 97.6154 14.4646ZM53.0496 16.4141H53.0055V14.7657H50.1676V25.4511H53.1132V19.7421C53.1132 19.7164 53.2442 17.1331 55.7958 17.1331C56.0075 17.1331 56.3722 17.1637 56.7112 17.2493V14.5527C56.5044 14.5013 56.0449 14.4646 55.8668 14.4646C54.7079 14.4646 53.7179 15.4161 53.0496 16.4141ZM32.9467 11.7791H30.0439V14.7657H28.2437V17.1245H30.0445V21.8268C30.0445 23.4747 30.4459 25.6909 33.6118 25.6909C34.2298 25.6909 35.0112 25.5661 35.4762 25.3881L35.4046 23.0787C35.1097 23.1773 34.6563 23.2991 34.1129 23.2991C33.2526 23.2991 32.9473 22.6945 32.9473 21.8061V17.1251H35.5221V14.7657H32.9473V11.7797L32.9467 11.7791ZM44.72 20.6239C44.72 21.8794 43.9032 23.2305 42.3795 23.2305C41.2053 23.2305 40.5794 22.3922 40.5794 20.6667V14.7663H37.6337V21.3973C37.6337 23.6037 38.7321 25.7515 41.6722 25.7515C43.0581 25.7515 44.2201 24.6587 44.8051 23.8516H44.8491V25.4511H47.6656V14.7657H44.72V20.6239ZM64.0868 23.2305C62.3093 23.2305 61.2477 21.6433 61.2477 20.1087C61.2477 18.5851 62.3326 16.9421 64.0868 16.9421C65.9929 16.9421 66.9413 18.5618 66.9413 20.0652C66.9413 21.6377 65.9085 23.2311 64.0868 23.2311V23.2305ZM64.6657 14.4646C63.3183 14.4646 62.3259 15.0544 61.3885 15.9344H61.3334V8.87744H58.3884V25.4511H61.2055V23.9403H61.2489C61.9135 25.0313 63.2327 25.7515 64.6015 25.7515C67.6425 25.7515 69.9469 23.3602 69.9469 20.0652C69.9469 16.8204 67.6695 14.4646 64.6657 14.4646Z" fill="black"/>
<path fill-rule="evenodd" clip-rule="evenodd" d="M0.384613 15.0958C0.384613 8.23041 5.94056 2.6665 12.7937 2.6665C19.6468 2.6665 25.2028 8.23103 25.2028 15.0958C25.2028 21.9606 19.6468 27.5245 12.7937 27.5245C5.94056 27.5245 0.384613 21.9612 0.384613 15.0958Z" fill="#D42D27"/>
<path fill-rule="evenodd" clip-rule="evenodd" d="M10.0242 19.6537C8.60084 18.6245 7.22976 17.5251 5.91592 16.3594C5.43317 17.4239 4.9997 18.5101 4.61688 19.6146C6.70953 21.394 9.50708 23.4303 11.4284 24.577C13.9194 18.1191 17.8025 13.9075 21.5227 10.968C21.0477 9.96182 20.4024 9.04521 19.6155 8.25854C15.6335 11.3202 12.3614 15.2077 10.0242 19.6537Z" fill="white"/>
<path fill-rule="evenodd" clip-rule="evenodd" d="M38.4646 4.63197H39.9864V8.86806H41.343V4.63197H42.8641V3.42778H38.4646V4.63259V4.63197ZM47.4502 6.42114C47.4502 7.14622 47.0433 7.89395 46.1842 7.89395C45.3135 7.89395 45.1661 7.08993 45.1661 6.44377V3.43206H43.8095V6.83049C43.8095 7.94045 44.3969 9.02714 45.811 9.02714C46.6138 9.02714 47.2581 8.54075 47.4961 7.99674H47.5188V8.86867H48.8074V3.43145H47.4502V6.42114ZM50.1964 8.86806H51.5535V3.43145H50.1964V8.86806ZM40.665 2.71921C40.8828 2.71921 41.0916 2.6327 41.2456 2.4787C41.3996 2.3247 41.4861 2.11584 41.4861 1.89806C41.4861 1.68027 41.3996 1.47141 41.2456 1.31742C41.0916 1.16342 40.8828 1.0769 40.665 1.0769C40.5571 1.0769 40.4505 1.09815 40.3509 1.13943C40.2514 1.18072 40.1609 1.24122 40.0848 1.31749C40.0086 1.39376 39.9482 1.48429 39.9071 1.58391C39.866 1.68353 39.8448 1.79028 39.8451 1.89806C39.8451 2.35086 40.2122 2.71921 40.665 2.71921ZM54.7035 2.71921C54.8113 2.71921 54.918 2.69796 55.0175 2.65668C55.1171 2.6154 55.2076 2.5549 55.2838 2.47863C55.3599 2.40236 55.4202 2.31183 55.4615 2.2122C55.5025 2.11259 55.5236 2.00584 55.5235 1.89806C55.5232 1.73594 55.4749 1.57754 55.3847 1.44286C55.2945 1.30819 55.1663 1.20329 55.0165 1.14141C54.8666 1.07954 54.7018 1.06348 54.5428 1.09526C54.3838 1.12703 54.2379 1.20522 54.1234 1.31994C54.0088 1.43465 53.9308 1.58075 53.8993 1.73977C53.8677 1.89879 53.8841 2.06359 53.9461 2.21334C54.0082 2.36309 54.1133 2.49107 54.2481 2.58111C54.3829 2.67115 54.5414 2.71921 54.7035 2.71921ZM52.5044 3.42778V4.63259H54.0261V8.86806H55.3822V4.63197H56.9039V3.42778H52.5044ZM30.0285 8.86744H31.3857V3.43206H30.0285V8.86867V8.86744ZM35.7723 3.27297C34.9695 3.27297 34.3252 3.75942 34.0872 4.30339H34.0645V3.43145H32.7759V8.86806H34.1325V5.87717C34.1325 5.15269 34.54 4.40497 35.3991 4.40497C36.2692 4.40497 36.4167 5.21021 36.4167 5.85513V8.86806H37.7738V5.47026C37.7738 4.3603 37.1858 3.27358 35.7723 3.27358V3.27297Z" fill="black"/>
</g>
<defs>
<clipPath id="clip0_117_3428">
<rect width="120" height="26.9231" fill="white" transform="translate(0 0.692383)"/>
</clipPath>
</defs>
</svg>
