<svg width="80" height="81" viewBox="0 0 80 81" fill="none" xmlns="http://www.w3.org/2000/svg">
<g clip-path="url(#clip0_117_4676)">
<path d="M40 80.6436C62.0914 80.6436 80 62.7349 80 40.6436C80 18.5522 62.0914 0.643555 40 0.643555C17.9086 0.643555 0 18.5522 0 40.6436C0 62.7349 17.9086 80.6436 40 80.6436Z" fill="white"/>
<path fill-rule="evenodd" clip-rule="evenodd" d="M20 22.6436C17.7909 22.6436 16 24.4345 16 26.6436V54.6436C16 56.8527 17.7909 58.6436 20 58.6436H56C58.2091 58.6436 60 56.8527 60 54.6436V51.6436H49C42.9249 51.6436 38 46.7187 38 40.6436C38 34.5685 42.9249 29.6436 49 29.6436H60V26.6436C60 24.4345 58.2091 22.6436 56 22.6436H20Z" fill="#0182FF"/>
<path fill-rule="evenodd" clip-rule="evenodd" d="M49 33.6436C45.134 33.6436 42 36.7776 42 40.6436C42 44.5096 45.134 47.6436 49 47.6436H62.3704C63.2704 47.6436 64 46.914 64 46.014V35.2732C64 34.3732 63.2704 33.6436 62.3704 33.6436H49ZM49 43.6436C50.6569 43.6436 52 42.3005 52 40.6436C52 38.9867 50.6569 37.6436 49 37.6436C47.3431 37.6436 46 38.9867 46 40.6436C46 42.3005 47.3431 43.6436 49 43.6436Z" fill="#0958D6"/>
</g>
<defs>
<clipPath id="clip0_117_4676">
<rect width="80" height="80" fill="white" transform="translate(0 0.643555)"/>
</clipPath>
</defs>
</svg>
