<svg width="169" height="169" viewBox="0 0 169 169" fill="none" xmlns="http://www.w3.org/2000/svg">
<g filter="url(#filter0_d_279_6646)">
<path d="M34 120.5H134V130.5C134 136.023 129.523 140.5 124 140.5H44C38.4772 140.5 34 136.023 34 130.5V120.5Z" fill="#0958D6"/>
</g>
<g filter="url(#filter1_d_279_6646)">
<path d="M24 50.5C24 44.9772 28.4772 40.5 34 40.5H134C139.523 40.5 144 44.9772 144 50.5V100.5C144 106.023 139.523 110.5 134 110.5H34C28.4772 110.5 24 106.023 24 100.5V50.5Z" fill="#0182FF"/>
</g>
<path d="M59 40.5V33C59 30.2385 61.2385 28 64 28H104C106.761 28 109 30.2385 109 33V40.5" stroke="#0958D6" stroke-width="2"/>
<defs>
<filter id="filter0_d_279_6646" x="10" y="100.5" width="148" height="68" filterUnits="userSpaceOnUse" color-interpolation-filters="sRGB">
<feFlood flood-opacity="0" result="BackgroundImageFix"/>
<feColorMatrix in="SourceAlpha" type="matrix" values="0 0 0 0 0 0 0 0 0 0 0 0 0 0 0 0 0 0 127 0" result="hardAlpha"/>
<feOffset dy="4"/>
<feGaussianBlur stdDeviation="12"/>
<feComposite in2="hardAlpha" operator="out"/>
<feColorMatrix type="matrix" values="0 0 0 0 0.0352941 0 0 0 0 0.345098 0 0 0 0 0.839216 0 0 0 0.25 0"/>
<feBlend mode="normal" in2="BackgroundImageFix" result="effect1_dropShadow_279_6646"/>
<feBlend mode="normal" in="SourceGraphic" in2="effect1_dropShadow_279_6646" result="shape"/>
</filter>
<filter id="filter1_d_279_6646" x="0" y="20.5" width="168" height="118" filterUnits="userSpaceOnUse" color-interpolation-filters="sRGB">
<feFlood flood-opacity="0" result="BackgroundImageFix"/>
<feColorMatrix in="SourceAlpha" type="matrix" values="0 0 0 0 0 0 0 0 0 0 0 0 0 0 0 0 0 0 127 0" result="hardAlpha"/>
<feOffset dy="4"/>
<feGaussianBlur stdDeviation="12"/>
<feComposite in2="hardAlpha" operator="out"/>
<feColorMatrix type="matrix" values="0 0 0 0 0.00392157 0 0 0 0 0.509804 0 0 0 0 1 0 0 0 0.25 0"/>
<feBlend mode="normal" in2="BackgroundImageFix" result="effect1_dropShadow_279_6646"/>
<feBlend mode="normal" in="SourceGraphic" in2="effect1_dropShadow_279_6646" result="shape"/>
</filter>
</defs>
</svg>
