<svg width="176" height="33" viewBox="0 0 176 33" fill="none" xmlns="http://www.w3.org/2000/svg">
<path d="M68.688 7.94581C68.2392 5.91623 68.1387 5.56792 67.4823 5.40046L67 5.26649V4.78421H73.0955V5.26649L72.5797 5.36697C71.4812 5.60811 71.5816 6.70663 71.8898 8.18695L74.6093 21.6841L76.6054 10.94L75.8819 7.25589C75.6073 5.94972 75.5001 5.53442 74.8169 5.36027L74.3681 5.26649V4.78421H80.6712V5.26649L79.9143 5.40716C78.7756 5.6148 78.9498 6.85399 79.2244 8.19365L81.8434 21.6908L84.429 8.91708C84.9112 6.26455 84.6701 5.6148 83.6386 5.40716L82.9152 5.26649V4.78421H87.2891V5.26649L86.8069 5.44065C86.1169 5.68179 85.9428 6.33822 85.4672 8.60895L81.2674 28.6503H80.3698L77.1345 13.0165L74.2074 28.6503H73.0687L68.688 7.94581ZM92.8554 28.6436C90.8593 28.6436 90.1694 27.2638 89.513 27.2638C89.1312 27.2638 88.6891 27.3643 88.3408 28.503H87.9255V20.6525H88.4413C88.8565 25.0935 90.5043 27.88 92.8152 27.88C94.3625 27.88 95.4343 26.4667 95.4343 23.9213C95.4343 18.5493 87.758 16.2451 87.758 10.2902C87.758 7.08843 89.379 4.64355 92.2995 4.64355C94.1951 4.64355 94.5702 5.88274 95.3606 5.88274C95.8094 5.88274 96.1175 5.54112 96.2917 4.78421H96.707V12.6347H96.1912C95.7759 8.67593 94.7443 5.40716 92.266 5.40716C90.5445 5.40716 90.2364 7.12862 90.2364 8.30082C90.2364 13.4318 97.9126 15.1867 97.9126 22.3472C97.9193 25.9911 95.9232 28.6436 92.8554 28.6436ZM107.766 23.0304C107.766 26.7145 105.904 28.6436 103.05 28.6436C100.465 28.6436 98.9509 26.5404 98.9844 24.2361C99.0179 22.4477 100.324 21.5501 101.396 21.6908C102.153 21.7913 102.91 22.3472 102.809 23.5529C102.709 25.2744 100.846 25.2074 100.78 26.2724C100.713 26.9289 101.57 27.8934 102.675 27.8934C104.604 27.8934 104.604 25.4485 104.604 23.5864V6.88078C104.604 5.91623 104.296 5.6416 103.539 5.46744L102.682 5.25979V4.78421H109.467V5.26649L108.71 5.47414C108.02 5.6483 107.779 5.95642 107.779 6.92097L107.766 23.0304Z" fill="#515862"/>
</svg>
