<svg width="129" height="28" viewBox="0 0 129 28" fill="none" xmlns="http://www.w3.org/2000/svg">
<g clip-path="url(#clip0_117_4384)">
<path d="M23.3887 14.2598V14.2214C23.3887 10.4886 26.1835 7.43164 30.1593 7.43164C32.1866 7.43164 33.519 8.03068 34.6616 8.92391C34.8028 9.0318 34.917 9.1709 34.9954 9.3303C35.0738 9.4897 35.1143 9.66508 35.1136 9.84272C35.1142 9.99232 35.0849 10.1405 35.0273 10.2786C34.9697 10.4167 34.8851 10.5419 34.7784 10.6468C34.6718 10.7517 34.5452 10.8341 34.4061 10.8894C34.2671 10.9446 34.1184 10.9714 33.9688 10.9683C33.7201 10.9748 33.4761 10.8999 33.2738 10.7551C32.3742 10.0239 31.3979 9.57198 30.1422 9.57198C27.6459 9.57198 25.8083 11.6355 25.8083 14.2065V14.2427C25.8083 16.8137 27.6267 18.8965 30.1422 18.8965C31.53 18.8965 32.468 18.4467 33.4252 17.6387C33.6112 17.4641 33.8545 17.3633 34.1095 17.3552C34.3938 17.3573 34.6661 17.4695 34.8693 17.6683C35.0724 17.8671 35.1906 18.137 35.1989 18.4211C35.1976 18.5772 35.1635 18.7313 35.0989 18.8734C35.0342 19.0156 34.9405 19.1425 34.8237 19.2461C33.5936 20.3376 32.1909 21.0134 30.0591 21.0134C26.2389 21.0134 23.3887 18.031 23.3887 14.2598Z" fill="#0047FF"/>
<path d="M36.2266 15.8905V15.8543C36.2266 13.0211 38.4778 10.6761 41.5177 10.6761C44.5577 10.6761 46.7897 12.9849 46.7897 15.8159V15.8543C46.7897 18.6683 44.5385 21.0133 41.4793 21.0133C38.4586 21.0133 36.2266 18.7067 36.2266 15.8905ZM44.5193 15.8905V15.8543C44.5193 14.1105 43.2615 12.6566 41.4793 12.6566C39.6609 12.6566 38.4948 14.0828 38.4948 15.8074V15.8458C38.4948 17.5725 39.7526 19.0158 41.5156 19.0158C43.3553 19.0243 44.5193 17.5981 44.5193 15.8905Z" fill="#0047FF"/>
<path d="M48.4648 8.21822C48.4648 7.54457 49.0276 7.11182 49.7588 7.11182C50.49 7.11182 51.0528 7.53818 51.0528 8.21822V8.33121C51.0528 9.00699 50.49 9.4568 49.7588 9.4568C49.0276 9.4568 48.4648 9.00699 48.4648 8.33121V8.21822ZM48.6333 11.9148C48.6301 11.7652 48.657 11.6165 48.7122 11.4775C48.7674 11.3384 48.8499 11.2118 48.9548 11.1051C49.0597 10.9985 49.1848 10.9139 49.3229 10.8563C49.461 10.7987 49.6092 10.7694 49.7588 10.77C49.9094 10.7691 50.0587 10.7982 50.1979 10.8554C50.3372 10.9126 50.4637 10.9969 50.5702 11.1034C50.6767 11.2099 50.761 11.3364 50.8182 11.4757C50.8754 11.615 50.9045 11.7642 50.9036 11.9148V19.7556C50.8909 20.0481 50.7658 20.3245 50.5543 20.527C50.3428 20.7295 50.0613 20.8426 49.7684 20.8426C49.4756 20.8426 49.1941 20.7295 48.9826 20.527C48.7711 20.3245 48.6459 20.0481 48.6333 19.7556V11.9148Z" fill="#0047FF"/>
<path d="M53.2698 11.9147C53.2666 11.7651 53.2935 11.6165 53.3487 11.4774C53.4039 11.3384 53.4864 11.2118 53.5913 11.1051C53.6962 10.9984 53.8214 10.9138 53.9595 10.8562C54.0975 10.7987 54.2458 10.7693 54.3954 10.7699C54.5459 10.7691 54.6952 10.7981 54.8345 10.8554C54.9737 10.9126 55.1003 10.9969 55.2067 11.1034C55.3132 11.2098 55.3975 11.3364 55.4547 11.4756C55.512 11.6149 55.541 11.7642 55.5401 11.9147V12.4029C56.1797 11.4841 57.0964 10.6761 58.6355 10.6761C60.8675 10.6761 62.1615 12.1684 62.1615 14.4665V19.7555C62.1656 19.9049 62.1393 20.0536 62.0843 20.1926C62.0293 20.3316 61.9467 20.458 61.8415 20.5642C61.7364 20.6704 61.6107 20.7541 61.4723 20.8104C61.3338 20.8667 61.1854 20.8944 61.0359 20.8918C60.8864 20.8949 60.7377 20.868 60.5986 20.8128C60.4596 20.7576 60.333 20.6751 60.2263 20.5702C60.1196 20.4653 60.035 20.3402 59.9774 20.2021C59.9199 20.064 59.8905 19.9158 59.8912 19.7662V15.1593C59.8912 13.6223 59.1216 12.7397 57.7721 12.7397C56.459 12.7397 55.5401 13.6585 55.5401 15.1977V19.7555C55.5275 20.0481 55.4023 20.3244 55.1908 20.527C54.9793 20.7295 54.6978 20.8425 54.405 20.8425C54.1121 20.8425 53.8306 20.7295 53.6191 20.527C53.4076 20.3244 53.2825 20.0481 53.2698 19.7555V11.9147Z" fill="#0047FF"/>
<path d="M67.7919 9.79355H64.5942C64.3115 9.79355 64.0404 9.68125 63.8405 9.48135C63.6406 9.28146 63.5283 9.01034 63.5283 8.72765C63.5283 8.44495 63.6406 8.17383 63.8405 7.97394C64.0404 7.77404 64.3115 7.66174 64.5942 7.66174H73.3346C73.6173 7.66174 73.8884 7.77404 74.0883 7.97394C74.2882 8.17383 74.4005 8.44495 74.4005 8.72765C74.4005 9.01034 74.2882 9.28146 74.0883 9.48135C73.8884 9.68125 73.6173 9.79355 73.3346 9.79355H70.122V19.7385C70.1091 20.0383 69.981 20.3215 69.7643 20.5291C69.5476 20.7367 69.2592 20.8526 68.9591 20.8526C68.659 20.8526 68.3705 20.7367 68.1538 20.5291C67.9372 20.3215 67.809 20.0383 67.7962 19.7385L67.7919 9.79355Z" fill="#0047FF"/>
<path d="M74.5178 11.9147C74.5147 11.7651 74.5415 11.6164 74.5967 11.4773C74.652 11.3383 74.7344 11.2117 74.8393 11.105C74.9442 10.9984 75.0694 10.9137 75.2075 10.8562C75.3456 10.7986 75.4938 10.7693 75.6434 10.7699C75.794 10.769 75.9432 10.7981 76.0825 10.8553C76.2218 10.9125 76.3483 10.9968 76.4548 11.1033C76.5613 11.2098 76.6456 11.3363 76.7028 11.4756C76.76 11.6148 76.789 11.7641 76.7882 11.9147V12.9273C77.3126 11.6887 78.2805 10.7507 79.2824 10.7507C79.433 10.7399 79.5841 10.7616 79.7256 10.8144C79.867 10.8672 79.9955 10.9497 80.1022 11.0565C80.209 11.1632 80.2915 11.2917 80.3443 11.4331C80.397 11.5746 80.4188 11.7257 80.408 11.8763C80.4172 12.1351 80.3318 12.3885 80.1678 12.5889C80.0038 12.7894 79.7724 12.9233 79.5169 12.9656C77.8946 13.247 76.7882 14.4963 76.7882 16.8285V19.7554C76.7888 19.9055 76.7595 20.0542 76.7021 20.1929C76.6446 20.3316 76.5602 20.4575 76.4537 20.5632C76.3471 20.6689 76.2206 20.7524 76.0815 20.8088C75.9424 20.8652 75.7935 20.8934 75.6434 20.8917C75.4953 20.8928 75.3484 20.8645 75.2113 20.8083C75.0743 20.7522 74.9497 20.6693 74.845 20.5645C74.7402 20.4598 74.6574 20.3353 74.6012 20.1982C74.545 20.0611 74.5167 19.9142 74.5178 19.7661V11.9147Z" fill="#0047FF"/>
<path d="M80.542 17.9371V17.9073C80.542 15.7755 82.2133 14.7096 84.6329 14.7096C85.5378 14.7005 86.4381 14.8402 87.2976 15.1232V14.878C87.2976 13.4731 86.4343 12.7206 84.8397 12.7206C84.0894 12.7114 83.3442 12.8453 82.6439 13.115C82.5287 13.1513 82.4088 13.1707 82.2879 13.1726C82.1633 13.174 82.0396 13.1507 81.9239 13.1042C81.8083 13.0577 81.7029 12.9887 81.614 12.9014C81.5251 12.814 81.4543 12.71 81.4057 12.5952C81.357 12.4804 81.3316 12.3571 81.3308 12.2324C81.3347 12.0385 81.3954 11.85 81.5052 11.6901C81.6151 11.5302 81.7694 11.406 81.949 11.3328C82.9675 10.9349 84.0533 10.7373 85.1467 10.7508C86.6283 10.7508 87.7368 11.1452 88.4296 11.8572C89.1608 12.5714 89.4955 13.6224 89.4955 14.9164V19.7939C89.4979 19.9399 89.4707 20.0847 89.4155 20.2198C89.3604 20.355 89.2785 20.4775 89.1747 20.5801C89.0709 20.6827 88.9474 20.7632 88.8117 20.8168C88.6759 20.8703 88.5307 20.8959 88.3849 20.8918C87.7283 20.8918 87.2785 20.442 87.2785 19.9368V19.5509C86.8856 20.021 86.3907 20.3954 85.8314 20.6455C85.2722 20.8956 84.6632 21.0148 84.0509 20.9942C82.1941 20.9942 80.542 19.9261 80.542 17.9371ZM87.3339 17.223V16.5493C86.614 16.2813 85.8509 16.1476 85.0827 16.155C83.6182 16.155 82.7569 16.7732 82.7569 17.805V17.8433C82.7569 18.7984 83.6096 19.3356 84.6883 19.3356C86.1891 19.3441 87.3339 18.4808 87.3339 17.223Z" fill="#0047FF"/>
<path d="M91.0708 15.8906V15.8543C91.0626 15.1735 91.1903 14.4978 91.4465 13.867C91.7027 13.2361 92.0823 12.6627 92.563 12.1805C93.0437 11.6982 93.6158 11.3167 94.2458 11.0584C94.8758 10.8001 95.551 10.6702 96.2319 10.6762C97.7881 10.6762 98.8583 11.1835 99.7025 11.9147C99.813 12.0145 99.9017 12.1361 99.963 12.2719C100.024 12.4076 100.057 12.5546 100.058 12.7035C100.058 12.8406 100.031 12.9762 99.9775 13.1025C99.9244 13.2288 99.8467 13.3433 99.7489 13.4393C99.6511 13.5353 99.5352 13.6109 99.4079 13.6617C99.2806 13.7126 99.1445 13.7376 99.0075 13.7353C98.7641 13.7328 98.5277 13.6537 98.3317 13.5093C97.7577 12.9688 97.0011 12.6643 96.2127 12.6566C94.5606 12.6566 93.3433 14.0828 93.3433 15.8074V15.8458C93.3433 17.6088 94.5606 19.0158 96.3065 19.0158C97.1279 19.0074 97.9167 18.6935 98.5193 18.1353C98.6589 18.0092 98.8327 17.9271 99.0188 17.8993C99.2049 17.8715 99.395 17.8994 99.5654 17.9793C99.7357 18.0592 99.8787 18.1877 99.9762 18.3486C100.074 18.5095 100.122 18.6956 100.114 18.8836C100.121 19.0214 100.096 19.159 100.041 19.2856C99.9858 19.4121 99.902 19.5241 99.7963 19.6127C98.9137 20.4654 97.8435 21.0197 96.1935 21.0197C95.5179 21.0283 94.8473 20.9015 94.2215 20.6467C93.5957 20.3919 93.0273 20.0143 92.5498 19.5362C92.0723 19.0581 91.6954 18.4892 91.4414 17.863C91.1874 17.2369 91.0614 16.5662 91.0708 15.8906Z" fill="#0047FF"/>
<path d="M101.734 8.12439C101.733 7.97636 101.762 7.82958 101.818 7.69262C101.874 7.55566 101.957 7.43126 102.062 7.32669C102.166 7.22211 102.291 7.13944 102.428 7.08351C102.565 7.02758 102.712 6.99951 102.86 7.00093C103.009 6.99924 103.157 7.02699 103.295 7.08259C103.433 7.13819 103.559 7.22054 103.666 7.32492C103.772 7.4293 103.857 7.55365 103.915 7.69085C103.973 7.82804 104.004 7.97537 104.005 8.12439V15.4407L108.268 11.2581C108.569 10.9576 108.85 10.77 109.245 10.77C109.378 10.7705 109.51 10.7978 109.633 10.8503C109.756 10.9028 109.867 10.9794 109.96 11.0757C110.052 11.1719 110.125 11.2857 110.173 11.4105C110.22 11.5352 110.243 11.6683 110.238 11.8018C110.238 12.1769 110.051 12.4583 109.731 12.7589L107.1 15.1785L110.102 19.0989C110.284 19.3075 110.391 19.5722 110.402 19.8493C110.403 19.988 110.376 20.1254 110.322 20.2533C110.269 20.3812 110.19 20.4968 110.09 20.5933C109.99 20.6897 109.872 20.765 109.743 20.8144C109.613 20.8639 109.475 20.8866 109.336 20.8811C109.141 20.8903 108.946 20.8486 108.772 20.76C108.597 20.6715 108.449 20.5391 108.341 20.3759L105.506 16.6047L104.013 18.0309V19.7555C104.001 20.0481 103.875 20.3244 103.664 20.527C103.452 20.7295 103.171 20.8426 102.878 20.8426C102.585 20.8426 102.304 20.7295 102.092 20.527C101.881 20.3244 101.756 20.0481 101.743 19.7555L101.734 8.12439Z" fill="#0047FF"/>
<path d="M116.278 21.0133C113.408 21.0133 111.193 18.9305 111.193 15.8735V15.8351C111.193 13.0041 113.202 10.6761 116.035 10.6761C119.185 10.6761 120.744 13.2642 120.744 15.5537C120.747 15.6957 120.722 15.8368 120.67 15.9688C120.617 16.1009 120.539 16.2212 120.44 16.3226C120.341 16.4241 120.222 16.5047 120.091 16.5597C119.96 16.6148 119.82 16.6431 119.678 16.6431H113.466C113.709 18.2547 114.854 19.1565 116.316 19.1565C117.175 19.1642 118.008 18.8614 118.661 18.3037C118.821 18.1622 119.029 18.0861 119.243 18.0906C119.363 18.0896 119.482 18.113 119.593 18.1592C119.704 18.2055 119.805 18.2736 119.889 18.3596C119.973 18.4456 120.039 18.5476 120.082 18.6597C120.126 18.7717 120.146 18.8914 120.143 19.0115C120.141 19.1411 120.113 19.269 120.061 19.3879C120.01 19.5068 119.935 19.6143 119.842 19.7043C118.868 20.5852 117.59 21.0543 116.278 21.0133ZM118.529 15.1359C118.38 13.6713 117.516 12.5287 116.015 12.5287C114.628 12.5287 113.651 13.5946 113.447 15.1359H118.529Z" fill="#0047FF"/>
<path d="M122.475 11.9147C122.472 11.7651 122.499 11.6164 122.554 11.4773C122.609 11.3383 122.691 11.2117 122.796 11.105C122.901 10.9984 123.026 10.9137 123.165 10.8562C123.303 10.7986 123.451 10.7693 123.6 10.7699C123.751 10.769 123.9 10.7981 124.04 10.8553C124.179 10.9125 124.305 10.9968 124.412 11.1033C124.518 11.2098 124.603 11.3363 124.66 11.4756C124.717 11.6148 124.746 11.7641 124.745 11.9147V12.9273C125.27 11.6887 126.237 10.7507 127.239 10.7507C127.39 10.7399 127.541 10.7616 127.683 10.8144C127.824 10.8672 127.952 10.9497 128.059 11.0565C128.166 11.1632 128.249 11.2917 128.301 11.4331C128.354 11.5746 128.376 11.7257 128.365 11.8763C128.374 12.1364 128.287 12.3907 128.122 12.5914C127.956 12.7921 127.722 12.9252 127.465 12.9656C125.852 13.247 124.745 14.4856 124.745 16.8285V19.7554C124.746 19.9055 124.716 20.0542 124.659 20.1929C124.602 20.3316 124.517 20.4575 124.411 20.5632C124.304 20.6689 124.178 20.7524 124.039 20.8088C123.899 20.8652 123.751 20.8934 123.6 20.8917C123.452 20.8928 123.305 20.8645 123.168 20.8083C123.031 20.7522 122.907 20.6693 122.802 20.5645C122.697 20.4598 122.614 20.3353 122.558 20.1982C122.502 20.0611 122.474 19.9142 122.475 19.7661V11.9147Z" fill="#0047FF"/>
<path fill-rule="evenodd" clip-rule="evenodd" d="M0 16.7135L15.2355 23.3644V26.4638C15.2355 27.3133 14.5488 28 13.6992 28C13.4915 28 13.2837 27.9549 13.1029 27.8826C13.1029 27.8826 1.87185 22.9762 1.87057 22.9757C0.804228 22.5329 0.0541901 21.5118 0 20.3009V16.7135ZM1.05593e-05 7.87832C1.05593e-05 9.04565 0.650264 10.0548 1.60418 10.5678L1.64466 10.5892L3.18988 11.2851L9.42515 14.005H9.4342V14.014L14.359 16.1647C14.8726 16.4039 15.2214 16.912 15.2351 17.5105L15.2355 17.5473V21.9933L1.05593e-05 15.3423V7.87832ZM15.2677 5.96198V10.4079C15.2677 10.9828 14.9473 11.4884 14.4763 11.7469L14.4453 11.7634L11.0225 13.2605L9.46784 12.5815V12.5724H9.45879L4.79088 10.5362L15.2677 5.96198ZM13.7285 0C14.5668 0 15.2467 0.668844 15.2644 1.50272L15.2648 1.53617V4.6447L3.21873 9.8989L1.67554 9.20401C0.891964 8.79775 0.306946 8.05942 0.106474 7.17151C0.323286 6.21842 0.98029 5.43488 1.85508 5.05239L1.89975 5.03329L13.2136 0.0902813C13.3761 0.0270418 13.5479 0 13.7285 0Z" fill="#0047FF"/>
</g>
<defs>
<clipPath id="clip0_117_4384">
<rect width="129" height="28" fill="white"/>
</clipPath>
</defs>
</svg>
