<svg width="129" height="28" viewBox="0 0 129 28" fill="none" xmlns="http://www.w3.org/2000/svg">
<g clip-path="url(#clip0_117_4075)">
<path d="M23.3887 14.2598V14.2214C23.3887 10.4886 26.1835 7.43164 30.1593 7.43164C32.1866 7.43164 33.519 8.03068 34.6616 8.92391C34.8028 9.0318 34.917 9.1709 34.9954 9.3303C35.0738 9.4897 35.1143 9.66508 35.1136 9.84272C35.1142 9.99232 35.0849 10.1405 35.0273 10.2786C34.9697 10.4167 34.8851 10.5419 34.7784 10.6468C34.6718 10.7517 34.5452 10.8341 34.4061 10.8894C34.2671 10.9446 34.1184 10.9714 33.9688 10.9683C33.7201 10.9748 33.4761 10.8999 33.2738 10.7551C32.3742 10.0239 31.3979 9.57198 30.1422 9.57198C27.6459 9.57198 25.8083 11.6355 25.8083 14.2065V14.2427C25.8083 16.8137 27.6267 18.8965 30.1422 18.8965C31.53 18.8965 32.468 18.4467 33.4252 17.6387C33.6112 17.4641 33.8545 17.3633 34.1095 17.3552C34.3938 17.3573 34.6661 17.4695 34.8693 17.6683C35.0724 17.8671 35.1906 18.137 35.1989 18.4211C35.1976 18.5772 35.1635 18.7313 35.0989 18.8734C35.0342 19.0156 34.9405 19.1425 34.8237 19.2461C33.5936 20.3376 32.1909 21.0134 30.0591 21.0134C26.2389 21.0134 23.3887 18.031 23.3887 14.2598Z" fill="white"/>
<path d="M36.2266 15.8902V15.854C36.2266 13.0208 38.4778 10.6758 41.5177 10.6758C44.5577 10.6758 46.7897 12.9846 46.7897 15.8156V15.854C46.7897 18.668 44.5385 21.013 41.4793 21.013C38.4586 21.013 36.2266 18.7064 36.2266 15.8902ZM44.5193 15.8902V15.854C44.5193 14.1102 43.2615 12.6563 41.4793 12.6563C39.6609 12.6563 38.4948 14.0825 38.4948 15.8071V15.8455C38.4948 17.5722 39.7526 19.0155 41.5156 19.0155C43.3553 19.024 44.5193 17.5978 44.5193 15.8902Z" fill="white"/>
<path d="M48.4648 8.2187C48.4648 7.54505 49.0276 7.1123 49.7588 7.1123C50.49 7.1123 51.0528 7.53866 51.0528 8.2187V8.33169C51.0528 9.00747 50.49 9.45728 49.7588 9.45728C49.0276 9.45728 48.4648 9.00747 48.4648 8.33169V8.2187ZM48.6333 11.9153C48.6301 11.7657 48.657 11.617 48.7122 11.478C48.7674 11.3389 48.8499 11.2123 48.9548 11.1056C49.0597 10.999 49.1848 10.9144 49.3229 10.8568C49.461 10.7992 49.6092 10.7699 49.7588 10.7705C49.9094 10.7696 50.0587 10.7987 50.1979 10.8559C50.3372 10.9131 50.4637 10.9974 50.5702 11.1039C50.6767 11.2104 50.761 11.3369 50.8182 11.4762C50.8754 11.6155 50.9045 11.7647 50.9036 11.9153V19.7561C50.8909 20.0486 50.7658 20.325 50.5543 20.5275C50.3428 20.73 50.0613 20.8431 49.7684 20.8431C49.4756 20.8431 49.1941 20.73 48.9826 20.5275C48.7711 20.325 48.6459 20.0486 48.6333 19.7561V11.9153Z" fill="white"/>
<path d="M53.2698 11.9144C53.2666 11.7648 53.2935 11.6162 53.3487 11.4771C53.4039 11.3381 53.4864 11.2115 53.5913 11.1048C53.6962 10.9981 53.8214 10.9135 53.9595 10.8559C54.0975 10.7984 54.2458 10.769 54.3954 10.7696C54.5459 10.7688 54.6952 10.7978 54.8345 10.8551C54.9737 10.9123 55.1003 10.9966 55.2067 11.1031C55.3132 11.2095 55.3975 11.3361 55.4547 11.4753C55.512 11.6146 55.541 11.7639 55.5401 11.9144V12.4026C56.1797 11.4838 57.0964 10.6758 58.6355 10.6758C60.8675 10.6758 62.1615 12.1681 62.1615 14.4662V19.7552C62.1656 19.9046 62.1393 20.0533 62.0843 20.1923C62.0293 20.3313 61.9467 20.4577 61.8415 20.5639C61.7364 20.6701 61.6107 20.7538 61.4723 20.8101C61.3338 20.8664 61.1854 20.8941 61.0359 20.8915C60.8864 20.8946 60.7377 20.8677 60.5986 20.8125C60.4596 20.7573 60.333 20.6748 60.2263 20.5699C60.1196 20.465 60.035 20.3399 59.9774 20.2018C59.9199 20.0637 59.8905 19.9155 59.8912 19.7659V15.159C59.8912 13.622 59.1216 12.7394 57.7721 12.7394C56.459 12.7394 55.5401 13.6582 55.5401 15.1974V19.7552C55.5275 20.0478 55.4023 20.3241 55.1908 20.5267C54.9793 20.7292 54.6978 20.8422 54.405 20.8422C54.1121 20.8422 53.8306 20.7292 53.6191 20.5267C53.4076 20.3241 53.2825 20.0478 53.2698 19.7552V11.9144Z" fill="white"/>
<path d="M67.7919 9.79392H64.5942C64.3115 9.79392 64.0404 9.68162 63.8405 9.48172C63.6406 9.28183 63.5283 9.01071 63.5283 8.72802C63.5283 8.44532 63.6406 8.1742 63.8405 7.97431C64.0404 7.77441 64.3115 7.66211 64.5942 7.66211H73.3346C73.6173 7.66211 73.8884 7.77441 74.0883 7.97431C74.2882 8.1742 74.4005 8.44532 74.4005 8.72802C74.4005 9.01071 74.2882 9.28183 74.0883 9.48172C73.8884 9.68162 73.6173 9.79392 73.3346 9.79392H70.122V19.7388C70.1091 20.0386 69.981 20.3218 69.7643 20.5294C69.5476 20.737 69.2592 20.8529 68.9591 20.8529C68.659 20.8529 68.3705 20.737 68.1538 20.5294C67.9372 20.3218 67.809 20.0386 67.7962 19.7388L67.7919 9.79392Z" fill="white"/>
<path d="M74.5178 11.9147C74.5147 11.7651 74.5415 11.6164 74.5967 11.4773C74.652 11.3383 74.7344 11.2117 74.8393 11.105C74.9442 10.9984 75.0694 10.9137 75.2075 10.8562C75.3456 10.7986 75.4938 10.7693 75.6434 10.7699C75.794 10.769 75.9432 10.7981 76.0825 10.8553C76.2218 10.9125 76.3483 10.9968 76.4548 11.1033C76.5613 11.2098 76.6456 11.3363 76.7028 11.4756C76.76 11.6148 76.789 11.7641 76.7882 11.9147V12.9273C77.3126 11.6887 78.2805 10.7507 79.2824 10.7507C79.433 10.7399 79.5841 10.7616 79.7256 10.8144C79.867 10.8672 79.9955 10.9497 80.1022 11.0565C80.209 11.1632 80.2915 11.2917 80.3443 11.4331C80.397 11.5746 80.4188 11.7257 80.408 11.8763C80.4172 12.1351 80.3318 12.3885 80.1678 12.5889C80.0038 12.7894 79.7724 12.9233 79.5169 12.9656C77.8946 13.247 76.7882 14.4963 76.7882 16.8285V19.7554C76.7888 19.9055 76.7595 20.0542 76.7021 20.1929C76.6446 20.3316 76.5602 20.4575 76.4537 20.5632C76.3471 20.6689 76.2206 20.7524 76.0815 20.8088C75.9424 20.8652 75.7935 20.8934 75.6434 20.8917C75.4953 20.8928 75.3484 20.8645 75.2113 20.8083C75.0743 20.7522 74.9497 20.6693 74.845 20.5645C74.7402 20.4598 74.6574 20.3353 74.6012 20.1982C74.545 20.0611 74.5167 19.9142 74.5178 19.7661V11.9147Z" fill="white"/>
<path d="M80.542 17.9369V17.9071C80.542 15.7753 82.2133 14.7094 84.6329 14.7094C85.5378 14.7003 86.4381 14.84 87.2976 15.123V14.8778C87.2976 13.4729 86.4343 12.7204 84.8397 12.7204C84.0894 12.7112 83.3442 12.8451 82.6439 13.1148C82.5287 13.1511 82.4088 13.1705 82.2879 13.1724C82.1633 13.1738 82.0396 13.1505 81.9239 13.104C81.8083 13.0575 81.7029 12.9885 81.614 12.9012C81.5251 12.8138 81.4543 12.7098 81.4057 12.595C81.357 12.4802 81.3316 12.3569 81.3308 12.2322C81.3347 12.0383 81.3954 11.8498 81.5052 11.6899C81.6151 11.53 81.7694 11.4058 81.949 11.3326C82.9675 10.9347 84.0533 10.7371 85.1467 10.7506C86.6283 10.7506 87.7368 11.145 88.4296 11.857C89.1608 12.5712 89.4955 13.6222 89.4955 14.9162V19.7937C89.4979 19.9397 89.4707 20.0845 89.4155 20.2196C89.3604 20.3548 89.2785 20.4773 89.1747 20.5799C89.0709 20.6825 88.9474 20.763 88.8117 20.8166C88.6759 20.8701 88.5307 20.8957 88.3849 20.8916C87.7283 20.8916 87.2785 20.4418 87.2785 19.9366V19.5507C86.8856 20.0208 86.3907 20.3952 85.8314 20.6453C85.2722 20.8954 84.6632 21.0146 84.0509 20.994C82.1941 20.994 80.542 19.9259 80.542 17.9369ZM87.3339 17.2228V16.5491C86.614 16.2811 85.8509 16.1474 85.0827 16.1548C83.6182 16.1548 82.7569 16.773 82.7569 17.8048V17.8431C82.7569 18.7982 83.6096 19.3354 84.6883 19.3354C86.1891 19.3439 87.3339 18.4806 87.3339 17.2228Z" fill="white"/>
<path d="M91.0708 15.8904V15.8541C91.0626 15.1733 91.1903 14.4976 91.4465 13.8668C91.7027 13.2359 92.0823 12.6625 92.563 12.1803C93.0437 11.698 93.6158 11.3165 94.2458 11.0582C94.8758 10.7999 95.551 10.67 96.2319 10.676C97.7881 10.676 98.8583 11.1833 99.7025 11.9145C99.813 12.0143 99.9017 12.1359 99.963 12.2717C100.024 12.4074 100.057 12.5544 100.058 12.7033C100.058 12.8404 100.031 12.976 99.9775 13.1023C99.9244 13.2286 99.8467 13.3431 99.7489 13.4391C99.6511 13.5351 99.5352 13.6107 99.4079 13.6615C99.2806 13.7124 99.1445 13.7374 99.0075 13.7351C98.7641 13.7326 98.5277 13.6535 98.3317 13.5091C97.7577 12.9686 97.0011 12.6641 96.2127 12.6564C94.5606 12.6564 93.3433 14.0826 93.3433 15.8072V15.8456C93.3433 17.6086 94.5606 19.0156 96.3065 19.0156C97.1279 19.0072 97.9167 18.6933 98.5193 18.1351C98.6589 18.009 98.8327 17.9269 99.0188 17.8991C99.2049 17.8713 99.395 17.8992 99.5654 17.9791C99.7357 18.059 99.8787 18.1875 99.9762 18.3484C100.074 18.5093 100.122 18.6954 100.114 18.8834C100.121 19.0212 100.096 19.1588 100.041 19.2854C99.9858 19.4119 99.902 19.5239 99.7963 19.6125C98.9137 20.4652 97.8435 21.0195 96.1935 21.0195C95.5179 21.0281 94.8473 20.9013 94.2215 20.6465C93.5957 20.3917 93.0273 20.0141 92.5498 19.536C92.0723 19.0579 91.6954 18.489 91.4414 17.8628C91.1874 17.2367 91.0614 16.566 91.0708 15.8904Z" fill="white"/>
<path d="M101.734 8.12451C101.733 7.97648 101.762 7.8297 101.818 7.69274C101.874 7.55578 101.957 7.43138 102.062 7.32681C102.166 7.22223 102.291 7.13956 102.428 7.08363C102.565 7.0277 102.712 6.99963 102.86 7.00105C103.009 6.99936 103.157 7.02711 103.295 7.08271C103.433 7.13831 103.559 7.22066 103.666 7.32504C103.772 7.42942 103.857 7.55377 103.915 7.69097C103.973 7.82816 104.004 7.97549 104.005 8.12451V15.4408L108.268 11.2582C108.569 10.9577 108.85 10.7701 109.245 10.7701C109.378 10.7706 109.51 10.7979 109.633 10.8504C109.756 10.9029 109.867 10.9795 109.96 11.0758C110.052 11.172 110.125 11.2858 110.173 11.4106C110.22 11.5353 110.243 11.6684 110.238 11.8019C110.238 12.177 110.051 12.4584 109.731 12.759L107.1 15.1786L110.102 19.099C110.284 19.3076 110.391 19.5723 110.402 19.8494C110.403 19.9881 110.376 20.1255 110.322 20.2534C110.269 20.3813 110.19 20.4969 110.09 20.5934C109.99 20.6898 109.872 20.7651 109.743 20.8145C109.613 20.864 109.475 20.8867 109.336 20.8812C109.141 20.8904 108.946 20.8487 108.772 20.7601C108.597 20.6716 108.449 20.5392 108.341 20.376L105.506 16.6048L104.013 18.031V19.7556C104.001 20.0482 103.875 20.3245 103.664 20.5271C103.452 20.7296 103.171 20.8427 102.878 20.8427C102.585 20.8427 102.304 20.7296 102.092 20.5271C101.881 20.3245 101.756 20.0482 101.743 19.7556L101.734 8.12451Z" fill="white"/>
<path d="M116.278 21.013C113.408 21.013 111.193 18.9302 111.193 15.8732V15.8348C111.193 13.0038 113.202 10.6758 116.035 10.6758C119.185 10.6758 120.744 13.2639 120.744 15.5534C120.747 15.6954 120.722 15.8365 120.67 15.9685C120.617 16.1006 120.539 16.2209 120.44 16.3223C120.341 16.4238 120.222 16.5044 120.091 16.5594C119.96 16.6145 119.82 16.6428 119.678 16.6428H113.466C113.709 18.2544 114.854 19.1562 116.316 19.1562C117.175 19.1639 118.008 18.8611 118.661 18.3034C118.821 18.1619 119.029 18.0858 119.243 18.0903C119.363 18.0893 119.482 18.1127 119.593 18.1589C119.704 18.2052 119.805 18.2733 119.889 18.3593C119.973 18.4453 120.039 18.5473 120.082 18.6594C120.126 18.7714 120.146 18.8911 120.143 19.0112C120.141 19.1408 120.113 19.2687 120.061 19.3876C120.01 19.5065 119.935 19.614 119.842 19.704C118.868 20.5849 117.59 21.054 116.278 21.013ZM118.529 15.1356C118.38 13.671 117.516 12.5284 116.015 12.5284C114.628 12.5284 113.651 13.5943 113.447 15.1356H118.529Z" fill="white"/>
<path d="M122.475 11.9147C122.472 11.7651 122.499 11.6164 122.554 11.4773C122.609 11.3383 122.691 11.2117 122.796 11.105C122.901 10.9984 123.026 10.9137 123.165 10.8562C123.303 10.7986 123.451 10.7693 123.6 10.7699C123.751 10.769 123.9 10.7981 124.04 10.8553C124.179 10.9125 124.305 10.9968 124.412 11.1033C124.518 11.2098 124.603 11.3363 124.66 11.4756C124.717 11.6148 124.746 11.7641 124.745 11.9147V12.9273C125.27 11.6887 126.237 10.7507 127.239 10.7507C127.39 10.7399 127.541 10.7616 127.683 10.8144C127.824 10.8672 127.952 10.9497 128.059 11.0565C128.166 11.1632 128.249 11.2917 128.301 11.4331C128.354 11.5746 128.376 11.7257 128.365 11.8763C128.374 12.1364 128.287 12.3907 128.122 12.5914C127.956 12.7921 127.722 12.9252 127.465 12.9656C125.852 13.247 124.745 14.4856 124.745 16.8285V19.7554C124.746 19.9055 124.716 20.0542 124.659 20.1929C124.602 20.3316 124.517 20.4575 124.411 20.5632C124.304 20.6689 124.178 20.7524 124.039 20.8088C123.899 20.8652 123.751 20.8934 123.6 20.8917C123.452 20.8928 123.305 20.8645 123.168 20.8083C123.031 20.7522 122.907 20.6693 122.802 20.5645C122.697 20.4598 122.614 20.3353 122.558 20.1982C122.502 20.0611 122.474 19.9142 122.475 19.7661V11.9147Z" fill="white"/>
<path fill-rule="evenodd" clip-rule="evenodd" d="M0 16.7135L15.2355 23.3644V26.4638C15.2355 27.3133 14.5488 28 13.6992 28C13.4915 28 13.2837 27.9549 13.1029 27.8826C13.1029 27.8826 1.87185 22.9762 1.87057 22.9757C0.804228 22.5329 0.0541901 21.5118 0 20.3009V16.7135ZM1.05593e-05 7.87832C1.05593e-05 9.04565 0.650264 10.0548 1.60418 10.5678L1.64466 10.5892L3.18988 11.2851L9.42515 14.005H9.4342V14.014L14.359 16.1647C14.8726 16.4039 15.2214 16.912 15.2351 17.5105L15.2355 17.5473V21.9933L1.05593e-05 15.3423V7.87832ZM15.2677 5.96198V10.4079C15.2677 10.9828 14.9473 11.4884 14.4763 11.7469L14.4453 11.7634L11.0225 13.2605L9.46784 12.5815V12.5724H9.45879L4.79088 10.5362L15.2677 5.96198ZM13.7285 0C14.5668 0 15.2467 0.668844 15.2644 1.50272L15.2648 1.53617V4.6447L3.21873 9.8989L1.67554 9.20401C0.891964 8.79775 0.306946 8.05942 0.106474 7.17151C0.323286 6.21842 0.98029 5.43488 1.85508 5.05239L1.89975 5.03329L13.2136 0.0902813C13.3761 0.0270418 13.5479 0 13.7285 0Z" fill="white"/>
</g>
<defs>
<clipPath id="clip0_117_4075">
<rect width="129" height="28" fill="white"/>
</clipPath>
</defs>
</svg>
